{
.appVersion = "1235";
DisplayStrings = (
HandglovesHHTH,
"All die anderen \012Adaptionen sind ein überwiegend trauriges Kapitel.",
H,
"H/K.mono H",
"nn/k.mono nn"
);
classes = (
{
code = E;
disabled = 1;
name = hex_src;
},
{
code = E.x;
disabled = 1;
name = hex_tgt;
},
{
code = "zero one two three four five six seven eight nine a b d e f A B C D F";
disabled = 1;
name = num_all;
},
{
automatic = 1;
code = "A Aacute Acircumflex Adieresis Agrave Atilde B C Ccedilla D E Eacute Ecircumflex Edieresis Egrave F G H I Iacute Icircumflex Idieresis Igrave J K L M N Ntilde O Oacute Ocircumflex Odieresis Ograve Otilde P Q R S T U Uacute Ucircumflex Udieresis Ugrave V W Wacute Wcircumflex Wdieresis Wgrave X Y Yacute Ycircumflex Ydieresis Ygrave Z";
name = Uppercase;
},
{
code = "j\012jdotless\012I\012Iacute\012Icircumflex\012Idieresis\012Igrave\012J\012L\012S\012Y\012Yacute\012Ycircumflex\012Ydieresis\012Ygrave\012Z\012r\012s\012t\012z\012k\012K\012X\012M\012W\012Wacute\012Wcircumflex\012Wdieresis\012Wgrave\012w\012wacute\012wcircumflex\012wdieresis\012wgrave";
name = mono_src;
},
{
code = "j.mono\012jdotless.mono\012I.mono\012Iacute.mono\012Icircumflex.mono\012Idieresis.mono\012Igrave.mono\012J.mono\012L.mono\012S.mono\012Y.mono\012Yacute.mono\012Ycircumflex.mono\012Ydieresis.mono\012Ygrave.mono\012Z.mono\012r.mono\012s.mono\012t.mono\012z.mono\012k.mono\012K.mono\012X.mono\012M.mono\012W.mono\012Wacute.mono\012Wcircumflex.mono\012Wdieresis.mono\012Wgrave.mono\012w.mono\012wacute.mono\012wcircumflex.mono\012wdieresis.mono\012wgrave.mono";
name = mono_tgt;
}
);
copyright = "Copyright 2017-2018 by Jens Kutilek";
customParameters = (
{
name = glyphOrder;
value = (
".notdef NULL CR space"
);
},
{
name = description;

glyphs = (
{
glyphname = A;
lastChange = "2018-09-10 13:40:46 +0000";
layers = (
{
anchors = (
{
name = bottom;
position = "{280, 0}";
},
{
name = ogonek;
position = "{522, 0}";
},
{
name = top;
position = "{280, 720}";
}
);
background = {
paths = (
{
closed = 1;
nodes = (
"160 0 LINE",
"160 240 LINE",
"400 240 LINE",
"400 0 LINE",
"480 0 LINE",
"480 640 LINE",
"400 640 LINE",
"400 320 LINE",
"160 320 LINE",
"160 640 LINE",
"80 640 LINE",
"80 0 LINE"
);
},
{
closed = 1;
nodes = (
"400 640 LINE",
"400 720 LINE",
"160 720 LINE",
"160 640 LINE"
);
}
);
};
hints = (
{
horizontal = 1;
origin = "{0, 4}";
type = Anchor;
},
{
horizontal = 1;
origin = "{0, 6}";
type = Anchor;
},
{
horizontal = 1;
origin = "{0, 6}";
target = "{0, 1}";
type = Align;
options = 4;
},
{
horizontal = 1;
origin = "{0, 4}";
target = "{0, 6}";
other1 = "{0, 7, 1, 1}";
type = Interpolate;
},
{
horizontal = 1;
origin = "{0, 7, 1, 1}";
target = "{0, 7, 1, 3}";
type = TTStem;
options = 4;
},
{
horizontal = 1;
origin = "{0, 4}";
target = "{0, 6}";
other1 = "{0, 1, 0, 7}";
type = Interpolate;
options = 4;
}
);
layerId = "83692D61-586C-413E-9B5A-1AF652750951";
paths = (
{
closed = 1;
nodes = (
"266 650 LINE",
"433 0 LINE",
"522 0 LINE",
"323 720 LINE",
"240 720 LINE",
"37 0 LINE",
"117 0 LINE",
"294 650 LINE"
);
},
{
closed = 1;
nodes = (
"160 204 LINE",
"400 204 LINE",
"400 276 LINE",
"160 276 LINE"
);
}
);
width = 560;
}
);
unicode = 0041;
},
{
glyphname = B;
lastChange = "2018-09-10 13:41:24 +0000";
layers = (
{
anchors = (
{
name = bottom;
position = "{280, 0}";
},
{
name = top;
position = "{280, 720}";
}
);
background = {
paths = (
{
closed = 1;
nodes = (
"160 400 LINE",
"160 640 LINE",
"400 640 LINE",
"400 720 LINE",
"80 720 LINE",
"80 0 LINE",
"400 0 LINE",
"400 80 LINE",
"160 80 LINE",
"160 320 LINE",
"400 320 LINE",
"400 400 LINE"
);
},
{
closed = 1;
nodes = (
"400 400 LINE",
"480 400 LINE",
"480 640 LINE",
"400 640 LINE"
);
},
{
closed = 1;
nodes = (
"400 80 LINE",
"480 80 LINE",
"480 320 LINE",
"400 320 LINE"
);
}
);
};
hints = (
{
horizontal = 1;
origin = "{0, 13}";
target = "{2, 1}";
type = TTStem;
options = 4;
},
{
horizontal = 1;
origin = "{0, 0}";
target = "{1, 7}";
type = TTStem;
options = 4;
},
{
horizontal = 1;
origin = "{0, 13}";
target = "{0, 0}";
other1 = "{1, 1}";
type = Interpolate;
},
{
horizontal = 1;
origin = "{1, 1}";
target = "{2, 7}";
type = TTStem;
options = 4;
},
{
horizontal = 1;
origin = "{1, 1}";
target = "{2, 7}";
other1 = "{0, 6, 0, 10}";
type = Interpolate;
options = 4;
}
);
layerId = "83692D61-586C-413E-9B5A-1AF652750951";
paths = (
{
closed = 1;
nodes = (
"254 0 LINE SMOOTH",
"412 0 OFFCURVE",
"488 73 OFFCURVE",
"488 189 CURVE SMOOTH",
"488 309 OFFCURVE",
"402 384 OFFCURVE",
"267 384 CURVE",
"252 347 LINE",
"388 347 OFFCURVE",
"474 424 OFFCURVE",
"474 535 CURVE SMOOTH",
"474 648 OFFCURVE",
"398 720 OFFCURVE",
"240 720 CURVE SMOOTH",
"80 720 LINE",
"80 0 LINE"
);
},
{
closed = 1;
nodes = (
"160 328 LINE",
"261 328 LINE SMOOTH",
"352 328 OFFCURVE",
"404 285 OFFCURVE",
"404 201 CURVE SMOOTH",
"404 121 OFFCURVE",
"358 70 OFFCURVE",
"256 70 CURVE SMOOTH",
"160 70 LINE"
);
},
{
closed = 1;
nodes = (
"160 650 LINE",
"242 650 LINE SMOOTH",
"349 650 OFFCURVE",
"390 600 OFFCURVE",
"390 526 CURVE SMOOTH",
"390 441 OFFCURVE",
"338 400 OFFCURVE",
"246 400 CURVE SMOOTH",
"160 400 LINE"
);
}
);
width = 560;
}
);
unicode = 0042;
},
{
glyphname = C;
lastChange = "2018-09-10 13:41:33 +0000";
layers = (
{
anchors = (
{
name = bottom;
position = "{280, 0}";
},
{
name = top;
position = "{280, 720}";
}
);
background = {
paths = (
{
closed = 1;
nodes = (
"160 80 LINE",
"160 640 LINE",
"80 640 LINE",
"80 80 LINE"
);
},
{
closed = 1;
nodes = (
"400 0 LINE",
"400 80 LINE",
"160 80 LINE",
"160 0 LINE"
);
},
{
closed = 1;
nodes = (
"480 80 LINE",
"480 240 LINE",
"400 240 LINE",
"400 80 LINE"
);
},
{
closed = 1;
nodes = (
"400 640 LINE",
"400 720 LINE",
"360 722 OFFCURVE",
"320 724 OFFCURVE",
"279 724 CURVE SMOOTH",
"240 724 OFFCURVE",
"200 722 OFFCURVE",
"160 720 CURVE",
"160 640 LINE"
);
},
{
closed = 1;
nodes = (
"480 480 LINE",
"480 640 LINE",
"400 640 LINE",
"400 480 LINE"
);
}
);
};
hints = (
{
horizontal = 1;
origin = "{0, 19}";
target = "{0, 12}";
type = TTStem;
options = 4;
},
{
horizontal = 1;
origin = "{0, 25}";
target = "{0, 6}";
type = TTStem;
options = 4;
}
);
layerId = "83692D61-586C-413E-9B5A-1AF652750951";
paths = (
{
closed = 1;
nodes = (
"377 -11 OFFCURVE",
"422 19 OFFCURVE",
"476 55 CURVE",
"444 110 LINE",
"400 83 OFFCURVE",
"360 61 OFFCURVE",
"308 61 CURVE SMOOTH",
"203 61 OFFCURVE",
"150 151 OFFCURVE",
"150 360 CURVE SMOOTH",
"150 600 OFFCURVE",
"221 659 OFFCURVE",
"304 659 CURVE SMOOTH",
"363 659 OFFCURVE",
"409 634 OFFCURVE",
"443 613 CURVE",
"477 670 LINE",
"429 704 OFFCURVE",
"374 731 OFFCURVE",
"308 731 CURVE SMOOTH",
"155 731 OFFCURVE",
"68 610 OFFCURVE",
"68 360 CURVE SMOOTH",
"68 103 OFFCURVE",
"155 -11 OFFCURVE",
"294 -11 CURVE SMOOTH"
);
}
);
width = 560;
}
);
unicode = 0043;
},
{
glyphname = D;
lastChange = "2018-09-10 13:41:40 +0000";
layers = (
{
anchors = (
{
name = bottom;
position = "{280, 0}";
},
{
name = center;
position = "{280, 360}";
},
{
name = top;
position = "{280, 720}";
}
);
background = {
paths = (
{
closed = 1;
nodes = (
"160 640 LINE",
"320 640 LINE",
"320 720 LINE",
"80 720 LINE",
"80 0 LINE",
"320 0 LINE",
"320 80 LINE",
"160 80 LINE"
);
},
{
closed = 1;
nodes = (
"400 640 LINE",
"320 640 LINE",
"320 560 LINE",
"400 560 LINE"
);
},
{
closed = 1;
nodes = (
"400 160 LINE",
"480 160 LINE",
"480 560 LINE",
"400 560 LINE"
);
},
{
closed = 1;
nodes = (
"400 80 LINE",
"400 160 LINE",
"320 160 LINE",
"320 80 LINE"
);
}
);
};
hints = (
{
horizontal = 1;
origin = "{0, 8}";
target = "{1, 8}";
type = TTStem;
options = 4;
},
{
horizontal = 1;
origin = "{0, 2}";
target = "{1, 5}";
type = TTStem;
options = 4;
}
);
layerId = "83692D61-586C-413E-9B5A-1AF652750951";
paths = (
{
closed = 1;
nodes = (
"80 720 LINE",
"80 0 LINE",
"254 0 LINE SMOOTH",
"403 0 OFFCURVE",
"504 122 OFFCURVE",
"504 362 CURVE SMOOTH",
"504 593 OFFCURVE",
"426 720 OFFCURVE",
"248 720 CURVE SMOOTH"
);
},
{
closed = 1;
nodes = (
"363 648 OFFCURVE",
"420 571 OFFCURVE",
"420 359 CURVE SMOOTH",
"420 144 OFFCURVE",
"358 72 OFFCURVE",
"258 72 CURVE SMOOTH",
"160 72 LINE",
"160 648 LINE",
"252 648 LINE SMOOTH"
);
}
);
width = 560;
}
);
unicode = 0044;
},
{
color = 9;
glyphname = E;
lastChange = "2018-09-10 13:42:10 +0000";
layers = (
{
anchors = (
{
name = bottom;
position = "{280, 0}";
},
{
name = ogonek;
position = "{471, 0}";
},
{
name = top;
position = "{285, 720}";
},
{
name = topleft;
position = "{20, 720}";
}
);
hints = (
{
horizontal = 1;
origin = "{0, 11}";
target = "{0, 2}";
type = TTStem;
options = 4;
},
{
horizontal = 1;
origin = "{0, 10}";
target = "{0, 7}";
type = TTStem;
options = 4;
},
{
horizontal = 1;
origin = "{0, 11}";
target = "{0, 10}";
other1 = "{0, 3}";
type = Interpolate;
},
{
horizontal = 1;
origin = "{0, 3}";
target = "{0, 6}";
type = TTStem;
options = 4;
}
);
layerId = "83692D61-586C-413E-9B5A-1AF652750951";
paths = (
{
closed = 1;
nodes = (
"471 0 LINE",
"471 72 LINE",
"172 72 LINE",
"172 326 LINE",
"431 326 LINE",
"431 398 LINE",
"172 398 LINE",
"172 648 LINE",
"467 648 LINE",
"467 720 LINE",
"92 720 LINE",
"92 0 LINE"
);
}
);
width = 560;
},
{
associatedMasterId = "83692D61-586C-413E-9B5A-1AF652750951";
layerId = "E6CE487C-E1FC-470A-BAAF-A504782E6D1F";
name = "Jan 10 18, 17:22";
paths = (
{
closed = 1;
nodes = (
"471 0 LINE",
"471 72 LINE",
"172 72 LINE",
"172 326 LINE",
"431 326 LINE",
"431 398 LINE",
"172 398 LINE",
"172 648 LINE",
"467 648 LINE",
"467 720 LINE",
"92 720 LINE",
"92 0 LINE"
);
}
);
width = 560;
}
);
unicode = 0045;
},
{
glyphname = F;
lastChange = "2018-09-10 13:42:41 +0000";
layers = (
{
anchors = (
{
name = bottom;
position = "{280, 0}";
},
{
name = top;
position = "{280, 720}";
}
);
hints = (
{
horizontal = 1;
origin = "{0, 8}";
target = "{0, 5}";
type = TTStem;
options = 4;
},
{
horizontal = 1;
origin = "{0, 0}";
type = Anchor;
},
{
horizontal = 1;
origin = "{0, 8}";
target = "{0, 0}";
other1 = "{0, 1}";
type = Interpolate;
},
{
horizontal = 1;
origin = "{0, 1}";
target = "{0, 4}";
type = TTStem;
options = 4;
}
);
layerId = "83692D61-586C-413E-9B5A-1AF652750951";
paths = (
{
closed = 1;
nodes = (
"180 0 LINE",
"180 314 LINE",
"400 314 LINE",
"400 386 LINE",
"180 386 LINE",
"180 648 LINE",
"480 648 LINE",
"480 720 LINE",
"100 720 LINE",
"100 0 LINE"
);
}
);
width = 560;
}
);
unicode = 0046;
},
{
glyphname = G;
lastChange = "2018-09-10 14:07:31 +0000";
layers = (
{
anchors = (
{
name = bottom;
position = "{280, 0}";
},
{
name = top;
position = "{280, 720}";
}
);
background = {
paths = (
{
closed = 1;
nodes = (
"480 0 LINE",
"480 320 LINE",
"240 320 LINE",
"240 240 LINE",
"400 240 LINE",
"400 80 LINE",
"160 80 LINE",
"160 0 LINE"
);
},
{
closed = 1;
nodes = (
"160 80 LINE",
"160 640 LINE",
"80 640 LINE",
"80 80 LINE"
);
},
{
closed = 1;
nodes = (
"400 640 LINE",
"400 720 LINE",
"160 720 LINE",
"160 640 LINE"
);
},
{
closed = 1;
nodes = (
"480 480 LINE",
"480 640 LINE",
"400 640 LINE",
"400 480 LINE"
);
}
);
};
hints = (
{
horizontal = 1;
origin = "{0, 19}";
target = "{0, 12}";
type = TTStem;
options = 4;
},
{
horizontal = 1;
origin = "{0, 25}";
target = "{0, 6}";
type = TTStem;
options = 4;
},
{
horizontal = 1;
origin = "{0, 19}";
target = "{0, 25}";
other1 = "{1, 3}";
type = Interpolate;
},
{
horizontal = 1;
origin = "{1, 3}";
target = "{1, 2}";
type = TTStem;
options = 4;
}
);
layerId = "83692D61-586C-413E-9B5A-1AF652750951";
paths = (
{
closed = 1;
nodes = (
"376 -11 OFFCURVE",
"431 4 OFFCURVE",
"480 25 CURVE",
"457 94 LINE",
"410 74 OFFCURVE",
"365 61 OFFCURVE",
"315 61 CURVE SMOOTH",
"203 61 OFFCURVE",
"150 151 OFFCURVE",
"150 360 CURVE SMOOTH",
"150 600 OFFCURVE",
"221 659 OFFCURVE",
"312 659 CURVE SMOOTH",
"364 659 OFFCURVE",
"408 641 OFFCURVE",
"446 623 CURVE",
"474 686 LINE",
"425 713 OFFCURVE",
"373 731 OFFCURVE",
"312 731 CURVE SMOOTH",
"155 731 OFFCURVE",
"68 610 OFFCURVE",
"68 360 CURVE SMOOTH",
"68 103 OFFCURVE",
"155 -11 OFFCURVE",
"308 -11 CURVE SMOOTH"
);
},
{
closed = 1;
nodes = (
"480 25 LINE",
"480 320 LINE",
"274 320 LINE",
"274 248 LINE",
"400 248 LINE",
"400 25 LINE"
);
}
);
width = 560;
}
);
unicode = 0047;
},
{
glyphname = H;
lastChange = "2018-09-10 14:08:31 +0000";
layers = (
{
anchors = (
{
name = bottom;
position = "{280, 0}";
},
{
name = center;
position = "{280, 360}";
},
{
name = top;
position = "{280, 720}";
},
{
name = topleft;
position = "{20, 720}";
}
);
hints = (
{
horizontal = 1;
origin = "{0, 0}";
type = Anchor;
},
{
horizontal = 1;
origin = "{0, 3}";
type = Anchor;
},
{
horizontal = 1;
origin = "{0, 6}";
type = Anchor;
},
{
horizontal = 1;
origin = "{0, 9}";
type = Anchor;
},
{
horizontal = 1;
origin = "{0, 0}";
target = "{0, 9}";
other1 = "{0, 1}";
type = Interpolate;
},
{
horizontal = 1;
origin = "{0, 1}";
target = "{0, 8}";
type = TTStem;
options = 4;
}
);
layerId = "83692D61-586C-413E-9B5A-1AF652750951";
paths = (
{
closed = 1;
nodes = (
"160 0 LINE",
"160 328 LINE",
"400 328 LINE",
"400 0 LINE",
"480 0 LINE",
"480 720 LINE",
"400 720 LINE",
"400 400 LINE",
"160 400 LINE",
"160 720 LINE",
"80 720 LINE",
"80 0 LINE"
);
}
);
width = 560;
}
);
unicode = 0048;
},
{
glyphname = I;
lastChange = "2018-09-10 14:08:58 +0000";
layers = (
{
anchors = (
{
name = bottom;
position = "{240, 0}";
},
{
name = ogonek;
position = "{400, 0}";
},
{
name = top;
position = "{240, 720}";
},
{
name = topleft;
position = "{20, 720}";
}
);
hints = (
{
horizontal = 1;
origin = "{0, 11}";
target = "{0, 9}";
type = TTStem;
options = 4;
},
{
horizontal = 1;
origin = "{0, 9}";
target = "{0, 2}";
type = Align;
options = 4;
},
{
horizontal = 1;
origin = "{0, 6}";
target = "{0, 8}";
type = TTStem;
options = 4;
},
{
horizontal = 1;
origin = "{0, 8}";
target = "{0, 3}";
type = Align;
options = 4;
}
);
layerId = "83692D61-586C-413E-9B5A-1AF652750951";
paths = (
{
closed = 1;
nodes = (
"400 0 LINE",
"400 64 LINE",
"280 72 LINE",
"280 648 LINE",
"400 656 LINE",
"400 720 LINE",
"80 720 LINE",
"80 656 LINE",
"200 648 LINE",
"200 72 LINE",
"80 64 LINE",
"80 0 LINE"
);
}
);
width = 480;
}
);
unicode = 0049;
},
{
glyphname = J;
lastChange = "2018-09-10 14:09:06 +0000";
layers = (
{
anchors = (
{
name = bottom;
position = "{200, 0}";
},
{
name = top;
position = "{256, 720}";
}
);
background = {
paths = (
{
closed = 1;
nodes = (
"80 720 LINE",
"80 640 LINE",
"320 640 LINE",
"320 80 LINE",
"400 80 LINE",
"400 720 LINE"
);
},
{
closed = 1;
nodes = (
"0 80 LINE",
"80 80 LINE",
"80 160 LINE",
"0 160 LINE"
);
},
{
closed = 1;
nodes = (
"80 80 LINE",
"80 0 LINE",
"320 0 LINE",
"320 80 LINE"
);
}
);
};
color = -1;
hints = (
{
horizontal = 1;
origin = "{0, 3}";
target = "{0, 6}";
type = TTStem;
options = 4;
},
{
horizontal = 1;
origin = "{0, 17}";
target = "{0, 10}";
type = TTStem;
options = 4;
}
);
layerId = "83692D61-586C-413E-9B5A-1AF652750951";
paths = (
{
closed = 1;
nodes = (
"331 -12 OFFCURVE",
"408 69 OFFCURVE",
"408 203 CURVE SMOOTH",
"408 720 LINE",
"104 720 LINE",
"104 648 LINE",
"328 648 LINE",
"328 198 LINE SMOOTH",
"328 106 OFFCURVE",
"285 60 OFFCURVE",
"215 60 CURVE SMOOTH",
"160 60 OFFCURVE",
"121 94 OFFCURVE",
"82 144 CURVE",
"27 100 LINE",
"79 29 OFFCURVE",
"135 -12 OFFCURVE",
"218 -12 CURVE SMOOTH"
);
}
);
width = 480;
}
);
unicode = 004A;
},
{
glyphname = K;
lastChange = "2018-09-10 14:09:27 +0000";
layers = (
{
anchors = (
{
name = bottom;
position = "{260, 0}";
},
{
name = top;
position = "{260, 720}";
}
);
background = {
paths = (
{
closed = 1;
nodes = (
"160 720 LINE",
"80 720 LINE",
"80 0 LINE",
"160 0 LINE",
"160 320 LINE",
"240 320 LINE",
"240 400 LINE",
"160 400 LINE"
);
},
{
closed = 1;
nodes = (
"400 560 LINE",
"480 560 LINE",
"480 720 LINE",
"400 720 LINE"
);
},
{
closed = 1;
nodes = (
"400 480 LINE",
"400 560 LINE",
"320 560 LINE",
"320 480 LINE"
);
},
{
closed = 1;
nodes = (
"320 400 LINE",
"320 480 LINE",
"240 480 LINE",
"240 400 LINE"
);
},
{
closed = 1;
nodes = (
"320 320 LINE",
"240 320 LINE",
"240 240 LINE",
"320 240 LINE"
);
},
{
closed = 1;
nodes = (
"400 240 LINE",
"320 240 LINE",
"320 160 LINE",
"400 160 LINE"
);
},
{
closed = 1;
nodes = (
"480 0 LINE",
"480 160 LINE",
"400 160 LINE",
"400 0 LINE"
);
}
);
};
hints = (
{
horizontal = 1;
origin = "{0, 3}";
type = Anchor;
},
{
horizontal = 1;
origin = "{2, 0}";
type = Anchor;
},
{
horizontal = 1;
origin = "{0, 0}";
type = Anchor;
},
{
horizontal = 1;
origin = "{1, 1}";
type = Anchor;
},
{
horizontal = 1;
origin = "{0, 3}";
target = "{0, 0}";
other1 = "{0, 0, 1, 2}";
type = Interpolate;
options = 4;
},
{
horizontal = 1;
origin = "{0, 3}";
target = "{0, 0}";
other1 = "{0, 0, 2, 0}";
type = Interpolate;
options = 4;
}
);
layerId = "83692D61-586C-413E-9B5A-1AF652750951";
paths = (
{
closed = 1;
nodes = (
"160 720 LINE",
"80 720 LINE",
"80 0 LINE",
"160 0 LINE"
);
},
{
closed = 1;
nodes = (
"473 720 LINE",
"381 720 LINE",
"133 353 LINE",
"217 353 LINE"
);
},
{
closed = 1;
nodes = (
"389 0 LINE",
"489 0 LINE",
"227 381 LINE",
"135 381 LINE"
);
}
);
width = 520;
}
);
unicode = 004B;
},
{
glyphname = L;
lastChange = "2018-09-10 14:10:15 +0000";
layers = (
{
anchors = (
{
name = bottom;
position = "{240, 0}";
},
{
name = center;
position = "{240, 360}";
},
{
name = top;
position = "{120, 720}";
},
{
name = topright;
position = "{460, 720}";
}
);
hints = (
{
horizontal = 1;
origin = "{0, 5}";
target = "{0, 2}";
type = TTStem;
options = 4;
},
{
horizontal = 1;
origin = "{0, 3}";
type = Anchor;
}
);
layerId = "83692D61-586C-413E-9B5A-1AF652750951";
paths = (
{
closed = 1;
nodes = (
"440 0 LINE",
"440 72 LINE",
"160 72 LINE",
"160 720 LINE",
"80 720 LINE",
"80 0 LINE"
);
}
);
width = 480;
}
);
unicode = 004C;
},
{
glyphname = M;
lastChange = "2018-09-10 14:26:11 +0000";
layers = (
{
anchors = (
{
name = bottom;
position = "{360, 0}";
},
{
name = top;
position = "{360, 720}";
}
);
hints = (
{
horizontal = 1;
origin = "{2, 3}";
type = Anchor;
},
{
horizontal = 1;
origin = "{3, 3}";
type = Anchor;
},
{
horizontal = 1;
origin = "{0, 2}";
type = Anchor;
},
{
horizontal = 1;
origin = "{2, 1}";
type = Anchor;
},
{
horizontal = 1;
origin = "{1, 1}";
type = Anchor;
},
{
horizontal = 1;
origin = "{2, 3}";
target = "{0, 2}";
other1 = "{0, 3, 2, 1}";
type = Interpolate;
options = 4;
},
{
horizontal = 1;
origin = "{2, 3}";
target = "{0, 2}";
other1 = "{1, 1, 3, 2}";
type = Interpolate;
options = 4;
},
{
horizontal = 1;
origin = "{2, 3}";
target = "{0, 2}";
other1 = "{2, 3, 3, 0}";
type = Interpolate;
options = 4;
}
);
layerId = "83692D61-586C-413E-9B5A-1AF652750951";
paths = (
{
closed = 1;
nodes = (
"122 720 LINE",
"72 0 LINE",
"148 0 LINE",
"198 720 LINE"
);
},
{
closed = 1;
nodes = (
"522 720 LINE",
"572 0 LINE",
"648 0 LINE",
"598 720 LINE"
);
},
{
closed = 1;
nodes = (
"163 720 LINE",
"309 0 LINE",
"387 0 LINE",
"241 720 LINE"
);
},
{
closed = 1;
nodes = (
"339 0 LINE",
"411 0 LINE",
"557 720 LINE",
"485 720 LINE"
);
}
);
width = 720;
},
{
associatedMasterId = "83692D61-586C-413E-9B5A-1AF652750951";
layerId = "D36518EA-A451-49CD-9689-71A006F6C7DE";
name = "Jan 9 18, 17:31";
paths = (
{
closed = 1;
nodes = (
"120 0 LINE",
"120 648 LINE",
"280 648 LINE",
"280 0 LINE",
"360 0 LINE",
"360 648 LINE",
"520 648 LINE",
"520 0 LINE",
"600 0 LINE",
"600 720 LINE",
"40 720 LINE",
"40 0 LINE"
);
}
);
width = 640;
},
{
associatedMasterId = "83692D61-586C-413E-9B5A-1AF652750951";
guideLines = (
{
position = "{29, 578}";
}
);
layerId = "972F3E4A-8DF6-42D8-93D1-10164F196B38";
name = "Jan 9 18, 17:54";
paths = (
{
closed = 1;
nodes = (
"110 720 LINE",
"60 0 LINE",
"140 0 LINE",
"190 720 LINE"
);
},
{
closed = 1;
nodes = (
"510 720 LINE",
"560 0 LINE",
"640 0 LINE",
"590 720 LINE"
);
},
{
closed = 1;
nodes = (
"151 720 LINE",
"297 0 LINE",
"379 0 LINE",
"233 720 LINE"
);
},
{
closed = 1;
nodes = (
"327 0 LINE",
"403 0 LINE",
"549 720 LINE",
"473 720 LINE"
);
}
);
width = 700;
}
);
unicode = 004D;
},
{
glyphname = N;
lastChange = "2018-09-10 14:10:55 +0000";
layers = (
{
anchors = (
{
name = bottom;
position = "{280, 0}";
},
{
name = top;
position = "{280, 720}";
}
);
background = {
paths = (
{
closed = 1;
nodes = (
"160 640 LINE",
"160 720 LINE",
"80 720 LINE",
"80 0 LINE",
"160 0 LINE",
"160 480 LINE",
"240 480 LINE",
"240 640 LINE"
);
},
{
closed = 1;
nodes = (
"400 320 LINE",
"320 320 LINE",
"320 160 LINE",
"400 160 LINE",
"400 0 LINE",
"480 0 LINE",
"480 720 LINE",
"400 720 LINE"
);
},
{
closed = 1;
nodes = (
"240 480 LINE",
"240 320 LINE",
"320 320 LINE",
"320 480 LINE"
);
}
);
};
hints = (
{
horizontal = 1;
origin = "{0, 0}";
type = Anchor;
},
{
horizontal = 1;
origin = "{0, 2}";
type = Anchor;
},
{
horizontal = 1;
origin = "{0, 5}";
type = Anchor;
},
{
horizontal = 1;
origin = "{0, 7}";
type = Anchor;
},
{
horizontal = 1;
origin = "{0, 0}";
target = "{0, 7}";
other1 = "{0, 1}";
type = Interpolate;
options = 4;
},
{
horizontal = 1;
origin = "{0, 0}";
target = "{0, 7}";
other1 = "{0, 6}";
type = Interpolate;
options = 4;
}
);
layerId = "83692D61-586C-413E-9B5A-1AF652750951";
paths = (
{
closed = 1;
nodes = (
"154 0 LINE",
"154 562 LINE",
"414 0 LINE",
"480 0 LINE",
"480 720 LINE",
"406 720 LINE",
"406 208 LINE",
"169 720 LINE",
"80 720 LINE",
"80 0 LINE"
);
}
);
width = 560;
}
);
unicode = 004E;
},
{
glyphname = O;
lastChange = "2018-09-10 14:11:01 +0000";
layers = (
{
anchors = (
{
name = bottom;
position = "{280, 0}";
},
{
name = center;
position = "{280, 360}";
},
{
name = ogonek;
position = "{342, 0}";
},
{
name = top;
position = "{280, 720}";
},
{
name = topleft;
position = "{20, 720}";
},
{
name = topright;
position = "{540, 720}";
}
);
hints = (
{
horizontal = 1;
origin = "{0, 5}";
target = "{1, 5}";
type = TTStem;
options = 4;
},
{
horizontal = 1;
origin = "{0, 11}";
target = "{1, 11}";
type = TTStem;
options = 4;
}
);
layerId = "83692D61-586C-413E-9B5A-1AF652750951";
paths = (
{
closed = 1;
nodes = (
"415 -10 OFFCURVE",
"506 113 OFFCURVE",
"506 360 CURVE SMOOTH",
"506 599 OFFCURVE",
"441 730 OFFCURVE",
"280 730 CURVE SMOOTH",
"133 730 OFFCURVE",
"54 603 OFFCURVE",
"54 360 CURVE SMOOTH",
"54 104 OFFCURVE",
"133 -10 OFFCURVE",
"280 -10 CURVE SMOOTH"
);
},
{
closed = 1;
nodes = (
"191 60 OFFCURVE",
"138 137 OFFCURVE",
"138 360 CURVE SMOOTH",
"138 584 OFFCURVE",
"182 660 OFFCURVE",
"280 660 CURVE SMOOTH",
"379 660 OFFCURVE",
"422 579 OFFCURVE",
"422 360 CURVE SMOOTH",
"422 138 OFFCURVE",
"371 60 OFFCURVE",
"280 60 CURVE SMOOTH"
);
}
);
width = 560;
}
);
unicode = 004F;
},
{
glyphname = P;
lastChange = "2018-09-10 14:11:17 +0000";
layers = (
{
anchors = (
{
name = bottom;
position = "{280, 0}";
},
{
name = top;
position = "{280, 720}";
}
);
background = {
paths = (
{
closed = 1;
nodes = (
"160 0 LINE",
"160 251 LINE",
"187 249 OFFCURVE",
"215 248 OFFCURVE",
"242 248 CURVE SMOOTH",
"394 248 OFFCURVE",
"476 346 OFFCURVE",
"476 486 CURVE SMOOTH",
"476 629 OFFCURVE",
"400 720 OFFCURVE",
"242 720 CURVE SMOOTH",
"80 720 LINE",
"80 0 LINE"
);
},
{
closed = 1;
nodes = (
"160 648 LINE",
"244 648 LINE SMOOTH",
"351 648 OFFCURVE",
"392 584 OFFCURVE",
"392 482 CURVE SMOOTH",
"392 383 OFFCURVE",
"355 320 OFFCURVE",
"244 320 CURVE SMOOTH",
"216 320 OFFCURVE",
"188 321 OFFCURVE",
"160 323 CURVE"
);
}
);
};
hints = (
{
horizontal = 1;
origin = "{0, 0}";
type = Anchor;
},
{
horizontal = 1;
origin = "{0, 10}";
target = "{1, 1}";
type = TTStem;
options = 4;
},
{
horizontal = 1;
origin = "{0, 0}";
target = "{0, 10}";
other1 = "{0, 4}";
type = Interpolate;
},
{
horizontal = 1;
origin = "{0, 4}";
target = "{1, 7}";
type = TTStem;
options = 4;
}
);
layerId = "83692D61-586C-413E-9B5A-1AF652750951";
paths = (
{
closed = 1;
nodes = (
"160 0 LINE",
"160 252 LINE",
"185 249 OFFCURVE",
"210 248 OFFCURVE",
"231 248 CURVE SMOOTH",
"396 248 OFFCURVE",
"476 346 OFFCURVE",
"476 486 CURVE SMOOTH",
"476 629 OFFCURVE",
"400 720 OFFCURVE",
"242 720 CURVE SMOOTH",
"80 720 LINE",
"80 0 LINE"
);
},
{
closed = 1;
nodes = (
"160 648 LINE",
"244 648 LINE SMOOTH",
"351 648 OFFCURVE",
"392 584 OFFCURVE",
"392 482 CURVE SMOOTH",
"392 375 OFFCURVE",
"352 320 OFFCURVE",
"227 320 CURVE SMOOTH",
"210 320 OFFCURVE",
"188 321 OFFCURVE",
"160 323 CURVE"
);
}
);
width = 560;
},
{
associatedMasterId = "83692D61-586C-413E-9B5A-1AF652750951";
background = {
paths = (
{
closed = 1;
nodes = (
"160 320 LINE",
"160 640 LINE",
"400 640 LINE",
"400 720 LINE",
"80 720 LINE",
"80 0 LINE",
"160 0 LINE",
"160 240 LINE",
"400 240 LINE",
"400 320 LINE"
);
},
{
closed = 1;
nodes = (
"400 320 LINE",
"480 320 LINE",
"480 640 LINE",
"400 640 LINE"
);
}
);
};
layerId = "255C0E84-DEE1-4680-A231-36CF8B22D124";
name = "Feb 2 18, 11:28";
paths = (
{
closed = 1;
nodes = (
"160 0 LINE",
"160 248 LINE",
"242 248 LINE SMOOTH",
"394 248 OFFCURVE",
"476 346 OFFCURVE",
"476 486 CURVE SMOOTH",
"476 629 OFFCURVE",
"400 720 OFFCURVE",
"242 720 CURVE SMOOTH",
"80 720 LINE",
"80 0 LINE"
);
},
{
closed = 1;
nodes = (
"160 648 LINE",
"244 648 LINE SMOOTH",
"351 648 OFFCURVE",
"392 584 OFFCURVE",
"392 482 CURVE SMOOTH",
"392 383 OFFCURVE",
"355 320 OFFCURVE",
"244 320 CURVE SMOOTH",
"160 320 LINE"
);
}
);
width = 520;
}
);
unicode = 0050;
},
{
color = 7;
glyphname = Q;
lastChange = "2018-02-05 11:55:27 +0000";
layers = (
{
anchors = (
{
name = bottom;
position = "{280, 0}";
},
{
name = top;
position = "{280, 720}";
}
);
background = {
paths = (
{
closed = 1;
nodes = (
"400 640 LINE",
"400 720 LINE",
"160 720 LINE",
"160 640 LINE"
);
},
{
closed = 1;
nodes = (
"160 640 LINE",
"80 640 LINE",
"80 80 LINE",
"160 80 LINE"
);
},
{
closed = 1;
nodes = (
"400 80 LINE",
"480 80 LINE",
"480 640 LINE",
"400 640 LINE"
);
},
{
closed = 1;
nodes = (
"160 80 LINE",
"160 0 LINE",
"240 0 LINE",
"240 -80 LINE",
"320 -80 LINE",
"320 0 LINE",
"400 0 LINE",
"400 80 LINE"
);
},
{
closed = 1;
nodes = (
"480 -160 LINE",
"480 -80 LINE",
"320 -80 LINE",
"320 -160 LINE"
);
}
);
};
components = (
{
name = O;
}
);
layerId = "83692D61-586C-413E-9B5A-1AF652750951";
paths = (
{
closed = 1;
nodes = (
"431 -164 OFFCURVE",
"459 -159 OFFCURVE",
"484 -150 CURVE",
"474 -86 LINE",
"448 -90 OFFCURVE",
"429 -92 OFFCURVE",
"410 -92 CURVE SMOOTH",
"349 -92 OFFCURVE",
"318 -62 OFFCURVE",
"314 9 CURVE",
"238 3 LINE",
"253 -115 OFFCURVE",
"309 -164 OFFCURVE",
"394 -164 CURVE"
);
}
);
width = 560;
}
);
unicode = 0051;
},
{
glyphname = R;
lastChange = "2018-09-10 14:11:42 +0000";
layers = (
{
anchors = (
{
name = bottom;
position = "{280, 0}";
},
{
name = top;
position = "{280, 720}";
}
);
background = {
paths = (
{
closed = 1;
nodes = (
"160 400 LINE",
"160 640 LINE",
"400 640 LINE",
"400 720 LINE",
"80 720 LINE",
"80 0 LINE",
"160 0 LINE",
"160 320 LINE",
"240 320 LINE",
"240 240 LINE",
"320 240 LINE",
"320 320 LINE",
"400 320 LINE",
"400 400 LINE"
);
},
{
closed = 1;
nodes = (
"400 400 LINE",
"480 400 LINE",
"480 640 LINE",
"400 640 LINE"
);
},
{
closed = 1;
nodes = (
"400 240 LINE",
"320 240 LINE",
"320 160 LINE",
"400 160 LINE"
);
},
{
closed = 1;
nodes = (
"480 0 LINE",
"480 160 LINE",
"400 160 LINE",
"400 0 LINE"
);
}
);
};
hints = (
{
horizontal = 1;
origin = "{0, 0}";
type = Anchor;
},
{
horizontal = 1;
origin = "{1, 3}";
type = Anchor;
},
{
horizontal = 1;
origin = "{0, 10}";
target = "{2, 1}";
type = TTStem;
options = 4;
},
{
horizontal = 1;
origin = "{0, 0}";
target = "{0, 10}";
other1 = "{0, 2, 1, 3}";
type = Interpolate;
},
{
horizontal = 1;
origin = "{0, 2, 1, 3}";
target = "{2, 7}";
type = TTStem;
options = 4;
},
{
horizontal = 1;
origin = "{0, 2, 1, 3}";
target = "{0, 10}";
other1 = "{0, 7, 1, 1}";
type = Interpolate;
options = 4;
}
);
layerId = "83692D61-586C-413E-9B5A-1AF652750951";
paths = (
{
closed = 1;
nodes = (
"160 0 LINE",
"160 300 LINE",
"244 300 LINE",
"244 304 LINE",
"253 304 LINE SMOOTH",
"403 304 OFFCURVE",
"476 390 OFFCURVE",
"476 512 CURVE SMOOTH",
"476 639 OFFCURVE",
"400 720 OFFCURVE",
"242 720 CURVE SMOOTH",
"80 720 LINE",
"80 0 LINE"
);
},
{
closed = 1;
nodes = (
"497 0 LINE",
"302 331 LINE",
"215 331 LINE",
"398 0 LINE"
);
},
{
closed = 1;
nodes = (
"160 648 LINE",
"244 648 LINE SMOOTH",
"351 648 OFFCURVE",
"392 594 OFFCURVE",
"392 508 CURVE SMOOTH",
"392 418 OFFCURVE",
"350 372 OFFCURVE",
"253 372 CURVE SMOOTH",
"160 372 LINE"
);
}
);
width = 560;
}
);
unicode = 0052;
},
{
glyphname = S;
lastChange = "2018-09-10 14:11:56 +0000";
layers = (
{
anchors = (
{
name = bottom;
position = "{240, 0}";
},
{
name = top;
position = "{240, 720}";
}
);
background = {
paths = (
{
closed = 1;
nodes = (
"349 -9 OFFCURVE",
"417 80 OFFCURVE",
"417 172 CURVE SMOOTH",
"417 289 OFFCURVE",
"339 337 OFFCURVE",
"271 389 CURVE SMOOTH",
"173 463 OFFCURVE",
"146 499 OFFCURVE",
"146 556 CURVE SMOOTH",
"146 605 OFFCURVE",
"180 658 OFFCURVE",
"251 658 CURVE SMOOTH",
"294 658 OFFCURVE",
"339 646 OFFCURVE",
"388 623 CURVE",
"417 683 LINE",
"379 704 OFFCURVE",
"315 730 OFFCURVE",
"243 730 CURVE SMOOTH",
"126 730 OFFCURVE",
"64 641 OFFCURVE",
"64 550 CURVE SMOOTH",
"64 458 OFFCURVE",
"126 399 OFFCURVE",
"218 329 CURVE SMOOTH",
"294 271 OFFCURVE",
"335 234 OFFCURVE",
"335 170 CURVE SMOOTH",
"335 104 OFFCURVE",
"288 63 OFFCURVE",
"214 63 CURVE SMOOTH",
"166 63 OFFCURVE",
"111 83 OFFCURVE",
"72 104 CURVE",
"45 43 LINE",
"97 12 OFFCURVE",
"151 -9 OFFCURVE",
"219 -9 CURVE SMOOTH"
);
}
);
};
hints = (
{
horizontal = 1;
origin = "{0, 15}";
target = "{0, 8}";
type = TTStem;
options = 4;
},
{
horizontal = 1;
origin = "{0, 31}";
target = "{0, 24}";
type = TTStem;
options = 4;
},
{
horizontal = 1;
origin = "{0, 8}";
target = "{0, 31}";
other1 = "{0, 21, 0}";
type = Interpolate;
options = 4;
},
{
horizontal = 1;
origin = "{0, 15}";
target = "{0, 24}";
other1 = "{0, 5, 0}";
type = Interpolate;
options = 4;
}
);
layerId = "83692D61-586C-413E-9B5A-1AF652750951";
paths = (
{
closed = 1;
nodes = (
"349 -9 OFFCURVE",
"417 80 OFFCURVE",
"417 172 CURVE SMOOTH",
"417 380 OFFCURVE",
"146 396 OFFCURVE",
"146 556 CURVE SMOOTH",
"146 605 OFFCURVE",
"180 658 OFFCURVE",
"251 658 CURVE SMOOTH",
"294 658 OFFCURVE",
"339 646 OFFCURVE",
"388 623 CURVE",
"417 683 LINE",
"379 704 OFFCURVE",
"315 730 OFFCURVE",
"243 730 CURVE SMOOTH",
"126 730 OFFCURVE",
"64 641 OFFCURVE",
"64 550 CURVE SMOOTH",
"64 353 OFFCURVE",
"335 325 OFFCURVE",
"335 170 CURVE SMOOTH",
"335 104 OFFCURVE",
"288 63 OFFCURVE",
"214 63 CURVE SMOOTH",
"166 63 OFFCURVE",
"111 83 OFFCURVE",
"72 104 CURVE",
"45 43 LINE",
"97 12 OFFCURVE",
"151 -9 OFFCURVE",
"219 -9 CURVE SMOOTH"
);
}
);
width = 480;
}
);
unicode = 0053;
},
{
glyphname = T;
lastChange = "2018-09-10 14:12:09 +0000";
layers = (
{
anchors = (
{
name = bottom;
position = "{280, 0}";
},
{
name = center;
position = "{280, 360}";
},
{
name = top;
position = "{280, 720}";
}
);
hints = (
{
horizontal = 1;
origin = "{0, 0}";
type = Anchor;
},
{
horizontal = 1;
origin = "{0, 4}";
target = "{0, 6}";
type = TTStem;
options = 4;
}
);
layerId = "83692D61-586C-413E-9B5A-1AF652750951";
paths = (
{
closed = 1;
nodes = (
"320 0 LINE",
"320 648 LINE",
"496 648 LINE",
"496 720 LINE",
"64 720 LINE",
"64 648 LINE",
"240 648 LINE",
"240 0 LINE"
);
}
);
width = 560;
}
);
unicode = 0054;
},
{
glyphname = U;
lastChange = "2018-09-10 14:02:48 +0000";
layers = (
{
anchors = (
{
name = bottom;
position = "{280, 0}";
},
{
name = ogonek;
position = "{504, 10}";
},
{
name = top;
position = "{285, 720}";
},
{
name = topright;
position = "{540, 720}";
}
);
background = {
paths = (
{
closed = 1;
nodes = (
"160 720 LINE",
"80 720 LINE",
"80 80 LINE",
"160 80 LINE"
);
},
{
closed = 1;
nodes = (
"400 80 LINE",
"480 80 LINE",
"480 720 LINE",
"400 720 LINE"
);
},
{
closed = 1;
nodes = (
"160 80 LINE",
"160 0 LINE",
"400 0 LINE",
"400 80 LINE"
);
}
);
};
hints = (
{
horizontal = 1;
origin = "{0, 12}";
type = Anchor;
},
{
horizontal = 1;
origin = "{0, 4}";
type = Anchor;
},
{
horizontal = 1;
origin = "{0, 17}";
target = "{0, 8}";
type = TTStem;
options = 4;
}
);
layerId = "83692D61-586C-413E-9B5A-1AF652750951";
paths = (
{
closed = 1;
nodes = (
"387 -12 OFFCURVE",
"477 55 OFFCURVE",
"477 202 CURVE SMOOTH",
"477 720 LINE",
"403 720 LINE",
"403 202 LINE SMOOTH",
"403 110 OFFCURVE",
"360 62 OFFCURVE",
"282 62 CURVE SMOOTH",
"200 62 OFFCURVE",
"160 108 OFFCURVE",
"160 195 CURVE SMOOTH",
"160 720 LINE",
"80 720 LINE",
"80 193 LINE SMOOTH",
"80 60 OFFCURVE",
"152 -12 OFFCURVE",
"280 -12 CURVE SMOOTH"
);
}
);
width = 560;
}
);
unicode = 0055;
},
{
glyphname = V;
lastChange = "2018-09-10 14:12:20 +0000";
layers = (
{
anchors = (
{
name = bottom;
position = "{280, 0}";
},
{
name = top;
position = "{280, 720}";
}
);
hints = (
{
horizontal = 1;
origin = "{0, 1}";
type = Anchor;
},
{
horizontal = 1;
origin = "{0, 6}";
type = Anchor;
},
{
horizontal = 1;
origin = "{0, 3}";
type = Anchor;
},
{
horizontal = 1;
origin = "{0, 1}";
target = "{0, 3}";
other1 = "{0, 1, 0, 7}";
type = Interpolate;
options = 4;
}
);
layerId = "83692D61-586C-413E-9B5A-1AF652750951";
paths = (
{
closed = 1;
nodes = (
"293 70 LINE",
"130 720 LINE",
"41 720 LINE",
"236 0 LINE",
"319 0 LINE",
"518 720 LINE",
"438 720 LINE",
"265 70 LINE"
);
}
);
width = 560;
}
);
unicode = 0056;
},
{
glyphname = W;
lastChange = "2018-09-10 14:12:52 +0000";
layers = (
{
anchors = (
{
name = bottom;
position = "{360, 0}";
},
{
name = top;
position = "{360, 720}";
}
);
background = {
paths = (
{
closed = 1;
nodes = (
"120 720 LINE",
"40 720 LINE",
"40 80 LINE",
"120 80 LINE"
);
},
{
closed = 1;
nodes = (
"360 720 LINE",
"280 720 LINE",
"280 80 LINE",
"360 80 LINE"
);
},
{
closed = 1;
nodes = (
"520 80 LINE",
"600 80 LINE",
"600 720 LINE",
"520 720 LINE"
);
},
{
closed = 1;
nodes = (
"120 0 LINE",
"280 0 LINE",
"280 80 LINE",
"120 80 LINE"
);
},
{
closed = 1;
nodes = (
"360 0 LINE",
"520 0 LINE",
"520 80 LINE",
"360 80 LINE"
);
}
);
};
hints = (
{
horizontal = 1;
origin = "{1, 1}";
type = Anchor;
},
{
horizontal = 1;
origin = "{2, 2}";
type = Anchor;
},
{
horizontal = 1;
origin = "{3, 2}";
type = Anchor;
},
{
horizontal = 1;
origin = "{0, 3}";
type = Anchor;
},
{
horizontal = 1;
origin = "{2, 0}";
type = Anchor;
},
{
horizontal = 1;
origin = "{1, 1}";
target = "{2, 0}";
other1 = "{1, 1, 2, 3}";
type = Interpolate;
options = 4;
},
{
horizontal = 1;
origin = "{1, 1, 2, 3}";
target = "{0, 1, 3, 3}";
type = Align;
options = 4;
},
{
horizontal = 1;
origin = "{1, 1}";
target = "{2, 0}";
other1 = "{0, 3, 2, 1}";
type = Interpolate;
options = 4;
}
);
layerId = "83692D61-586C-413E-9B5A-1AF652750951";
paths = (
{
closed = 1;
nodes = (
"514 0 LINE",
"410 720 LINE",
"334 720 LINE",
"438 0 LINE"
);
},
{
closed = 1;
nodes = (
"240 0 LINE",
"144 720 LINE",
"68 720 LINE",
"164 0 LINE"
);
},
{
closed = 1;
nodes = (
"276 0 LINE",
"380 720 LINE",
"310 720 LINE",
"206 0 LINE"
);
},
{
closed = 1;
nodes = (
"556 0 LINE",
"652 720 LINE",
"576 720 LINE",
"480 0 LINE"
);
}
);
width = 720;
}
);
unicode = 0057;
},
{
glyphname = X;
lastChange = "2018-09-10 14:12:59 +0000";
layers = (
{
anchors = (
{
name = bottom;
position = "{260, 0}";
},
{
name = top;
position = "{260, 720}";
}
);
background = {
paths = (
{
closed = 1;
nodes = (
"160 720 LINE",
"80 720 LINE",
"80 480 LINE",
"160 480 LINE"
);
},
{
closed = 1;
nodes = (
"400 480 LINE",
"480 480 LINE",
"480 720 LINE",
"400 720 LINE"
);
},
{
closed = 1;
nodes = (
"160 400 LINE",
"240 400 LINE",
"240 480 LINE",
"160 480 LINE"
);
},
{
closed = 1;
nodes = (
"400 400 LINE",
"400 480 LINE",
"320 480 LINE",
"320 400 LINE"
);
},
{
closed = 1;
nodes = (
"320 320 LINE",
"320 400 LINE",
"240 400 LINE",
"240 320 LINE"
);
},
{
closed = 1;
nodes = (
"240 240 LINE",
"240 320 LINE",
"160 320 LINE",
"160 240 LINE"
);
},
{
closed = 1;
nodes = (
"400 320 LINE",
"320 320 LINE",
"320 240 LINE",
"400 240 LINE"
);
},
{
closed = 1;
nodes = (
"80 0 LINE",
"160 0 LINE",
"160 240 LINE",
"80 240 LINE"
);
},
{
closed = 1;
nodes = (
"400 0 LINE",
"480 0 LINE",
"480 240 LINE",
"400 240 LINE"
);
}
);
};
hints = (
{
horizontal = 1;
origin = "{0, 1}";
type = Anchor;
},
{
horizontal = 1;
origin = "{2, 2}";
type = Anchor;
},
{
horizontal = 1;
origin = "{0, 3}";
type = Anchor;
},
{
horizontal = 1;
origin = "{1, 0}";
type = Anchor;
}
);
layerId = "83692D61-586C-413E-9B5A-1AF652750951";
paths = (
{
closed = 1;
nodes = (
"482 0 LINE",
"140 720 LINE",
"51 720 LINE",
"393 0 LINE"
);
},
{
closed = 1;
nodes = (
"122 0 LINE",
"293 390 LINE",
"217 390 LINE",
"38 0 LINE"
);
},
{
closed = 1;
nodes = (
"304 360 LINE",
"478 720 LINE",
"394 720 LINE",
"228 360 LINE"
);
}
);
width = 520;
}
);
unicode = 0058;
},
{
glyphname = Y;
lastChange = "2018-09-10 14:13:05 +0000";
layers = (
{
anchors = (
{
name = bottom;
position = "{240, 0}";
},
{
name = top;
position = "{245, 720}";
},
{
name = topleft;
position = "{20, 720}";
}
);
background = {
paths = (
{
closed = 1;
nodes = (
"40 720 LINE",
"40 560 LINE",
"120 560 LINE",
"120 720 LINE"
);
},
{
closed = 1;
nodes = (
"360 560 LINE",
"440 560 LINE",
"440 720 LINE",
"360 720 LINE"
);
},
{
closed = 1;
nodes = (
"120 560 LINE",
"120 400 LINE",
"200 400 LINE",
"200 560 LINE"
);
},
{
closed = 1;
nodes = (
"280 400 LINE",
"360 400 LINE",
"360 560 LINE",
"280 560 LINE"
);
},
{
closed = 1;
nodes = (
"200 0 LINE",
"280 0 LINE",
"280 400 LINE",
"200 400 LINE"
);
}
);
};
hints = (
{
horizontal = 1;
origin = "{0, 8}";
type = Anchor;
},
{
horizontal = 1;
origin = "{0, 3}";
type = Anchor;
},
{
horizontal = 1;
origin = "{0, 5}";
type = Anchor;
}
);
layerId = "83692D61-586C-413E-9B5A-1AF652750951";
paths = (
{
closed = 1;
nodes = (
"280 0 LINE",
"280 320 LINE",
"472 720 LINE",
"390 720 LINE",
"245 405 LINE",
"104 720 LINE",
"14 720 LINE",
"200 320 LINE",
"200 0 LINE"
);
}
);
width = 480;
}
);
unicode = 0059;
},
{
glyphname = Z;
lastChange = "2018-09-10 14:13:18 +0000";
layers = (
{
anchors = (
{
name = bottom;
position = "{240, 0}";
},
{
name = top;
position = "{240, 720}";
}
);
hints = (
{
horizontal = 1;
origin = "{0, 4}";
target = "{0, 7}";
type = TTStem;
options = 4;
},
{
horizontal = 1;
origin = "{0, 7}";
target = "{0, 3}";
type = Align;
options = 4;
},
{
horizontal = 1;
origin = "{0, 9}";
target = "{0, 2}";
type = TTStem;
options = 4;
},
{
horizontal = 1;
origin = "{0, 2}";
target = "{0, 8}";
type = Align;
options = 4;
}
);
layerId = "83692D61-586C-413E-9B5A-1AF652750951";
paths = (
{
closed = 1;
nodes = (
"414 0 LINE",
"414 72 LINE",
"150 72 LINE",
"414 658 LINE",
"414 720 LINE",
"66 720 LINE",
"66 648 LINE",
"330 648 LINE",
"66 62 LINE",
"66 0 LINE"
);
}
);
width = 480;
}
);
unicode = 005A;
},
{
color = 8;
glyphname = K.mono;
lastChange = "2019-01-23 14:49:21 +0000";
layers = (
{
anchors = (
{
name = bottom;
position = "{280, 0}";
},
{
name = top;
position = "{280, 720}";
}
);
background = {
paths = (
{
closed = 1;
nodes = (
"180 720 LINE",
"100 720 LINE",
"100 0 LINE",
"180 0 LINE"
);
},
{
closed = 1;
nodes = (
"493 720 LINE",
"401 720 LINE",
"153 353 LINE",
"237 353 LINE"
);
},
{
closed = 1;
nodes = (
"409 0 LINE",
"509 0 LINE",
"247 381 LINE",
"155 381 LINE"
);
}
);
};
hints = (
{
horizontal = 1;
origin = "{0, 3}";
type = Anchor;
},
{
horizontal = 1;
origin = "{2, 0}";
type = Anchor;
},
{
horizontal = 1;
origin = "{0, 0}";
type = Anchor;
},
{
horizontal = 1;
origin = "{1, 1}";
type = Anchor;
},
{
horizontal = 1;
origin = "{0, 3}";
target = "{0, 0}";
other1 = "{0, 0, 1, 2}";
type = Interpolate;
options = 4;
},
{
horizontal = 1;
origin = "{0, 3}";
target = "{0, 0}";
other1 = "{0, 0, 2, 0}";
type = Interpolate;
options = 4;
}
);
layerId = "83692D61-586C-413E-9B5A-1AF652750951";
paths = (
{
closed = 1;
nodes = (
"160 720 LINE",
"80 720 LINE",
"80 0 LINE",
"160 0 LINE"
);
},
{
closed = 1;
nodes = (
"503 720 LINE",
"407 720 LINE",
"129 353 LINE",
"215 353 LINE"
);
},
{
closed = 1;
nodes = (
"415 0 LINE",
"519 0 LINE",
"225 381 LINE",
"131 381 LINE"
);
}
);
width = 560;
}
);
},
{
color = 8;
glyphname = L.mono;
lastChange = "2019-01-23 14:47:57 +0000";
layers = (
{
anchors = (
{
name = bottom;
position = "{260, 0}";
},
{
name = center;
position = "{240, 360}";
},
{
name = top;
position = "{120, 720}";
},
{
name = topright;
position = "{500, 720}";
}
);
hints = (
{
horizontal = 1;
origin = "{0, 5}";
target = "{0, 2}";
type = TTStem;
options = 4;
},
{
horizontal = 1;
origin = "{0, 3}";
type = Anchor;
}
);
layerId = "83692D61-586C-413E-9B5A-1AF652750951";
paths = (
{
closed = 1;
nodes = (
"480 0 LINE",
"480 72 LINE",
"160 72 LINE",
"160 720 LINE",
"80 720 LINE",
"80 0 LINE"
);
}
);
width = 560;
}
);
},
{
color = 3;
export = 0;
glyphname = E.prop;
lastChange = "2018-02-05 12:27:42 +0000";
layers = (
{
layerId = "83692D61-586C-413E-9B5A-1AF652750951";
paths = (
{
closed = 1;
nodes = (
"412 0 LINE",
"412 72 LINE",
"160 72 LINE",
"160 326 LINE",
"348 326 LINE",
"348 398 LINE",
"160 398 LINE",
"160 648 LINE",
"408 648 LINE",
"408 720 LINE",
"80 720 LINE",
"80 0 LINE"
);
}
);
width = 480;
}
);
},
{
color = 9;
export = 0;
glyphname = E.x;
lastChange = "2018-02-05 12:27:42 +0000";
layers = (
{
layerId = "83692D61-586C-413E-9B5A-1AF652750951";
paths = (
{
closed = 1;
nodes = (
"471 0 LINE",
"471 72 LINE",
"172 72 LINE",
"172 286 LINE",
"431 286 LINE",
"431 358 LINE",
"172 358 LINE",
"172 568 LINE",
"467 568 LINE",
"467 640 LINE",
"92 640 LINE",
"92 0 LINE"
);
}
);
width = 560;
},
{
associatedMasterId = "83692D61-586C-413E-9B5A-1AF652750951";
layerId = "E6CE487C-E1FC-470A-BAAF-A504782E6D1F";
name = "Jan 10 18, 17:22";
paths = (
{
closed = 1;
nodes = (
"471 0 LINE",
"471 72 LINE",
"172 72 LINE",
"172 326 LINE",
"431 326 LINE",
"431 398 LINE",
"172 398 LINE",
"172 648 LINE",
"467 648 LINE",
"467 720 LINE",
"92 720 LINE",
"92 0 LINE"
);
}
);
width = 560;
}
);
},
{
glyphname = a;
lastChange = "2018-09-07 16:45:55 +0000";
layers = (
{
anchors = (
{
name = bottom;
position = "{280, 0}";
},
{
name = ogonek;
position = "{466, 0}";
},
{
name = top;
position = "{280, 560}";
}
);
background = {
paths = (
{
closed = 1;
nodes = (
"291 -8 OFFCURVE",
"341 35 OFFCURVE",
"383 77 CURVE SMOOTH",
"400 94 LINE",
"401 0 LINE",
"480 0 LINE",
"480 375 LINE SMOOTH",
"480 498 OFFCURVE",
"423 574 OFFCURVE",
"297 574 CURVE SMOOTH",
"227 574 OFFCURVE",
"153 552 OFFCURVE",
"111 539 CURVE",
"129 475 LINE",
"177 489 OFFCURVE",
"233 502 OFFCURVE",
"281 502 CURVE SMOOTH",
"364 502 OFFCURVE",
"400 460 OFFCURVE",
"400 369 CURVE SMOOTH",
"400 322 LINE",
"366 322 LINE SMOOTH",
"153 322 OFFCURVE",
"76 238 OFFCURVE",
"76 138 CURVE SMOOTH",
"76 56 OFFCURVE",
"128 -8 OFFCURVE",
"220 -8 CURVE SMOOTH"
);
},
{
closed = 1;
nodes = (
"188 64 OFFCURVE",
"160 92 OFFCURVE",
"160 144 CURVE SMOOTH",
"160 198 OFFCURVE",
"207 258 OFFCURVE",
"371 258 CURVE SMOOTH",
"400 258 LINE",
"400 178 LINE",
"362 139 LINE SMOOTH",
"320 96 OFFCURVE",
"280 64 OFFCURVE",
"234 64 CURVE SMOOTH"
);
}
);
};
hints = (
{
horizontal = 1;
origin = "{0, 27}";
target = "{1, 11}";
type = Stem;
},
{
horizontal = 1;
origin = "{1, 5}";
target = "{0, 21}";
type = Stem;
},
{
horizontal = 1;
origin = "{0, 9}";
target = "{0, 16}";
type = Stem;
},
{
horizontal = 1;
origin = "{0, 4}";
target = up;
type = BottomGhost;
},
{
origin = "{0, 24}";
target = "{1, 2}";
type = Stem;
},
{
origin = "{0, 3}";
target = "{0, 5}";
type = Stem;
},
{
horizontal = 1;
origin = "{0, 9}";
target = "{0, 16}";
type = TTStem;
options = 4;
},
{
horizontal = 1;
origin = "{0, 27}";
target = "{1, 11}";
type = TTStem;
options = 4;
},
{
horizontal = 1;
origin = "{0, 5}";
type = Anchor;
},
{
horizontal = 1;
origin = "{0, 9}";
target = "{0, 27}";
other1 = "{1, 5}";
type = Interpolate;
},
{
horizontal = 1;
origin = "{1, 5}";
target = "{0, 21}";
type = TTStem;
options = 4;
}
);
layerId = "83692D61-586C-413E-9B5A-1AF652750951";
paths = (
{
closed = 1;
nodes = (
"277 -8 OFFCURVE",
"327 36 OFFCURVE",
"369 78 CURVE SMOOTH",
"386 95 LINE",
"387 0 LINE",
"466 0 LINE",
"466 375 LINE SMOOTH",
"466 498 OFFCURVE",
"409 574 OFFCURVE",
"283 574 CURVE SMOOTH",
"213 574 OFFCURVE",
"139 552 OFFCURVE",
"97 539 CURVE",
"115 475 LINE",
"163 489 OFFCURVE",
"219 502 OFFCURVE",
"267 502 CURVE SMOOTH",
"350 502 OFFCURVE",
"386 460 OFFCURVE",
"386 369 CURVE SMOOTH",
"386 322 LINE",
"352 322 LINE SMOOTH",
"147 322 OFFCURVE",
"62 238 OFFCURVE",
"62 136 CURVE SMOOTH",
"62 56 OFFCURVE",
"114 -8 OFFCURVE",
"204 -8 CURVE SMOOTH"
);
},
{
closed = 1;
nodes = (
"174 64 OFFCURVE",
"146 92 OFFCURVE",
"146 142 CURVE SMOOTH",
"146 198 OFFCURVE",
"193 258 OFFCURVE",
"357 258 CURVE SMOOTH",
"386 258 LINE",
"386 178 LINE",
"348 139 LINE SMOOTH",
"306 96 OFFCURVE",
"266 64 OFFCURVE",
"220 64 CURVE SMOOTH"
);
}
);
width = 560;
}
);
leftKerningGroup = a;
unicode = 0061;
},
{
glyphname = b;
lastChange = "2018-09-07 16:45:35 +0000";
layers = (
{
anchors = (
{
name = bottom;
position = "{280, 0}";
},
{
name = top;
position = "{280, 800}";
}
);
hints = (
{
horizontal = 1;
origin = "{0, 15}";
target = "{1, 13}";
type = Stem;
},
{
horizontal = 1;
origin = "{0, 5}";
target = "{1, 7}";
type = Stem;
},
{
horizontal = 1;
origin = "{0, 11}";
target = down;
type = TopGhost;
},
{
origin = "{0, 12}";
target = "{1, 2}";
type = Stem;
},
{
origin = "{1, 10}";
target = "{0, 2}";
type = Stem;
},
{
horizontal = 1;
origin = "{0, 5}";
target = "{1, 7}";
type = TTStem;
options = 4;
},
{
horizontal = 1;
origin = "{0, 15}";
target = "{1, 13}";
type = TTStem;
options = 4;
},
{
horizontal = 1;
origin = "{0, 10}";
type = Anchor;
}
);
layerId = "83692D61-586C-413E-9B5A-1AF652750951";
paths = (
{
closed = 1;
nodes = (
"394 -11 OFFCURVE",
"506 101 OFFCURVE",
"506 319 CURVE SMOOTH",
"506 479 OFFCURVE",
"446 568 OFFCURVE",
"338 568 CURVE SMOOTH",
"271 568 OFFCURVE",
"219 530 OFFCURVE",
"177 476 CURVE SMOOTH",
"160 454 LINE",
"160 800 LINE",
"80 800 LINE",
"80 18 LINE",
"131 2 OFFCURVE",
"194 -11 OFFCURVE",
"257 -11 CURVE SMOOTH"
);
},
{
closed = 1;
nodes = (
"214 57 OFFCURVE",
"182 61 OFFCURVE",
"160 66 CURVE",
"160 366 LINE",
"199 414 LINE SMOOTH",
"244 470 OFFCURVE",
"280 496 OFFCURVE",
"325 496 CURVE SMOOTH",
"386 496 OFFCURVE",
"422 447 OFFCURVE",
"422 313 CURVE SMOOTH",
"422 139 OFFCURVE",
"355 57 OFFCURVE",
"242 57 CURVE SMOOTH"
);
}
);
width = 560;
}
);
unicode = 0062;
},
{
color = 9;
glyphname = c;
lastChange = "2018-09-07 16:45:30 +0000";
layers = (
{
anchors = (
{
name = bottom;
position = "{280, 0}";
},
{
name = top;
position = "{280, 560}";
}
);
background = {
paths = (
{
closed = 1;
nodes = (
"460 273 LINE",
"484 446 OFFCURVE",
"417 568 OFFCURVE",
"277 568 CURVE SMOOTH",
"152 568 OFFCURVE",
"60 474 OFFCURVE",
"60 280 CURVE SMOOTH",
"60 72 OFFCURVE",
"160 -10 OFFCURVE",
"298 -10 CURVE SMOOTH",
"356 -10 OFFCURVE",
"407 6 OFFCURVE",
"453 25 CURVE",
"433 90 LINE",
"396 76 OFFCURVE",
"352 62 OFFCURVE",
"303 62 CURVE SMOOTH",
"194 62 OFFCURVE",
"142 134 OFFCURVE",
"142 280 CURVE SMOOTH",
"142 412 OFFCURVE",
"179 498 OFFCURVE",
"273 498 CURVE SMOOTH",
"352 498 OFFCURVE",
"386 433 OFFCURVE",
"384 343 CURVE"
);
}
);
};
hints = (
{
horizontal = 1;
origin = "{0, 3}";
target = "{0, 22}";
type = TTStem;
options = 4;
},
{
horizontal = 1;
origin = "{0, 9}";
target = "{0, 16}";
type = TTStem;
options = 4;
}
);
layerId = "83692D61-586C-413E-9B5A-1AF652750951";
paths = (
{
closed = 1;
nodes = (
"467 514 LINE",
"427 541 OFFCURVE",
"368 568 OFFCURVE",
"291 568 CURVE SMOOTH",
"156 568 OFFCURVE",
"72 474 OFFCURVE",
"72 280 CURVE SMOOTH",
"72 72 OFFCURVE",
"164 -10 OFFCURVE",
"300 -10 CURVE SMOOTH",
"363 -10 OFFCURVE",
"410 5 OFFCURVE",
"455 26 CURVE",
"433 89 LINE",
"397 75 OFFCURVE",
"361 62 OFFCURVE",
"308 62 CURVE SMOOTH",
"208 62 OFFCURVE",
"154 134 OFFCURVE",
"154 280 CURVE SMOOTH",
"154 412 OFFCURVE",
"188 496 OFFCURVE",
"290 496 CURVE SMOOTH",
"352 496 OFFCURVE",
"395 475 OFFCURVE",
"433 452 CURVE"
);
}
);
width = 560;
}
);
unicode = 0063;
},
{
glyphname = d;
lastChange = "2018-09-07 16:45:24 +0000";
layers = (
{
anchors = (
{
name = bottom;
position = "{280, 0}";
},
{
name = center;
position = "{280, 280}";
},
{
name = top;
position = "{280, 800}";
},
{
name = topright;
position = "{540, 560}";
}
);
hints = (
{
horizontal = 1;
origin = "{0, 4}";
type = Anchor;
},
{
horizontal = 1;
origin = "{0, 7}";
type = Anchor;
},
{
horizontal = 1;
origin = "{0, 17}";
target = "{1, 13}";
type = TTStem;
options = 4;
},
{
horizontal = 1;
origin = "{0, 11}";
target = "{1, 5}";
type = TTStem;
options = 4;
}
);
layerId = "83692D61-586C-413E-9B5A-1AF652750951";
paths = (
{
closed = 1;
nodes = (
"289 -8 OFFCURVE",
"341 30 OFFCURVE",
"383 84 CURVE SMOOTH",
"400 106 LINE",
"400 0 LINE",
"480 0 LINE",
"480 800 LINE",
"400 800 LINE",
"400 562 LINE",
"369 567 OFFCURVE",
"336 571 OFFCURVE",
"303 571 CURVE SMOOTH",
"166 571 OFFCURVE",
"54 459 OFFCURVE",
"54 241 CURVE SMOOTH",
"54 81 OFFCURVE",
"114 -8 OFFCURVE",
"222 -8 CURVE SMOOTH"
);
},
{
closed = 1;
nodes = (
"174 64 OFFCURVE",
"138 113 OFFCURVE",
"138 247 CURVE SMOOTH",
"138 421 OFFCURVE",
"205 503 OFFCURVE",
"318 503 CURVE SMOOTH",
"346 503 OFFCURVE",
"378 499 OFFCURVE",
"400 494 CURVE",
"400 194 LINE",
"361 146 LINE SMOOTH",
"316 90 OFFCURVE",
"280 64 OFFCURVE",
"235 64 CURVE SMOOTH"
);
}
);
width = 560;
}
);
unicode = 0064;
},
{
glyphname = e;
lastChange = "2018-09-07 16:45:11 +0000";
layers = (
{
anchors = (
{
name = bottom;
position = "{280, 0}";
},
{
name = ogonek;
position = "{453, 25}";
},
{
name = top;
position = "{275, 560}";
}
);
background = {
paths = (
{
closed = 1;
nodes = (
"411 -10 OFFCURVE",
"506 110 OFFCURVE",
"506 280 CURVE SMOOTH",
"506 444 OFFCURVE",
"437 570 OFFCURVE",
"280 570 CURVE SMOOTH",
"137 570 OFFCURVE",
"54 447 OFFCURVE",
"54 280 CURVE SMOOTH",
"54 103 OFFCURVE",
"137 -10 OFFCURVE",
"280 -10 CURVE SMOOTH"
);
},
{
closed = 1;
nodes = (
"192 60 OFFCURVE",
"136 137 OFFCURVE",
"136 280 CURVE SMOOTH",
"136 424 OFFCURVE",
"183 500 OFFCURVE",
"280 500 CURVE SMOOTH",
"378 500 OFFCURVE",
"424 420 OFFCURVE",
"424 280 CURVE SMOOTH",
"424 138 OFFCURVE",
"370 60 OFFCURVE",
"280 60 CURVE SMOOTH"
);
}
);
};
hints = (
{
horizontal = 1;
origin = "{0, 11}";
target = "{0, 2}";
type = TTStem;
options = 4;
},
{
horizontal = 1;
origin = "{0, 17}";
target = "{0, 24}";
type = TTStem;
options = 4;
},
{
horizontal = 1;
origin = "{0, 11}";
target = "{0, 17}";
other1 = "{0, 8}";
type = Interpolate;
},
{
horizontal = 1;
origin = "{0, 8}";
target = "{0, 5}";
type = TTStem;
options = 4;
}
);
layerId = "83692D61-586C-413E-9B5A-1AF652750951";
paths = (
{
closed = 1;
nodes = (
"142 412 OFFCURVE",
"179 498 OFFCURVE",
"273 498 CURVE SMOOTH",
"352 498 OFFCURVE",
"386 433 OFFCURVE",
"384 343 CURVE",
"124 343 LINE",
"124 273 LINE",
"460 273 LINE",
"484 446 OFFCURVE",
"417 568 OFFCURVE",
"277 568 CURVE SMOOTH",
"152 568 OFFCURVE",
"60 474 OFFCURVE",
"60 280 CURVE SMOOTH",
"60 72 OFFCURVE",
"160 -10 OFFCURVE",
"298 -10 CURVE SMOOTH",
"356 -10 OFFCURVE",
"407 6 OFFCURVE",
"453 25 CURVE",
"433 90 LINE",
"396 76 OFFCURVE",
"352 62 OFFCURVE",
"303 62 CURVE SMOOTH",
"194 62 OFFCURVE",
"142 134 OFFCURVE",
"142 280 CURVE SMOOTH"
);
}
);
width = 560;
}
);
unicode = 0065;
},
{
glyphname = f;
lastChange = "2018-09-07 16:44:53 +0000";
layers = (
{
anchors = (
{
name = bottom;
position = "{280, 0}";
},
{
name = top;
position = "{280, 800}";
}
);
background = {
paths = (
{
closed = 1;
nodes = (
"320 0 LINE",
"320 480 LINE",
"480 480 LINE",
"480 560 LINE",
"320 560 LINE",
"320 720 LINE",
"240 720 LINE",
"240 560 LINE",
"80 560 LINE",
"80 480 LINE",
"240 480 LINE",
"240 0 LINE"
);
},
{
closed = 1;
nodes = (
"480 720 LINE",
"480 800 LINE",
"320 800 LINE",
"320 720 LINE"
);
}
);
};
hints = (
{
horizontal = 1;
origin = "{0, 23}";
type = Anchor;
},
{
horizontal = 1;
origin = "{0, 15}";
target = "{0, 8}";
type = TTStem;
options = 4;
},
{
horizontal = 1;
origin = "{0, 19}";
type = Anchor;
},
{
horizontal = 1;
origin = "{0, 19}";
target = "{0, 4}";
type = Align;
options = 4;
},
{
horizontal = 1;
origin = "{0, 4}";
target = "{0, 1}";
type = TTStem;
options = 4;
},
{
horizontal = 1;
origin = "{0, 1}";
target = "{0, 22}";
type = Align;
options = 4;
}
);
layerId = "83692D61-586C-413E-9B5A-1AF652750951";
paths = (
{
closed = 1;
nodes = (
"314 0 LINE",
"314 408 LINE",
"490 408 LINE",
"490 480 LINE",
"314 480 LINE",
"314 650 LINE SMOOTH",
"314 705 OFFCURVE",
"339 740 OFFCURVE",
"398 740 CURVE SMOOTH",
"424 740 OFFCURVE",
"454 734 OFFCURVE",
"478 726 CURVE",
"495 794 LINE",
"465 804 OFFCURVE",
"429 812 OFFCURVE",
"390 812 CURVE SMOOTH",
"293 812 OFFCURVE",
"234 751 OFFCURVE",
"234 646 CURVE SMOOTH",
"234 480 LINE",
"74 480 LINE",
"74 408 LINE",
"234 408 LINE",
"234 0 LINE"
);
}
);
width = 560;
}
);
unicode = 0066;
},
{
glyphname = g;
lastChange = "2018-09-07 16:44:37 +0000";
layers = (
{
anchors = (
{
name = bottom;
position = "{280, -160}";
},
{
name = top;
position = "{280, 560}";
}
);
background = {
paths = (
{
closed = 1;
nodes = (
"186 311 OFFCURVE",
"156 356 OFFCURVE",
"156 401 CURVE SMOOTH",
"156 454 OFFCURVE",
"196 501 OFFCURVE",
"269 501 CURVE SMOOTH",
"339 501 OFFCURVE",
"377 458 OFFCURVE",
"377 406 CURVE SMOOTH",
"377 355 OFFCURVE",
"340 311 OFFCURVE",
"264 311 CURVE SMOOTH"
);
},
{
closed = 1;
nodes = (
"400 267 OFFCURVE",
"456 326 OFFCURVE",
"456 405 CURVE SMOOTH",
"456 484 OFFCURVE",
"397 571 OFFCURVE",
"269 571 CURVE SMOOTH",
"153 571 OFFCURVE",
"76 495 OFFCURVE",
"76 406 CURVE SMOOTH",
"76 312 OFFCURVE",
"153 256 OFFCURVE",
"243 256 CURVE",
"223 276 LINE",
"164 259 LINE SMOOTH",
"100 240 OFFCURVE",
"75 210 OFFCURVE",
"75 168 CURVE SMOOTH",
"75 111 OFFCURVE",
"122 83 OFFCURVE",
"185 83 CURVE",
"191 74 LINE",
"322 65 LINE SMOOTH",
"383 61 OFFCURVE",
"408 31 OFFCURVE",
"408 -4 CURVE SMOOTH",
"408 -57 OFFCURVE",
"360 -90 OFFCURVE",
"267 -90 CURVE SMOOTH",
"189 -90 OFFCURVE",
"137 -63 OFFCURVE",
"137 -4 CURVE SMOOTH",
"137 36 OFFCURVE",
"161 60 OFFCURVE",
"223 83 CURVE",
"204 122 LINE",
"114 94 OFFCURVE",
"56 53 OFFCURVE",
"56 -18 CURVE SMOOTH",
"56 -100 OFFCURVE",
"135 -160 OFFCURVE",
"264 -160 CURVE SMOOTH",
"420 -160 OFFCURVE",
"490 -87 OFFCURVE",
"490 -4 CURVE SMOOTH",
"490 77 OFFCURVE",
"433 138 OFFCURVE",
"325 145 CURVE SMOOTH",
"193 153 LINE SMOOTH",
"165 155 OFFCURVE",
"154 163 OFFCURVE",
"154 179 CURVE SMOOTH",
"154 196 OFFCURVE",
"165 202 OFFCURVE",
"189 209 CURVE SMOOTH",
"287 236 LINE SMOOTH"
);
},
{
closed = 1;
nodes = (
"396 508 LINE",
"420 557 OFFCURVE",
"440 560 OFFCURVE",
"468 560 CURVE SMOOTH",
"527 560 LINE",
"527 638 LINE",
"511 641 OFFCURVE",
"493 643 OFFCURVE",
"475 643 CURVE SMOOTH",
"428 643 OFFCURVE",
"389 618 OFFCURVE",
"362 523 CURVE"
);
}
);
};
hints = (
{
horizontal = 1;
origin = "{1, 5}";
target = "{0, 5}";
type = TTStem;
options = 4;
},
{
horizontal = 1;
origin = "{1, 40}";
target = "{1, 27}";
type = TTStem;
options = 4;
},
{
horizontal = 1;
origin = "{0, 5}";
target = "{1, 40}";
other1 = "{1, 21}";
type = Interpolate;
options = 4;
},
{
horizontal = 1;
origin = "{0, 5}";
target = "{1, 40}";
other1 = "{1, 54}";
type = Interpolate;
options = 4;
},
{
horizontal = 1;
origin = "{1, 21}";
target = "{1, 46}";
type = TTStem;
options = 4;
},
{
horizontal = 1;
origin = "{1, 54}";
target = "{0, 11}";
type = TTStem;
options = 4;
},
{
horizontal = 1;
origin = "{1, 5}";
target = "{1, 54}";
other1 = "{1, 11, 1, 13}";
type = Interpolate;
options = 4;
},
{
horizontal = 1;
origin = "{1, 21}";
target = "{0, 11}";
other1 = "{1, 19, 1, 37}";
type = Interpolate;
options = 4;
},
{
horizontal = 1;
origin = "{1, 5}";
target = "{1, 54}";
other1 = "{1, 5, 2, 3}";
type = Interpolate;
options = 4;
},
{
horizontal = 1;
origin = "{2, 3}";
target = "{2, 8}";
type = TTStem;
options = 4;
}
);
layerId = "83692D61-586C-413E-9B5A-1AF652750951";
paths = (
{
closed = 1;
nodes = (
"186 311 OFFCURVE",
"156 356 OFFCURVE",
"156 401 CURVE SMOOTH",
"156 454 OFFCURVE",
"196 501 OFFCURVE",
"269 501 CURVE SMOOTH",
"339 501 OFFCURVE",
"377 458 OFFCURVE",
"377 406 CURVE SMOOTH",
"377 355 OFFCURVE",
"340 311 OFFCURVE",
"264 311 CURVE SMOOTH"
);
},
{
closed = 1;
nodes = (
"404 265 OFFCURVE",
"456 326 OFFCURVE",
"456 407 CURVE SMOOTH",
"456 484 OFFCURVE",
"397 571 OFFCURVE",
"269 571 CURVE SMOOTH",
"153 571 OFFCURVE",
"76 495 OFFCURVE",
"76 406 CURVE SMOOTH",
"76 312 OFFCURVE",
"153 256 OFFCURVE",
"243 256 CURVE",
"223 276 LINE",
"164 259 LINE SMOOTH",
"100 240 OFFCURVE",
"75 210 OFFCURVE",
"75 168 CURVE SMOOTH",
"75 111 OFFCURVE",
"122 83 OFFCURVE",
"185 83 CURVE",
"191 74 LINE",
"322 65 LINE SMOOTH",
"383 61 OFFCURVE",
"408 31 OFFCURVE",
"408 -6 CURVE SMOOTH",
"408 -59 OFFCURVE",
"360 -90 OFFCURVE",
"267 -90 CURVE SMOOTH",
"189 -90 OFFCURVE",
"137 -65 OFFCURVE",
"137 -4 CURVE SMOOTH",
"137 36 OFFCURVE",
"161 60 OFFCURVE",
"223 83 CURVE",
"204 122 LINE",
"114 94 OFFCURVE",
"56 53 OFFCURVE",
"56 -18 CURVE SMOOTH",
"56 -100 OFFCURVE",
"135 -160 OFFCURVE",
"264 -160 CURVE SMOOTH",
"420 -160 OFFCURVE",
"490 -87 OFFCURVE",
"490 0 CURVE SMOOTH",
"490 77 OFFCURVE",
"433 138 OFFCURVE",
"325 145 CURVE SMOOTH",
"193 153 LINE SMOOTH",
"165 155 OFFCURVE",
"154 163 OFFCURVE",
"154 179 CURVE SMOOTH",
"154 196 OFFCURVE",
"164 206 OFFCURVE",
"200 215 CURVE SMOOTH",
"278 234 LINE SMOOTH"
);
},
{
closed = 1;
nodes = (
"396 508 LINE",
"420 557 OFFCURVE",
"440 560 OFFCURVE",
"468 560 CURVE SMOOTH",
"527 560 LINE",
"527 638 LINE",
"511 641 OFFCURVE",
"493 643 OFFCURVE",
"475 643 CURVE SMOOTH",
"428 643 OFFCURVE",
"389 618 OFFCURVE",
"362 523 CURVE"
);
}
);
width = 560;
}
);
unicode = 0067;
},
{
glyphname = h;
lastChange = "2018-09-07 16:43:48 +0000";
layers = (
{
anchors = (
{
name = bottom;
position = "{280, 0}";
},
{
name = center;
position = "{280, 400}";
},
{
name = top;
position = "{280, 800}";
}
);
hints = (
{
horizontal = 1;
origin = "{0, 17}";
target = "{0, 8}";
type = TTStem;
options = 4;
},
{
horizontal = 1;
origin = "{0, 0}";
type = Anchor;
},
{
horizontal = 1;
origin = "{0, 3}";
type = Anchor;
},
{
horizontal = 1;
origin = "{0, 12}";
type = Anchor;
}
);
layerId = "83692D61-586C-413E-9B5A-1AF652750951";
paths = (
{
closed = 1;
nodes = (
"160 800 LINE",
"80 800 LINE",
"80 0 LINE",
"160 0 LINE",
"160 371 LINE",
"200 414 LINE SMOOTH",
"250 468 OFFCURVE",
"286 494 OFFCURVE",
"331 494 CURVE SMOOTH",
"382 494 OFFCURVE",
"400 463 OFFCURVE",
"400 407 CURVE SMOOTH",
"400 0 LINE",
"480 0 LINE",
"480 410 LINE SMOOTH",
"480 515 OFFCURVE",
"431 568 OFFCURVE",
"342 568 CURVE SMOOTH",
"271 568 OFFCURVE",
"227 527 OFFCURVE",
"178 473 CURVE SMOOTH",
"160 453 LINE"
);
}
);
width = 560;
}
);
unicode = 0068;
},
{
color = 6;
glyphname = i;
lastChange = "2018-02-05 11:23:53 +0000";
layers = (
{
background = {
paths = (
{
closed = 1;
nodes = (
"284 70 LINE",
"284 566 LINE",
"248 566 LINE",
"74 556 LINE",
"74 496 LINE",
"204 496 LINE",
"204 70 LINE",
"64 60 LINE",
"64 0 LINE",
"424 0 LINE",
"424 60 LINE"
);
},
{
closed = 1;
nodes = (
"282 661 OFFCURVE",
"316 695 OFFCURVE",
"316 737 CURVE SMOOTH",
"316 781 OFFCURVE",
"284 814 OFFCURVE",
"240 814 CURVE SMOOTH",
"196 814 OFFCURVE",
"163 780 OFFCURVE",
"163 737 CURVE SMOOTH",
"163 692 OFFCURVE",
"195 661 OFFCURVE",
"238 661 CURVE SMOOTH"
);
}
);
};
components = (
{
name = idotless;
},
{
name = dotaccentcomb;
transform = "{1, 0, 0, 1, -1, 0}";
}
);
layerId = "83692D61-586C-413E-9B5A-1AF652750951";
width = 560;
}
);
unicode = 0069;
},
{
color = 9;
glyphname = idotless;
lastChange = "2018-09-07 16:43:42 +0000";
layers = (
{
anchors = (
{
name = bottom;
position = "{280, 0}";
},
{
name = ogonek;
position = "{484, 0}";
},
{
name = top;
position = "{279, 560}";
}
);
background = {
paths = (
{
closed = 1;
nodes = (
"324 70 LINE",
"324 566 LINE",
"288 566 LINE",
"114 556 LINE",
"114 496 LINE",
"244 496 LINE",
"244 70 LINE",
"104 60 LINE",
"104 0 LINE",
"464 0 LINE",
"464 60 LINE"
);
}
);
};
hints = (
{
horizontal = 1;
origin = "{0, 8}";
target = "{0, 6}";
type = TTStem;
options = 4;
},
{
horizontal = 1;
origin = "{0, 6}";
target = "{0, 0}";
type = Align;
options = 4;
},
{
horizontal = 1;
origin = "{0, 2}";
target = "{0, 5}";
type = TTStem;
options = 4;
}
);
layerId = "83692D61-586C-413E-9B5A-1AF652750951";
paths = (
{
closed = 1;
nodes = (
"324 70 LINE",
"324 566 LINE",
"288 566 LINE",
"94 556 LINE",
"94 496 LINE",
"244 496 LINE",
"244 70 LINE",
"84 60 LINE",
"84 0 LINE",
"484 0 LINE",
"484 60 LINE"
);
}
);
width = 560;
}
);
unicode = 0131;
},
{
glyphname = jdotless;
lastChange = "2018-09-07 16:43:34 +0000";
layers = (
{
anchors = (
{
name = top;
position = "{229, 560}";
}
);
background = {
paths = (
{
closed = 1;
nodes = (
"240 640 LINE",
"320 640 LINE",
"320 800 LINE",
"240 800 LINE"
);
},
{
closed = 1;
nodes = (
"80 560 LINE",
"80 480 LINE",
"240 480 LINE",
"240 -80 LINE",
"320 -80 LINE",
"320 560 LINE"
);
},
{
closed = 1;
nodes = (
"80 -160 LINE",
"240 -160 LINE",
"240 -80 LINE",
"80 -80 LINE"
);
}
);
};
hints = (
{
horizontal = 1;
origin = "{0, 4}";
target = "{0, 7}";
type = TTStem;
options = 4;
},
{
horizontal = 1;
origin = "{0, 18}";
target = "{0, 11}";
type = TTStem;
options = 4;
}
);
layerId = "83692D61-586C-413E-9B5A-1AF652750951";
paths = (
{
closed = 1;
nodes = (
"229 -148 OFFCURVE",
"274 -90 OFFCURVE",
"274 -2 CURVE SMOOTH",
"274 566 LINE",
"238 566 LINE",
"64 556 LINE",
"64 496 LINE",
"194 496 LINE",
"194 -4 LINE SMOOTH",
"194 -56 OFFCURVE",
"170 -78 OFFCURVE",
"123 -78 CURVE SMOOTH",
"100 -78 OFFCURVE",
"70 -74 OFFCURVE",
"37 -68 CURVE",
"29 -133 LINE",
"55 -140 OFFCURVE",
"97 -148 OFFCURVE",
"136 -148 CURVE SMOOTH"
);
}
);
width = 400;
}
);
unicode = 0237;
},
{
glyphname = k;
lastChange = "2018-09-10 14:10:01 +0000";
layers = (
{
anchors = (
{
name = bottom;
position = "{250, 0}";
},
{
name = top;
position = "{250, 800}";
}
);
background = {
paths = (
{
closed = 1;
nodes = (
"160 800 LINE",
"80 800 LINE",
"80 0 LINE",
"160 0 LINE",
"160 240 LINE",
"240 240 LINE",
"240 320 LINE",
"160 320 LINE"
);
},
{
closed = 1;
nodes = (
"400 560 LINE",
"400 480 LINE",
"480 480 LINE",
"480 560 LINE"
);
},
{
closed = 1;
nodes = (
"320 480 LINE",
"320 400 LINE",
"400 400 LINE",
"400 480 LINE"
);
},
{
closed = 1;
nodes = (
"240 400 LINE",
"240 320 LINE",
"320 320 LINE",
"320 400 LINE"
);
},
{
closed = 1;
nodes = (
"320 240 LINE",
"240 240 LINE",
"240 160 LINE",
"320 160 LINE"
);
},
{
closed = 1;
nodes = (
"400 160 LINE",
"320 160 LINE",
"320 80 LINE",
"400 80 LINE"
);
},
{
closed = 1;
nodes = (
"480 80 LINE",
"400 80 LINE",
"400 0 LINE",
"480 0 LINE"
);
}
);
};
hints = (
{
horizontal = 1;
origin = "{0, 0}";
type = Anchor;
},
{
horizontal = 1;
origin = "{0, 3}";
type = Anchor;
},
{
horizontal = 1;
origin = "{2, 0}";
type = Anchor;
},
{
horizontal = 1;
origin = "{1, 1}";
type = Anchor;
},
{
horizontal = 1;
origin = "{2, 0}";
target = "{1, 1}";
other1 = "{0, 0, 1, 2}";
type = Interpolate;
options = 4;
},
{
horizontal = 1;
origin = "{2, 0}";
target = "{1, 1}";
other1 = "{0, 0, 2, 0}";
type = Interpolate;
options = 4;
}
);
layerId = "83692D61-586C-413E-9B5A-1AF652750951";
paths = (
{
closed = 1;
nodes = (
"160 800 LINE",
"80 800 LINE",
"80 0 LINE",
"160 0 LINE"
);
},
{
closed = 1;
nodes = (
"458 560 LINE",
"363 560 LINE",
"113 265 LINE",
"193 265 LINE"
);
},
{
closed = 1;
nodes = (
"364 0 LINE",
"470 0 LINE",
"206 320 LINE",
"109 320 LINE"
);
}
);
width = 500;
}
);
unicode = 006B;
},
{
glyphname = l;
lastChange = "2018-09-07 16:43:04 +0000";
layers = (
{
anchors = (
{
name = bottom;
position = "{280, 0}";
},
{
name = center;
position = "{280, 360}";
},
{
name = top;
position = "{280, 800}";
},
{
name = topright;
position = "{540, 800}";
}
);
background = {
paths = (
{
closed = 1;
nodes = (
"320 310 LINE",
"320 806 LINE",
"284 806 LINE",
"90 796 LINE",
"90 736 LINE",
"240 736 LINE",
"240 310 LINE",
"80 300 LINE",
"80 240 LINE",
"480 240 LINE",
"480 300 LINE"
);
}
);
};
hints = (
{
horizontal = 1;
origin = "{0, 10}";
target = "{0, 8}";
type = TTStem;
options = 4;
},
{
horizontal = 1;
origin = "{0, 8}";
target = "{0, 2}";
type = Align;
options = 4;
},
{
horizontal = 1;
origin = "{0, 4}";
target = "{0, 7}";
type = TTStem;
options = 4;
}
);
layerId = "83692D61-586C-413E-9B5A-1AF652750951";
paths = (
{
closed = 1;
nodes = (
"480 0 LINE",
"480 60 LINE",
"320 70 LINE",
"320 806 LINE",
"284 806 LINE",
"90 796 LINE",
"90 736 LINE",
"240 736 LINE",
"240 70 LINE",
"80 60 LINE",
"80 0 LINE"
);
}
);
width = 560;
},
{
associatedMasterId = "83692D61-586C-413E-9B5A-1AF652750951";
layerId = "4947B03B-B76D-4BB1-8A50-C24FC5885830";
name = "Feb 2 18, 11:39";
paths = (
{
closed = 1;
nodes = (
"280 70 LINE",
"280 800 LINE",
"70 790 LINE",
"70 730 LINE",
"200 730 LINE",
"200 70 LINE",
"60 60 LINE",
"60 0 LINE",
"420 0 LINE",
"420 60 LINE"
);
}
);
width = 480;
}
);
unicode = 006C;
},
{
color = 9;
glyphname = m;
lastChange = "2018-09-07 16:42:57 +0000";
layers = (
{
anchors = (
{
name = bottom;
position = "{280, 0}";
},
{
name = top;
position = "{280, 560}";
}
);
background = {
paths = (
{
closed = 1;
nodes = (
"80 560 LINE",
"0 560 LINE",
"0 0 LINE",
"80 0 LINE",
"80 359 LINE",
"106 410 LINE SMOOTH",
"134 465 OFFCURVE",
"158 494 OFFCURVE",
"191 494 CURVE SMOOTH",
"222 494 OFFCURVE",
"240 472 OFFCURVE",
"240 414 CURVE SMOOTH",
"240 0 LINE",
"320 0 LINE",
"320 417 LINE SMOOTH",
"320 515 OFFCURVE",
"283 568 OFFCURVE",
"213 568 CURVE SMOOTH",
"160 568 OFFCURVE",
"124 532 OFFCURVE",
"91 475 CURVE SMOOTH",
"80 456 LINE"
);
},
{
closed = 1;
nodes = (
"346 410 LINE SMOOTH",
"374 465 OFFCURVE",
"398 494 OFFCURVE",
"431 494 CURVE SMOOTH",
"462 494 OFFCURVE",
"480 472 OFFCURVE",
"480 413 CURVE SMOOTH",
"480 0 LINE",
"560 0 LINE",
"560 416 LINE SMOOTH",
"560 515 OFFCURVE",
"523 568 OFFCURVE",
"453 568 CURVE SMOOTH",
"400 568 OFFCURVE",
"362 535 OFFCURVE",
"327 475 CURVE SMOOTH",
"276 386 LINE",
"320 359 LINE"
);
}
);
};
hints = (
{
horizontal = 1;
origin = "{1, 12}";
target = "{1, 3}";
type = TTStem;
options = 4;
},
{
horizontal = 1;
origin = "{0, 12}";
target = "{0, 3}";
type = TTStem;
options = 4;
},
{
horizontal = 1;
origin = "{1, 7}";
type = Anchor;
},
{
horizontal = 1;
origin = "{2, 3}";
type = Anchor;
},
{
horizontal = 1;
origin = "{0, 7}";
type = Anchor;
},
{
horizontal = 1;
origin = "{2, 0}";
type = Anchor;
}
);
layerId = "83692D61-586C-413E-9B5A-1AF652750951";
paths = (
{
closed = 1;
nodes = (
"345 416 LINE SMOOTH",
"371 469 OFFCURVE",
"388 496 OFFCURVE",
"414 496 CURVE SMOOTH",
"438 496 OFFCURVE",
"450 480 OFFCURVE",
"450 435 CURVE SMOOTH",
"450 0 LINE",
"530 0 LINE",
"530 433 LINE SMOOTH",
"530 528 OFFCURVE",
"497 568 OFFCURVE",
"436 568 CURVE SMOOTH",
"388 568 OFFCURVE",
"353 538 OFFCURVE",
"324 479 CURVE SMOOTH",
"277 385 LINE",
"320 365 LINE"
);
},
{
closed = 1;
nodes = (
"135 412 LINE SMOOTH",
"162 468 OFFCURVE",
"178 496 OFFCURVE",
"204 496 CURVE SMOOTH",
"228 496 OFFCURVE",
"240 480 OFFCURVE",
"240 435 CURVE SMOOTH",
"240 0 LINE",
"320 0 LINE",
"320 433 LINE SMOOTH",
"320 528 OFFCURVE",
"287 568 OFFCURVE",
"226 568 CURVE SMOOTH",
"178 568 OFFCURVE",
"144 536 OFFCURVE",
"114 475 CURVE SMOOTH",
"67 381 LINE",
"110 361 LINE"
);
},
{
closed = 1;
nodes = (
"110 560 LINE",
"30 560 LINE",
"30 0 LINE",
"110 0 LINE"
);
}
);
width = 560;
}
);
unicode = 006D;
},
{
glyphname = n;
lastChange = "2018-09-07 08:39:49 +0000";
layers = (
{
anchors = (
{
name = bottom;
position = "{280, 0}";
},
{
name = top;
position = "{280, 560}";
}
);
background = {
paths = (
{
closed = 1;
nodes = (
"80 560 LINE",
"80 0 LINE",
"160 0 LINE",
"160 400 LINE",
"240 400 LINE",
"240 480 LINE",
"160 480 LINE",
"160 560 LINE"
);
},
{
closed = 1;
nodes = (
"240 560 LINE",
"240 480 LINE",
"400 480 LINE",
"400 560 LINE"
);
},
{
closed = 1;
nodes = (
"400 0 LINE",
"480 0 LINE",
"480 480 LINE",
"400 480 LINE"
);
}
);
};
hints = (
{
horizontal = 1;
origin = "{0, 1}";
type = Anchor;
},
{
horizontal = 1;
origin = "{0, 3}";
type = Anchor;
},
{
horizontal = 1;
origin = "{0, 12}";
type = Anchor;
},
{
horizontal = 1;
origin = "{0, 17}";
target = "{0, 8}";
type = TTStem;
options = 4;
}
);
layerId = "83692D61-586C-413E-9B5A-1AF652750951";
paths = (
{
closed = 1;
nodes = (
"160 560 LINE",
"80 560 LINE",
"80 0 LINE",
"160 0 LINE",
"160 371 LINE",
"200 414 LINE SMOOTH",
"250 468 OFFCURVE",
"286 494 OFFCURVE",
"331 494 CURVE SMOOTH",
"382 494 OFFCURVE",
"400 463 OFFCURVE",
"400 407 CURVE SMOOTH",
"400 0 LINE",
"480 0 LINE",
"480 410 LINE SMOOTH",
"480 515 OFFCURVE",
"431 568 OFFCURVE",
"342 568 CURVE SMOOTH",
"271 568 OFFCURVE",
"227 527 OFFCURVE",
"178 473 CURVE SMOOTH",
"160 453 LINE"
);
}
);
width = 560;
}
);
unicode = 006E;
},
{
glyphname = o;
lastChange = "2018-09-07 08:40:05 +0000";
layers = (
{
anchors = (
{
name = bottom;
position = "{280, 0}";
},
{
name = center;
position = "{280, 280}";
},
{
name = ogonek;
position = "{343, 0}";
},
{
name = top;
position = "{280, 560}";
},
{
name = topright;
position = "{540, 560}";
}
);
background = {
paths = (
{
closed = 1;
nodes = (
"402 562 LINE",
"158 562 LINE",
"158 482 LINE",
"78 482 LINE",
"78 78 LINE",
"158 78 LINE",
"158 -2 LINE",
"402 -2 LINE",
"402 78 LINE",
"482 78 LINE",
"482 482 LINE",
"402 482 LINE"
);
},
{
closed = 1;
nodes = (
"398 82 LINE",
"162 82 LINE",
"162 478 LINE",
"398 478 LINE"
);
}
);
};
hints = (
{
horizontal = 1;
origin = "{0, 11}";
target = "{1, 11}";
type = Stem;
},
{
horizontal = 1;
origin = "{0, 5}";
target = "{1, 5}";
type = Stem;
},
{
origin = "{0, 8}";
target = "{1, 2}";
type = Stem;
},
{
origin = "{1, 8}";
target = "{0, 2}";
type = Stem;
},
{
horizontal = 1;
origin = "{0, 11}";
target = "{1, 11}";
type = TTStem;
options = 4;
},
{
horizontal = 1;
origin = "{0, 5}";
target = "{1, 5}";
type = TTStem;
options = 4;
}
);
layerId = "83692D61-586C-413E-9B5A-1AF652750951";
paths = (
{
closed = 1;
nodes = (
"411 -10 OFFCURVE",
"506 110 OFFCURVE",
"506 280 CURVE SMOOTH",
"506 444 OFFCURVE",
"437 570 OFFCURVE",
"280 570 CURVE SMOOTH",
"137 570 OFFCURVE",
"54 447 OFFCURVE",
"54 280 CURVE SMOOTH",
"54 103 OFFCURVE",
"137 -10 OFFCURVE",
"280 -10 CURVE SMOOTH"
);
},
{
closed = 1;
nodes = (
"192 60 OFFCURVE",
"136 137 OFFCURVE",
"136 280 CURVE SMOOTH",
"136 424 OFFCURVE",
"183 500 OFFCURVE",
"280 500 CURVE SMOOTH",
"378 500 OFFCURVE",
"424 420 OFFCURVE",
"424 280 CURVE SMOOTH",
"424 138 OFFCURVE",
"370 60 OFFCURVE",
"280 60 CURVE SMOOTH"
);
}
);
width = 560;
}
);
unicode = 006F;
},
{
glyphname = p;
lastChange = "2018-09-07 08:40:20 +0000";
layers = (
{
anchors = (
{
name = bottom;
position = "{280, 0}";
},
{
name = top;
position = "{280, 560}";
}
);
hints = (
{
horizontal = 1;
origin = "{0, 12}";
target = up;
type = BottomGhost;
},
{
horizontal = 1;
origin = "{0, 17}";
target = "{1, 13}";
type = Stem;
},
{
horizontal = 1;
origin = "{0, 5}";
target = "{1, 7}";
type = Stem;
},
{
horizontal = 1;
origin = "{0, 14}";
target = down;
type = TopGhost;
},
{
horizontal = 1;
origin = "{0, 11}";
target = down;
type = TopGhost;
},
{
origin = "{0, 12}";
target = "{0, 13}";
type = Stem;
},
{
origin = "{1, 10}";
target = "{0, 2}";
type = Stem;
},
{
horizontal = 1;
origin = "{0, 17}";
target = "{1, 13}";
type = TTStem;
options = 4;
},
{
horizontal = 1;
origin = "{0, 5}";
target = "{1, 7}";
type = TTStem;
options = 4;
},
{
horizontal = 1;
origin = "{0, 12}";
type = Anchor;
},
{
horizontal = 1;
origin = "{0, 11}";
type = Anchor;
}
);
layerId = "83692D61-586C-413E-9B5A-1AF652750951";
paths = (
{
closed = 1;
nodes = (
"394 -11 OFFCURVE",
"506 101 OFFCURVE",
"506 319 CURVE SMOOTH",
"506 479 OFFCURVE",
"446 568 OFFCURVE",
"338 568 CURVE SMOOTH",
"271 568 OFFCURVE",
"219 530 OFFCURVE",
"177 476 CURVE SMOOTH",
"160 454 LINE",
"160 560 LINE",
"80 560 LINE",
"80 -160 LINE",
"160 -160 LINE",
"160 -2 LINE",
"191 -7 OFFCURVE",
"224 -11 OFFCURVE",
"257 -11 CURVE SMOOTH"
);
},
{
closed = 1;
nodes = (
"214 57 OFFCURVE",
"182 61 OFFCURVE",
"160 66 CURVE",
"160 366 LINE",
"199 414 LINE SMOOTH",
"244 470 OFFCURVE",
"280 496 OFFCURVE",
"325 496 CURVE SMOOTH",
"386 496 OFFCURVE",
"422 447 OFFCURVE",
"422 313 CURVE SMOOTH",
"422 139 OFFCURVE",
"355 57 OFFCURVE",
"242 57 CURVE SMOOTH"
);
}
);
width = 560;
}
);
unicode = 0070;
},
{
glyphname = q;
lastChange = "2018-09-07 08:40:27 +0000";
layers = (
{
anchors = (
{
name = bottom;
position = "{280, 0}";
},
{
name = top;
position = "{280, 560}";
}
);
hints = (
{
horizontal = 1;
origin = "{0, 15}";
target = "{1, 13}";
type = TTStem;
options = 4;
},
{
horizontal = 1;
origin = "{0, 5}";
target = "{1, 7}";
type = TTStem;
options = 4;
},
{
horizontal = 1;
origin = "{0, 10}";
type = Anchor;
}
);
layerId = "83692D61-586C-413E-9B5A-1AF652750951";
paths = (
{
closed = 1;
nodes = (
"166 571 OFFCURVE",
"54 459 OFFCURVE",
"54 241 CURVE SMOOTH",
"54 81 OFFCURVE",
"114 -8 OFFCURVE",
"222 -8 CURVE SMOOTH",
"289 -8 OFFCURVE",
"341 30 OFFCURVE",
"383 84 CURVE SMOOTH",
"400 106 LINE",
"400 -160 LINE",
"480 -160 LINE",
"480 542 LINE",
"429 558 OFFCURVE",
"366 571 OFFCURVE",
"303 571 CURVE SMOOTH"
);
},
{
closed = 1;
nodes = (
"346 503 OFFCURVE",
"378 499 OFFCURVE",
"400 494 CURVE",
"400 194 LINE",
"361 146 LINE SMOOTH",
"316 90 OFFCURVE",
"280 64 OFFCURVE",
"235 64 CURVE SMOOTH",
"174 64 OFFCURVE",
"138 113 OFFCURVE",
"138 247 CURVE SMOOTH",
"138 421 OFFCURVE",
"205 503 OFFCURVE",
"318 503 CURVE SMOOTH"
);
}
);
width = 560;
}
);
unicode = 0071;
},
{
glyphname = r;
lastChange = "2018-09-07 08:40:35 +0000";
layers = (
{
anchors = (
{
name = bottom;
position = "{240, 0}";
},
{
name = top;
position = "{240, 560}";
}
);
background = {
paths = (
{
closed = 1;
nodes = (
"80 560 LINE",
"80 480 LINE",
"160 480 LINE",
"160 80 LINE",
"80 80 LINE",
"80 0 LINE",
"400 0 LINE",
"400 80 LINE",
"240 80 LINE",
"240 400 LINE",
"320 400 LINE",
"320 480 LINE",
"240 480 LINE",
"240 560 LINE"
);
},
{
closed = 1;
nodes = (
"320 560 LINE",
"320 480 LINE",
"480 480 LINE",
"480 560 LINE"
);
}
);
};
hints = (
{
horizontal = 1;
origin = "{0, 5}";
type = Anchor;
},
{
horizontal = 1;
origin = "{0, 7}";
type = Anchor;
},
{
horizontal = 1;
origin = "{0, 20}";
target = "{0, 13}";
type = TTStem;
options = 4;
}
);
layerId = "83692D61-586C-413E-9B5A-1AF652750951";
paths = (
{
closed = 1;
nodes = (
"267 568 OFFCURVE",
"218 518 OFFCURVE",
"176 458 CURVE SMOOTH",
"160 435 LINE",
"160 560 LINE",
"80 560 LINE",
"80 490 LINE",
"80 0 LINE",
"160 0 LINE",
"160 347 LINE",
"195 393 LINE SMOOTH",
"240 452 OFFCURVE",
"279 490 OFFCURVE",
"341 490 CURVE SMOOTH",
"362 490 OFFCURVE",
"384 486 OFFCURVE",
"398 483 CURVE",
"411 562 LINE",
"395 565 OFFCURVE",
"373 568 OFFCURVE",
"349 568 CURVE SMOOTH"
);
}
);
width = 480;
},
{
associatedMasterId = "83692D61-586C-413E-9B5A-1AF652750951";
background = {
paths = (
{
closed = 1;
nodes = (
"80 560 LINE",
"80 480 LINE",
"160 480 LINE",
"160 80 LINE",
"80 80 LINE",
"80 0 LINE",
"400 0 LINE",
"400 80 LINE",
"240 80 LINE",
"240 400 LINE",
"320 400 LINE",
"320 480 LINE",
"240 480 LINE",
"240 560 LINE"
);
},
{
closed = 1;
nodes = (
"320 560 LINE",
"320 480 LINE",
"480 480 LINE",
"480 560 LINE"
);
}
);
};
layerId = "C7F7534A-3A19-41A2-981C-0EF916393203";
name = "Jan 4 18, 12:10";
paths = (
{
closed = 1;
nodes = (
"292 568 OFFCURVE",
"243 518 OFFCURVE",
"201 458 CURVE SMOOTH",
"185 435 LINE",
"185 560 LINE",
"45 560 LINE",
"45 500 LINE",
"105 490 LINE",
"105 70 LINE",
"45 60 LINE",
"45 0 LINE",
"325 0 LINE",
"325 60 LINE",
"185 70 LINE",
"185 347 LINE",
"220 393 LINE SMOOTH",
"265 452 OFFCURVE",
"304 490 OFFCURVE",
"366 490 CURVE SMOOTH",
"387 490 OFFCURVE",
"409 486 OFFCURVE",
"423 483 CURVE",
"436 562 LINE",
"420 565 OFFCURVE",
"398 568 OFFCURVE",
"374 568 CURVE SMOOTH"
);
}
);
width = 480;
}
);
rightKerningGroup = r;
unicode = 0072;
},
{
glyphname = s;
lastChange = "2018-09-07 08:41:31 +0000";
layers = (
{
anchors = (
{
name = bottom;
position = "{240, 0}";
},
{
name = top;
position = "{240, 560}";
}
);
background = {
paths = (
{
closed = 1;
nodes = (
"160 560 LINE",
"160 480 LINE",
"400 480 LINE",
"400 560 LINE"
);
},
{
closed = 1;
nodes = (
"80 320 LINE",
"160 320 LINE",
"160 480 LINE",
"80 480 LINE"
);
},
{
closed = 1;
nodes = (
"480 480 LINE",
"400 480 LINE",
"400 400 LINE",
"480 400 LINE"
);
},
{
closed = 1;
nodes = (
"400 240 LINE",
"400 320 LINE",
"160 320 LINE",
"160 240 LINE"
);
},
{
closed = 1;
nodes = (
"480 80 LINE",
"480 240 LINE",
"400 240 LINE",
"400 80 LINE"
);
},
{
closed = 1;
nodes = (
"80 80 LINE",
"160 80 LINE",
"160 160 LINE",
"80 160 LINE"
);
},
{
closed = 1;
nodes = (
"160 80 LINE",
"160 0 LINE",
"400 0 LINE",
"400 80 LINE"
);
}
);
};
hints = (
{
horizontal = 1;
origin = "{0, 31}";
target = "{0, 24}";
type = Stem;
},
{
horizontal = 1;
origin = "{0, 15}";
target = "{0, 8}";
type = Stem;
},
{
origin = "{0, 28}";
target = "{0, 5}";
type = Stem;
},
{
origin = "{0, 21}";
target = "{0, 2}";
type = Stem;
},
{
horizontal = 1;
origin = "{0, 31}";
target = "{0, 24}";
type = TTStem;
options = 4;
},
{
horizontal = 1;
origin = "{0, 15}";
target = "{0, 8}";
type = TTStem;
options = 4;
},
{
horizontal = 1;
origin = "{0, 31}";
target = "{0, 8}";
other1 = "{0, 21, 0}";
type = Interpolate;
options = 4;
},
{
horizontal = 1;
origin = "{0, 24}";
target = "{0, 15}";
other1 = "{0, 5, 0}";
type = Interpolate;
options = 4;
}
);
layerId = "83692D61-586C-413E-9B5A-1AF652750951";
paths = (
{
closed = 1;
nodes = (
"348 -9 OFFCURVE",
"411 67 OFFCURVE",
"411 153 CURVE SMOOTH",
"411 360 OFFCURVE",
"142 299 OFFCURVE",
"142 427 CURVE SMOOTH",
"142 470 OFFCURVE",
"173 502 OFFCURVE",
"250 502 CURVE SMOOTH",
"296 502 OFFCURVE",
"342 489 OFFCURVE",
"376 477 CURVE",
"395 542 LINE",
"359 557 OFFCURVE",
"303 574 OFFCURVE",
"246 574 CURVE SMOOTH",
"123 574 OFFCURVE",
"60 501 OFFCURVE",
"60 421 CURVE SMOOTH",
"60 227 OFFCURVE",
"329 288 OFFCURVE",
"329 148 CURVE SMOOTH",
"329 94 OFFCURVE",
"292 63 OFFCURVE",
"222 63 CURVE SMOOTH",
"169 63 OFFCURVE",
"118 76 OFFCURVE",
"78 90 CURVE",
"60 28 LINE",
"105 7 OFFCURVE",
"165 -9 OFFCURVE",
"227 -9 CURVE SMOOTH"
);
}
);
width = 480;
}
);
unicode = 0073;
},
{
glyphname = germandbls;
lastChange = "2018-09-07 08:42:10 +0000";
layers = (
{
anchors = (
{
name = bottom;
position = "{280, 0}";
},
{
name = top;
position = "{280, 800}";
}
);
background = {
paths = (
{
closed = 1;
nodes = (
"160 720 LINE",
"160 640 LINE",
"320 640 LINE",
"320 720 LINE"
);
},
{
closed = 1;
nodes = (
"80 0 LINE",
"160 0 LINE",
"160 640 LINE",
"80 640 LINE"
);
},
{
closed = 1;
nodes = (
"400 640 LINE",
"320 640 LINE",
"320 400 LINE",
"400 400 LINE"
);
},
{
closed = 1;
nodes = (
"240 320 LINE",
"320 320 LINE",
"320 400 LINE",
"240 400 LINE"
);
},
{
closed = 1;
nodes = (
"320 240 LINE",
"400 240 LINE",
"400 320 LINE",
"320 320 LINE"
);
},
{
closed = 1;
nodes = (
"400 80 LINE",
"480 80 LINE",
"480 240 LINE",
"400 240 LINE"
);
},
{
closed = 1;
nodes = (
"240 0 LINE",
"400 0 LINE",
"400 80 LINE",
"240 80 LINE"
);
}
);
};
hints = (
{
horizontal = 1;
origin = "{0, 39}";
target = up;
type = BottomGhost;
},
{
horizontal = 1;
origin = "{0, 35}";
target = "{0, 4}";
type = Stem;
},
{
horizontal = 1;
origin = "{0, 23}";
target = "{0, 16}";
type = Stem;
},
{
origin = "{0, 39}";
target = "{0, 0}";
type = Stem;
},
{
origin = "{0, 10}";
target = "{0, 29}";
type = Stem;
},
{
origin = "{0, 7}";
target = "{0, 32}";
type = Stem;
},
{
origin = "{0, 13}";
target = "{0, 26}";
type = Stem;
},
{
horizontal = 1;
origin = "{0, 35}";
target = "{0, 4}";
type = TTStem;
options = 4;
},
{
horizontal = 1;
origin = "{0, 23}";
target = "{0, 16}";
type = TTStem;
options = 4;
},
{
horizontal = 1;
origin = "{0, 39}";
type = Anchor;
},
{
horizontal = 1;
origin = "{0, 4}";
target = "{0, 23}";
other1 = "{0, 13, 0}";
type = Interpolate;
options = 4;
},
{
horizontal = 1;
origin = "{0, 4}";
target = "{0, 23}";
other1 = "{0, 32, 0}";
type = Interpolate;
options = 4;
},
{
horizontal = 1;
origin = "{0, 35}";
target = "{0, 16}";
other1 = "{0, 10, 0}";
type = Interpolate;
options = 4;
},
{
horizontal = 1;
origin = "{0, 35}";
target = "{0, 16}";
other1 = "{0, 29, 0}";
type = Interpolate;
options = 4;
}
);
layerId = "83692D61-586C-413E-9B5A-1AF652750951";
paths = (
{
closed = 1;
nodes = (
"160 0 LINE",
"160 613 LINE SMOOTH",
"160 696 OFFCURVE",
"194 740 OFFCURVE",
"260 740 CURVE SMOOTH",
"331 740 OFFCURVE",
"361 695 OFFCURVE",
"361 624 CURVE SMOOTH",
"361 493 OFFCURVE",
"240 487 OFFCURVE",
"240 381 CURVE SMOOTH",
"240 226 OFFCURVE",
"435 266 OFFCURVE",
"435 151 CURVE SMOOTH",
"435 104 OFFCURVE",
"400 58 OFFCURVE",
"327 58 CURVE SMOOTH",
"298 58 OFFCURVE",
"276 64 OFFCURVE",
"249 74 CURVE",
"228 18 LINE",
"263 2 OFFCURVE",
"296 -10 OFFCURVE",
"340 -10 CURVE SMOOTH",
"453 -10 OFFCURVE",
"518 70 OFFCURVE",
"518 148 CURVE SMOOTH",
"518 311 OFFCURVE",
"320 299 OFFCURVE",
"320 381 CURVE SMOOTH",
"320 445 OFFCURVE",
"443 502 OFFCURVE",
"443 633 CURVE SMOOTH",
"443 745 OFFCURVE",
"372 810 OFFCURVE",
"263 810 CURVE SMOOTH",
"154 810 OFFCURVE",
"80 740 OFFCURVE",
"80 612 CURVE SMOOTH",
"80 0 LINE"
);
}
);
width = 560;
},
{
anchors = (
{
name = bottom;
position = "{280, 0}";
},
{
name = top;
position = "{280, 560}";
}
);
associatedMasterId = "83692D61-586C-413E-9B5A-1AF652750951";
background = {
paths = (
{
closed = 1;
nodes = (
"160 720 LINE",
"160 640 LINE",
"320 640 LINE",
"320 720 LINE"
);
},
{
closed = 1;
nodes = (
"80 0 LINE",
"160 0 LINE",
"160 640 LINE",
"80 640 LINE"
);
},
{
closed = 1;
nodes = (
"400 640 LINE",
"320 640 LINE",
"320 400 LINE",
"400 400 LINE"
);
},
{
closed = 1;
nodes = (
"240 320 LINE",
"320 320 LINE",
"320 400 LINE",
"240 400 LINE"
);
},
{
closed = 1;
nodes = (
"320 240 LINE",
"400 240 LINE",
"400 320 LINE",
"320 320 LINE"
);
},
{
closed = 1;
nodes = (
"400 80 LINE",
"480 80 LINE",
"480 240 LINE",
"400 240 LINE"
);
},
{
closed = 1;
nodes = (
"240 0 LINE",
"400 0 LINE",
"400 80 LINE",
"240 80 LINE"
);
}
);
};
layerId = "3B98D931-674E-46C7-8A98-BD5F9F9D3E00";
name = "May 23 18, 14:38";
paths = (
{
closed = 1;
nodes = (
"160 0 LINE",
"160 613 LINE SMOOTH",
"160 696 OFFCURVE",
"194 740 OFFCURVE",
"260 740 CURVE SMOOTH",
"332 740 OFFCURVE",
"361 684 OFFCURVE",
"361 621 CURVE SMOOTH",
"361 524 OFFCURVE",
"301 469 OFFCURVE",
"240 402 CURVE",
"348 345 OFFCURVE",
"435 292 OFFCURVE",
"435 179 CURVE SMOOTH",
"435 104 OFFCURVE",
"400 58 OFFCURVE",
"327 58 CURVE SMOOTH",
"298 58 OFFCURVE",
"276 64 OFFCURVE",
"249 74 CURVE",
"228 18 LINE",
"263 2 OFFCURVE",
"296 -10 OFFCURVE",
"340 -10 CURVE SMOOTH",
"453 -10 OFFCURVE",
"518 70 OFFCURVE",
"518 174 CURVE SMOOTH",
"518 311 OFFCURVE",
"413 383 OFFCURVE",
"339 418 CURVE",
"384 458 OFFCURVE",
"443 523 OFFCURVE",
"443 625 CURVE SMOOTH",
"443 736 OFFCURVE",
"365 810 OFFCURVE",
"263 810 CURVE SMOOTH",
"154 810 OFFCURVE",
"80 740 OFFCURVE",
"80 612 CURVE SMOOTH",
"80 0 LINE"
);
}
);
width = 560;
}
);
unicode = 00DF;
},
{
glyphname = t;
lastChange = "2018-09-07 08:42:37 +0000";
layers = (
{
anchors = (
{
name = bottom;
position = "{240, 0}";
},
{
name = center;
position = "{240, 280}";
},
{
name = top;
position = "{180, 712}";
},
{
name = topright;
position = "{460, 560}";
}
);
hints = (
{
horizontal = 1;
origin = "{0, 16}";
type = Anchor;
},
{
horizontal = 1;
origin = "{0, 23}";
target = "{0, 6}";
type = TTStem;
options = 4;
},
{
horizontal = 1;
origin = "{0, 13}";
target = "{0, 10}";
type = TTStem;
options = 4;
},
{
horizontal = 1;
origin = "{0, 16}";
target = "{0, 13}";
type = Align;
options = 4;
},
{
horizontal = 1;
origin = "{0, 10}";
target = "{0, 19}";
type = Align;
options = 4;
}
);
layerId = "83692D61-586C-413E-9B5A-1AF652750951";
paths = (
{
closed = 1;
nodes = (
"339 -10 OFFCURVE",
"382 1 OFFCURVE",
"417 12 CURVE",
"404 78 LINE",
"373 70 OFFCURVE",
"340 64 OFFCURVE",
"311 64 CURVE SMOOTH",
"245 64 OFFCURVE",
"220 91 OFFCURVE",
"220 153 CURVE SMOOTH",
"220 488 LINE",
"412 488 LINE",
"412 560 LINE",
"220 560 LINE",
"220 712 LINE",
"140 712 LINE",
"140 560 LINE",
"20 560 LINE",
"20 488 LINE",
"140 488 LINE",
"140 148 LINE SMOOTH",
"140 39 OFFCURVE",
"195 -10 OFFCURVE",
"292 -10 CURVE SMOOTH"
);
}
);
width = 480;
}
);
unicode = 0074;
},
{
glyphname = u;
lastChange = "2018-09-07 08:42:45 +0000";
layers = (
{
anchors = (
{
name = bottom;
position = "{280, 0}";
},
{
name = ogonek;
position = "{480, 0}";
},
{
name = top;
position = "{280, 560}";
},
{
name = topright;
position = "{480, 560}";
}
);
hints = (
{
horizontal = 1;
origin = "{0, 16}";
type = Anchor;
},
{
horizontal = 1;
origin = "{0, 7}";
type = Anchor;
},
{
horizontal = 1;
origin = "{0, 4}";
type = Anchor;
},
{
horizontal = 1;
origin = "{0, 21}";
target = "{0, 12}";
type = TTStem;
options = 4;
}
);
layerId = "83692D61-586C-413E-9B5A-1AF652750951";
paths = (
{
closed = 1;
nodes = (
"289 -8 OFFCURVE",
"333 33 OFFCURVE",
"382 87 CURVE SMOOTH",
"400 107 LINE",
"400 0 LINE",
"480 0 LINE",
"480 560 LINE",
"400 560 LINE",
"400 189 LINE",
"360 146 LINE SMOOTH",
"310 92 OFFCURVE",
"274 66 OFFCURVE",
"229 66 CURVE SMOOTH",
"178 66 OFFCURVE",
"160 97 OFFCURVE",
"160 153 CURVE SMOOTH",
"160 560 LINE",
"80 560 LINE",
"80 150 LINE SMOOTH",
"80 45 OFFCURVE",
"129 -8 OFFCURVE",
"218 -8 CURVE SMOOTH"
);
}
);
width = 560;
}
);
unicode = 0075;
},
{
glyphname = v;
lastChange = "2018-09-07 08:42:54 +0000";
layers = (
{
anchors = (
{
name = bottom;
position = "{280, 0}";
},
{
name = top;
position = "{280, 560}";
}
);
hints = (
{
horizontal = 1;
origin = "{0, 1}";
type = Anchor;
},
{
horizontal = 1;
origin = "{0, 6}";
type = Anchor;
},
{
horizontal = 1;
origin = "{0, 3}";
type = Anchor;
},
{
horizontal = 1;
origin = "{0, 3}";
target = "{0, 1, 0, 7}";
type = Align;
options = 4;
}
);
layerId = "83692D61-586C-413E-9B5A-1AF652750951";
paths = (
{
closed = 1;
nodes = (
"286 70 LINE",
"130 560 LINE",
"43 560 LINE",
"230 0 LINE",
"313 0 LINE",
"504 560 LINE",
"426 560 LINE",
"260 70 LINE"
);
}
);
width = 560;
}
);
unicode = 0076;
},
{
glyphname = w;
lastChange = "2018-09-07 08:43:12 +0000";
layers = (
{
anchors = (
{
name = bottom;
position = "{360, 0}";
},
{
name = top;
position = "{360, 560}";
}
);
background = {
paths = (
{
closed = 1;
nodes = (
"640 80 LINE",
"640 560 LINE",
"560 560 LINE",
"560 80 LINE"
);
},
{
closed = 1;
nodes = (
"320 0 LINE",
"320 80 LINE",
"160 80 LINE",
"160 0 LINE"
);
},
{
closed = 1;
nodes = (
"160 80 LINE",
"160 560 LINE",
"80 560 LINE",
"80 80 LINE"
);
},
{
closed = 1;
nodes = (
"560 0 LINE",
"560 80 LINE",
"400 80 LINE",
"400 0 LINE"
);
},
{
closed = 1;
nodes = (
"400 80 LINE",
"400 560 LINE",
"320 560 LINE",
"320 80 LINE"
);
}
);
};
hints = (
{
horizontal = 1;
origin = "{0, 1}";
type = Anchor;
},
{
horizontal = 1;
origin = "{0, 6}";
type = Anchor;
},
{
horizontal = 1;
origin = "{1, 6}";
type = Anchor;
},
{
horizontal = 1;
origin = "{0, 3}";
type = Anchor;
},
{
horizontal = 1;
origin = "{1, 3}";
type = Anchor;
},
{
horizontal = 1;
origin = "{0, 3}";
target = "{0, 1, 0, 7}";
type = Align;
options = 4;
},
{
horizontal = 1;
origin = "{0, 1, 0, 7}";
target = "{1, 1, 1, 7}";
type = Align;
options = 4;
},
{
horizontal = 1;
origin = "{0, 6}";
target = "{0, 5, 1, 3}";
type = Align;
options = 4;
}
);
layerId = "83692D61-586C-413E-9B5A-1AF652750951";
paths = (
{
closed = 1;
nodes = (
"230 70 LINE",
"104 560 LINE",
"17 560 LINE",
"174 0 LINE",
"257 0 LINE",
"396 560 LINE",
"320 560 LINE",
"204 70 LINE"
);
},
{
closed = 1;
nodes = (
"523 70 LINE",
"407 560 LINE",
"328 560 LINE",
"467 0 LINE",
"550 0 LINE",
"703 560 LINE",
"625 560 LINE",
"497 70 LINE"
);
}
);
width = 720;
}
);
unicode = 0077;
},
{
glyphname = x;
lastChange = "2018-09-07 16:39:44 +0000";
layers = (
{
anchors = (
{
name = bottom;
position = "{280, 0}";
},
{
name = top;
position = "{280, 560}";
}
);
background = {
paths = (
{
closed = 1;
nodes = (
"80 560 LINE",
"80 400 LINE",
"160 400 LINE",
"160 560 LINE"
);
},
{
closed = 1;
nodes = (
"400 400 LINE",
"480 400 LINE",
"480 560 LINE",
"400 560 LINE"
);
},
{
closed = 1;
nodes = (
"160 320 LINE",
"240 320 LINE",
"240 400 LINE",
"160 400 LINE"
);
},
{
closed = 1;
nodes = (
"400 320 LINE",
"400 400 LINE",
"320 400 LINE",
"320 320 LINE"
);
},
{
closed = 1;
nodes = (
"320 240 LINE",
"320 320 LINE",
"240 320 LINE",
"240 240 LINE"
);
},
{
closed = 1;
nodes = (
"240 160 LINE",
"240 240 LINE",
"160 240 LINE",
"160 160 LINE"
);
},
{
closed = 1;
nodes = (
"400 240 LINE",
"320 240 LINE",
"320 160 LINE",
"400 160 LINE"
);
},
{
closed = 1;
nodes = (
"80 0 LINE",
"160 0 LINE",
"160 160 LINE",
"80 160 LINE"
);
},
{
closed = 1;
nodes = (
"480 0 LINE",
"480 160 LINE",
"400 160 LINE",
"400 0 LINE"
);
}
);
};
hints = (
{
horizontal = 1;
origin = "{0, 2}";
type = Anchor;
},
{
horizontal = 1;
origin = "{2, 2}";
type = Anchor;
},
{
horizontal = 1;
origin = "{0, 0}";
type = Anchor;
},
{
horizontal = 1;
origin = "{1, 2}";
type = Anchor;
},
{
horizontal = 1;
origin = "{0, 2}";
target = "{1, 2}";
other1 = "{0, 0, 1, 3}";
type = Interpolate;
options = 4;
},
{
horizontal = 1;
origin = "{0, 2}";
target = "{1, 2}";
other1 = "{0, 2, 2, 3}";
type = Interpolate;
options = 4;
}
);
layerId = "83692D61-586C-413E-9B5A-1AF652750951";
paths = (
{
closed = 1;
nodes = (
"409 0 LINE",
"501 0 LINE",
"156 560 LINE",
"64 560 LINE"
);
},
{
closed = 1;
nodes = (
"247 308 LINE",
"61 0 LINE",
"145 0 LINE",
"292 251 LINE"
);
},
{
closed = 1;
nodes = (
"309 251 LINE",
"497 560 LINE",
"413 560 LINE",
"264 308 LINE"
);
}
);
width = 560;
}
);
unicode = 0078;
},
{
glyphname = y;
lastChange = "2018-09-07 16:39:59 +0000";
layers = (
{
anchors = (
{
name = bottom;
position = "{280, 0}";
},
{
name = top;
position = "{280, 560}";
}
);
background = {
paths = (
{
closed = 1;
nodes = (
"160 560 LINE",
"80 560 LINE",
"80 320 LINE",
"160 320 LINE"
);
},
{
closed = 1;
nodes = (
"400 320 LINE",
"480 320 LINE",
"480 560 LINE",
"400 560 LINE"
);
},
{
closed = 1;
nodes = (
"240 320 LINE",
"160 320 LINE",
"160 80 LINE",
"240 80 LINE"
);
},
{
closed = 1;
nodes = (
"320 80 LINE",
"400 80 LINE",
"400 320 LINE",
"320 320 LINE"
);
},
{
closed = 1;
nodes = (
"240 -80 LINE",
"320 -80 LINE",
"320 80 LINE",
"240 80 LINE"
);
},
{
closed = 1;
nodes = (
"80 -160 LINE",
"240 -160 LINE",
"240 -80 LINE",
"80 -80 LINE"
);
}
);
};
hints = (
{
horizontal = 1;
origin = "{0, 1}";
type = Anchor;
},
{
horizontal = 1;
origin = "{0, 18}";
type = Anchor;
},
{
horizontal = 1;
origin = "{0, 13}";
target = "{0, 8}";
type = TTStem;
options = 4;
}
);
layerId = "83692D61-586C-413E-9B5A-1AF652750951";
paths = (
{
closed = 1;
nodes = (
"284 70 LINE",
"130 560 LINE",
"43 560 LINE",
"236 -18 LINE",
"236 0 LINE",
"225 -33 LINE SMOOTH",
"210 -77 OFFCURVE",
"190 -90 OFFCURVE",
"146 -90 CURVE SMOOTH",
"80 -90 LINE",
"80 -150 LINE",
"102 -155 OFFCURVE",
"132 -160 OFFCURVE",
"158 -160 CURVE SMOOTH",
"227 -160 OFFCURVE",
"265 -141 OFFCURVE",
"295 -53 CURVE SMOOTH",
"504 560 LINE",
"426 560 LINE",
"260 70 LINE"
);
}
);
width = 560;
}
);
unicode = 0079;
},
{
glyphname = z;
lastChange = "2018-09-07 16:40:16 +0000";
layers = (
{
anchors = (
{
name = bottom;
position = "{240, 0}";
},
{
name = top;
position = "{240, 560}";
}
);
background = {
components = (
{
name = s;
}
);
};
hints = (
{
horizontal = 1;
origin = "{0, 11}";
target = "{0, 2, 0, 4}";
type = TTStem;
options = 4;
},
{
horizontal = 1;
origin = "{0, 5}";
target = "{0, 8, 0, 10}";
type = TTStem;
options = 4;
},
{
horizontal = 1;
origin = "{0, 8, 0, 10}";
target = "{0, 4}";
type = Align;
options = 4;
},
{
horizontal = 1;
origin = "{0, 2, 0, 4}";
target = "{0, 10}";
type = Align;
options = 4;
}
);
layerId = "83692D61-586C-413E-9B5A-1AF652750951";
paths = (
{
closed = 1;
nodes = (
"418 0 LINE",
"418 72 LINE",
"125 72 LINE",
"150 60 LINE",
"414 500 LINE",
"414 560 LINE",
"68 560 LINE",
"68 488 LINE",
"376 488 LINE",
"326 500 LINE",
"62 60 LINE",
"62 0 LINE"
);
}
);
width = 480;
}
);
unicode = 007A;
},
{
color = 8;
glyphname = k.mono;
lastChange = "2019-01-23 14:50:46 +0000";
layers = (
{
anchors = (
{
name = bottom;
position = "{280, 0}";
},
{
name = top;
position = "{280, 800}";
}
);
background = {
paths = (
{
closed = 1;
nodes = (
"190 800 LINE",
"110 800 LINE",
"110 0 LINE",
"190 0 LINE"
);
},
{
closed = 1;
nodes = (
"488 560 LINE",
"393 560 LINE",
"143 265 LINE",
"223 265 LINE"
);
},
{
closed = 1;
nodes = (
"394 0 LINE",
"500 0 LINE",
"236 320 LINE",
"139 320 LINE"
);
}
);
};
hints = (
{
horizontal = 1;
origin = "{0, 0}";
type = Anchor;
},
{
horizontal = 1;
origin = "{0, 3}";
type = Anchor;
},
{
horizontal = 1;
origin = "{2, 0}";
type = Anchor;
},
{
horizontal = 1;
origin = "{1, 1}";
type = Anchor;
},
{
horizontal = 1;
origin = "{2, 0}";
target = "{1, 1}";
other1 = "{0, 0, 1, 2}";
type = Interpolate;
options = 4;
},
{
horizontal = 1;
origin = "{2, 0}";
target = "{1, 1}";
other1 = "{0, 0, 2, 0}";
type = Interpolate;
options = 4;
}
);
layerId = "83692D61-586C-413E-9B5A-1AF652750951";
paths = (
{
closed = 1;
nodes = (
"160 800 LINE",
"80 800 LINE",
"80 0 LINE",
"160 0 LINE"
);
},
{
closed = 1;
nodes = (
"488 560 LINE",
"393 560 LINE",
"106 265 LINE",
"196 265 LINE"
);
},
{
closed = 1;
nodes = (
"394 0 LINE",
"500 0 LINE",
"208 320 LINE",
"109 320 LINE"
);
}
);
width = 560;
}
);
},
{
color = 8;
glyphname = r.mono;
lastChange = "2019-01-23 14:45:44 +0000";
layers = (
{
anchors = (
{
name = bottom;
position = "{320, 0}";
},
{
name = top;
position = "{320, 560}";
}
);
background = {
paths = (
{
closed = 1;
nodes = (
"240 70 LINE",
"240 566 LINE",
"204 566 LINE",
"10 556 LINE",
"10 496 LINE",
"160 496 LINE",
"160 70 LINE",
"0 60 LINE",
"0 0 LINE",
"400 0 LINE",
"400 60 LINE"
);
}
);
};
hints = (
{
horizontal = 1;
origin = "{0, 9}";
type = Anchor;
},
{
horizontal = 1;
origin = "{0, 22}";
target = "{0, 15}";
type = TTStem;
options = 4;
},
{
horizontal = 1;
origin = "{0, 5}";
target = "{0, 8}";
type = TTStem;
options = 4;
}
);
layerId = "83692D61-586C-413E-9B5A-1AF652750951";
paths = (
{
closed = 1;
nodes = (
"347 568 OFFCURVE",
"298 518 OFFCURVE",
"256 458 CURVE SMOOTH",
"240 435 LINE",
"240 566 LINE",
"204 566 LINE",
"50 556 LINE",
"50 496 LINE",
"160 496 LINE",
"160 0 LINE",
"240 0 LINE",
"240 347 LINE",
"275 393 LINE SMOOTH",
"320 452 OFFCURVE",
"359 490 OFFCURVE",
"421 490 CURVE SMOOTH",
"442 490 OFFCURVE",
"464 486 OFFCURVE",
"478 483 CURVE",
"491 562 LINE",
"475 565 OFFCURVE",
"453 568 OFFCURVE",
"429 568 CURVE SMOOTH"
);
}
);
width = 560;
}
);
},
{
color = 3;
export = 0;
glyphname = c.prop;
lastChange = "2018-09-07 16:40:24 +0000";
layers = (
{
anchors = (
{
name = bottom;
position = "{250, 0}";
},
{
name = top;
position = "{250, 560}";
}
);
background = {
paths = (
{
closed = 1;
nodes = (
"460 273 LINE",
"484 446 OFFCURVE",
"417 568 OFFCURVE",
"277 568 CURVE SMOOTH",
"152 568 OFFCURVE",
"60 474 OFFCURVE",
"60 280 CURVE SMOOTH",
"60 72 OFFCURVE",
"160 -10 OFFCURVE",
"298 -10 CURVE SMOOTH",
"356 -10 OFFCURVE",
"407 6 OFFCURVE",
"453 25 CURVE",
"433 90 LINE",
"396 76 OFFCURVE",
"352 62 OFFCURVE",
"303 62 CURVE SMOOTH",
"194 62 OFFCURVE",
"142 134 OFFCURVE",
"142 280 CURVE SMOOTH",
"142 412 OFFCURVE",
"179 498 OFFCURVE",
"273 498 CURVE SMOOTH",
"352 498 OFFCURVE",
"386 433 OFFCURVE",
"384 343 CURVE"
);
}
);
};
hints = (
{
horizontal = 1;
origin = "{0, 3}";
target = "{0, 22}";
type = TTStem;
options = 4;
},
{
horizontal = 1;
origin = "{0, 9}";
target = "{0, 16}";
type = TTStem;
options = 4;
}
);
layerId = "83692D61-586C-413E-9B5A-1AF652750951";
paths = (
{
closed = 1;
nodes = (
"439 514 LINE",
"399 541 OFFCURVE",
"340 568 OFFCURVE",
"271 568 CURVE SMOOTH",
"145 568 OFFCURVE",
"60 474 OFFCURVE",
"60 280 CURVE SMOOTH",
"60 72 OFFCURVE",
"152 -10 OFFCURVE",
"280 -10 CURVE SMOOTH",
"335 -10 OFFCURVE",
"382 5 OFFCURVE",
"427 26 CURVE",
"405 89 LINE",
"369 75 OFFCURVE",
"333 62 OFFCURVE",
"288 62 CURVE SMOOTH",
"188 62 OFFCURVE",
"142 134 OFFCURVE",
"142 280 CURVE SMOOTH",
"142 412 OFFCURVE",
"174 496 OFFCURVE",
"270 496 CURVE SMOOTH",
"324 496 OFFCURVE",
"367 475 OFFCURVE",
"405 452 CURVE"
);
}
);
width = 500;
}
);
},
{
color = 3;
export = 0;
glyphname = idotless.prop;
lastChange = "2018-09-07 16:40:35 +0000";
layers = (
{
anchors = (
{
name = bottom;
position = "{240, 0}";
},
{
name = ogonek;
position = "{424, 0}";
},
{
name = top;
position = "{239, 560}";
}
);
background = {
paths = (
{
closed = 1;
nodes = (
"282 661 OFFCURVE",
"316 695 OFFCURVE",
"316 737 CURVE SMOOTH",
"316 781 OFFCURVE",
"284 814 OFFCURVE",
"240 814 CURVE SMOOTH",
"196 814 OFFCURVE",
"163 780 OFFCURVE",
"163 737 CURVE SMOOTH",
"163 692 OFFCURVE",
"195 661 OFFCURVE",
"238 661 CURVE SMOOTH"
);
}
);
};
hints = (
{
horizontal = 1;
origin = "{0, 8}";
target = "{0, 6}";
type = TTStem;
options = 4;
},
{
horizontal = 1;
origin = "{0, 6}";
target = "{0, 0}";
type = Align;
options = 4;
},
{
horizontal = 1;
origin = "{0, 2}";
target = "{0, 5}";
type = TTStem;
options = 4;
}
);
layerId = "83692D61-586C-413E-9B5A-1AF652750951";
paths = (
{
closed = 1;
nodes = (
"284 70 LINE",
"284 566 LINE",
"248 566 LINE",
"74 556 LINE",
"74 496 LINE",
"204 496 LINE",
"204 70 LINE",
"64 60 LINE",
"64 0 LINE",
"424 0 LINE",
"424 60 LINE"
);
}
);
width = 480;
}
);
},
{
color = 3;
export = 0;
glyphname = m.prop;
lastChange = "2018-09-07 16:40:47 +0000";
layers = (
{
anchors = (
{
name = bottom;
position = "{360, 0}";
},
{
name = top;
position = "{360, 560}";
}
);
background = {
paths = (
{
closed = 1;
nodes = (
"427 414 LINE SMOOTH",
"460 468 OFFCURVE",
"484 494 OFFCURVE",
"514 494 CURVE SMOOTH",
"548 494 OFFCURVE",
"560 463 OFFCURVE",
"560 407 CURVE SMOOTH",
"560 0 LINE",
"640 0 LINE",
"640 410 LINE SMOOTH",
"640 515 OFFCURVE",
"602 568 OFFCURVE",
"533 568 CURVE SMOOTH",
"478 568 OFFCURVE",
"444 527 OFFCURVE",
"405 473 CURVE SMOOTH",
"362 414 LINE",
"400 371 LINE"
);
}
);
};
hints = (
{
horizontal = 1;
origin = "{0, 17}";
target = "{0, 8}";
type = TTStem;
options = 4;
},
{
horizontal = 1;
origin = "{1, 12}";
target = "{1, 3}";
type = TTStem;
options = 4;
},
{
horizontal = 1;
origin = "{0, 3}";
type = Anchor;
},
{
horizontal = 1;
origin = "{0, 12}";
type = Anchor;
},
{
horizontal = 1;
origin = "{1, 7}";
type = Anchor;
},
{
horizontal = 1;
origin = "{0, 0}";
type = Anchor;
}
);
layerId = "83692D61-586C-413E-9B5A-1AF652750951";
paths = (
{
closed = 1;
nodes = (
"160 560 LINE",
"80 560 LINE",
"80 0 LINE",
"160 0 LINE",
"160 359 LINE",
"186 410 LINE SMOOTH",
"214 465 OFFCURVE",
"238 494 OFFCURVE",
"271 494 CURVE SMOOTH",
"302 494 OFFCURVE",
"320 472 OFFCURVE",
"320 414 CURVE SMOOTH",
"320 0 LINE",
"400 0 LINE",
"400 417 LINE SMOOTH",
"400 515 OFFCURVE",
"363 568 OFFCURVE",
"293 568 CURVE SMOOTH",
"240 568 OFFCURVE",
"204 532 OFFCURVE",
"171 475 CURVE SMOOTH",
"160 456 LINE"
);
},
{
closed = 1;
nodes = (
"426 410 LINE SMOOTH",
"454 465 OFFCURVE",
"478 494 OFFCURVE",
"511 494 CURVE SMOOTH",
"542 494 OFFCURVE",
"560 472 OFFCURVE",
"560 413 CURVE SMOOTH",
"560 0 LINE",
"640 0 LINE",
"640 416 LINE SMOOTH",
"640 515 OFFCURVE",
"603 568 OFFCURVE",
"533 568 CURVE SMOOTH",
"480 568 OFFCURVE",
"442 535 OFFCURVE",
"407 475 CURVE SMOOTH",
"356 386 LINE",
"400 359 LINE"
);
}
);
width = 720;
}
);
},
{
color = 3;
export = 0;
glyphname = x.prop;
lastChange = "2018-01-10 16:41:34 +0000";
layers = (
{
background = {
paths = (
{
closed = 1;
nodes = (
"80 560 LINE",
"80 400 LINE",
"160 400 LINE",
"160 560 LINE"
);
},
{
closed = 1;
nodes = (
"400 400 LINE",
"480 400 LINE",
"480 560 LINE",
"400 560 LINE"
);
},
{
closed = 1;
nodes = (
"160 320 LINE",
"240 320 LINE",
"240 400 LINE",
"160 400 LINE"
);
},
{
closed = 1;
nodes = (
"400 320 LINE",
"400 400 LINE",
"320 400 LINE",
"320 320 LINE"
);
},
{
closed = 1;
nodes = (
"320 240 LINE",
"320 320 LINE",
"240 320 LINE",
"240 240 LINE"
);
},
{
closed = 1;
nodes = (
"240 160 LINE",
"240 240 LINE",
"160 240 LINE",
"160 160 LINE"
);
},
{
closed = 1;
nodes = (
"400 240 LINE",
"320 240 LINE",
"320 160 LINE",
"400 160 LINE"
);
},
{
closed = 1;
nodes = (
"80 0 LINE",
"160 0 LINE",
"160 160 LINE",
"80 160 LINE"
);
},
{
closed = 1;
nodes = (
"480 0 LINE",
"480 160 LINE",
"400 160 LINE",
"400 0 LINE"
);
}
);
};
components = (
{
alignment = -1;
name = x;
transform = "{1, 0, 0, 1, -20, 0}";
}
);
layerId = "83692D61-586C-413E-9B5A-1AF652750951";
width = 520;
}
);
},
{
glyphname = zero;
lastChange = "2018-09-07 16:40:51 +0000";
layers = (
{
background = {
paths = (
{
closed = 1;
nodes = (
"241 240 LINE",
"321 240 LINE",
"321 400 LINE",
"241 400 LINE"
);
}
);
};
hints = (
{
horizontal = 1;
origin = "{0, 5}";
target = "{1, 5}";
type = TTStem;
options = 4;
},
{
horizontal = 1;
origin = "{0, 11}";
target = "{1, 11}";
type = TTStem;
options = 4;
}
);
layerId = "83692D61-586C-413E-9B5A-1AF652750951";
paths = (
{
closed = 1;
nodes = (
"411 -10 OFFCURVE",
"506 127 OFFCURVE",
"506 320 CURVE SMOOTH",
"506 521 OFFCURVE",
"435 650 OFFCURVE",
"280 650 CURVE SMOOTH",
"137 650 OFFCURVE",
"54 510 OFFCURVE",
"54 320 CURVE SMOOTH",
"54 119 OFFCURVE",
"137 -10 OFFCURVE",
"280 -10 CURVE SMOOTH"
);
},
{
closed = 1;
nodes = (
"193 60 OFFCURVE",
"138 151 OFFCURVE",
"138 320 CURVE SMOOTH",
"138 490 OFFCURVE",
"184 580 OFFCURVE",
"280 580 CURVE SMOOTH",
"378 580 OFFCURVE",
"422 494 OFFCURVE",
"422 320 CURVE SMOOTH",
"422 152 OFFCURVE",
"369 60 OFFCURVE",
"280 60 CURVE SMOOTH"
);
}
);
width = 560;
}
);
unicode = 0030;
},
{
glyphname = one;
lastChange = "2018-09-07 16:41:02 +0000";
layers = (
{
hints = (
{
horizontal = 1;
origin = "{0, 8}";
target = "{0, 6}";
type = TTStem;
options = 4;
},
{
horizontal = 1;
origin = "{0, 6}";
target = "{0, 0}";
type = Align;
options = 4;
},
{
horizontal = 1;
origin = "{0, 2}";
target = "{0, 5}";
type = Align;
options = 4;
}
);
layerId = "83692D61-586C-413E-9B5A-1AF652750951";
paths = (
{
closed = 1;
nodes = (
"332 70 LINE",
"332 652 LINE",
"284 652 LINE",
"80 589 LINE",
"95 521 LINE",
"252 567 LINE",
"252 70 LINE",
"92 60 LINE",
"92 0 LINE",
"492 0 LINE",
"492 60 LINE"
);
}
);
width = 560;
}
);
unicode = 0031;
},
{
glyphname = two;
lastChange = "2018-09-07 16:41:11 +0000";
layers = (
{
background = {
paths = (
{
closed = 1;
nodes = (
"478 0 LINE",
"478 80 LINE",
"146 80 LINE",
"178 71 LINE",
"414 246 OFFCURVE",
"464 345 OFFCURVE",
"464 453 CURVE SMOOTH",
"464 575 OFFCURVE",
"391 652 OFFCURVE",
"268 652 CURVE SMOOTH",
"187 652 OFFCURVE",
"126 618 OFFCURVE",
"69 570 CURVE",
"109 514 LINE",
"147 543 OFFCURVE",
"203 580 OFFCURVE",
"262 580 CURVE SMOOTH",
"333 580 OFFCURVE",
"380 539 OFFCURVE",
"380 448 CURVE SMOOTH",
"380 338 OFFCURVE",
"295 235 OFFCURVE",
"78 71 CURVE",
"78 0 LINE"
);
}
);
};
hints = (
{
horizontal = 1;
origin = "{0, 23}";
target = "{0, 2, 0, 6}";
type = TTStem;
options = 4;
},
{
horizontal = 1;
origin = "{0, 2, 0, 6}";
target = "{0, 22}";
type = Align;
options = 4;
},
{
horizontal = 1;
origin = "{0, 9}";
target = "{0, 16}";
type = TTStem;
options = 4;
}
);
layerId = "83692D61-586C-413E-9B5A-1AF652750951";
paths = (
{
closed = 1;
nodes = (
"478 0 LINE",
"478 72 LINE",
"146 72 LINE",
"114 31 LINE",
"391 205 OFFCURVE",
"466 335 OFFCURVE",
"466 452 CURVE SMOOTH",
"466 571 OFFCURVE",
"391 652 OFFCURVE",
"265 652 CURVE SMOOTH",
"187 652 OFFCURVE",
"126 618 OFFCURVE",
"69 570 CURVE",
"109 514 LINE",
"147 543 OFFCURVE",
"203 580 OFFCURVE",
"262 580 CURVE SMOOTH",
"337 580 OFFCURVE",
"380 533 OFFCURVE",
"380 446 CURVE SMOOTH",
"380 330 OFFCURVE",
"295 235 OFFCURVE",
"78 71 CURVE",
"78 0 LINE"
);
}
);
width = 560;
}
);
unicode = 0032;
},
{
glyphname = three;
lastChange = "2018-09-07 16:41:38 +0000";
layers = (
{
background = {
paths = (
{
closed = 1;
nodes = (
"400 560 LINE",
"400 640 LINE",
"160 640 LINE",
"160 560 LINE"
);
},
{
closed = 1;
nodes = (
"320 -160 LINE",
"320 -80 LINE",
"80 -80 LINE",
"80 -160 LINE"
);
},
{
closed = 1;
nodes = (
"400 -80 LINE",
"400 0 LINE",
"320 0 LINE",
"320 -80 LINE"
);
},
{
closed = 1;
nodes = (
"320 240 LINE",
"320 320 LINE",
"160 320 LINE",
"160 240 LINE"
);
},
{
closed = 1;
nodes = (
"480 0 LINE",
"480 160 LINE",
"400 160 LINE",
"400 0 LINE"
);
},
{
closed = 1;
nodes = (
"400 160 LINE",
"400 240 LINE",
"320 240 LINE",
"320 160 LINE"
);
},
{
closed = 1;
nodes = (
"160 480 LINE",
"160 560 LINE",
"80 560 LINE",
"80 480 LINE"
);
},
{
closed = 1;
nodes = (
"400 320 LINE",
"400 400 LINE",
"320 400 LINE",
"320 320 LINE"
);
},
{
closed = 1;
nodes = (
"480 400 LINE",
"480 560 LINE",
"400 560 LINE",
"400 400 LINE"
);
}
);
};
hints = (
{
horizontal = 1;
origin = "{0, 37}";
target = "{0, 36}";
type = TTStem;
options = 4;
},
{
horizontal = 1;
origin = "{0, 14}";
target = "{0, 21}";
type = TTStem;
options = 4;
},
{
horizontal = 1;
origin = "{0, 37}";
target = "{0, 14}";
other1 = "{0, 30}";
type = Interpolate;
},
{
horizontal = 1;
origin = "{0, 30}";
target = "{0, 27}";
type = TTStem;
options = 4;
},
{
horizontal = 1;
origin = "{0, 30}";
target = "{0, 27}";
other1 = "{0, 5, 0, 11}";
type = Interpolate;
options = 4;
}
);
layerId = "83692D61-586C-413E-9B5A-1AF652750951";
paths = (
{
closed = 1;
nodes = (
"355 -135 OFFCURVE",
"477 -28 OFFCURVE",
"477 108 CURVE SMOOTH",
"477 216 OFFCURVE",
"399 296 OFFCURVE",
"203 296 CURVE SMOOTH",
"158 296 LINE",
"158 268 LINE",
"173 268 LINE SMOOTH",
"363 268 OFFCURVE",
"460 363 OFFCURVE",
"460 481 CURVE SMOOTH",
"460 578 OFFCURVE",
"385 652 OFFCURVE",
"270 652 CURVE SMOOTH",
"165 652 OFFCURVE",
"101 593 OFFCURVE",
"54 535 CURVE",
"102 490 LINE",
"142 534 OFFCURVE",
"192 582 OFFCURVE",
"263 582 CURVE SMOOTH",
"334 582 OFFCURVE",
"374 535 OFFCURVE",
"374 466 CURVE SMOOTH",
"374 395 OFFCURVE",
"333 312 OFFCURVE",
"173 312 CURVE SMOOTH",
"148 312 LINE",
"148 240 LINE",
"203 240 LINE SMOOTH",
"339 240 OFFCURVE",
"391 181 OFFCURVE",
"391 106 CURVE SMOOTH",
"391 -8 OFFCURVE",
"290 -72 OFFCURVE",
"71 -105 CURVE",
"81 -170 LINE"
);
}
);
width = 560;
},
{
associatedMasterId = "83692D61-586C-413E-9B5A-1AF652750951";
background = {
paths = (
{
closed = 1;
nodes = (
"400 560 LINE",
"400 640 LINE",
"160 640 LINE",
"160 560 LINE"
);
},
{
closed = 1;
nodes = (
"320 -160 LINE",
"320 -80 LINE",
"80 -80 LINE",
"80 -160 LINE"
);
},
{
closed = 1;
nodes = (
"400 -80 LINE",
"400 0 LINE",
"320 0 LINE",
"320 -80 LINE"
);
},
{
closed = 1;
nodes = (
"320 240 LINE",
"320 320 LINE",
"160 320 LINE",
"160 240 LINE"
);
},
{
closed = 1;
nodes = (
"480 0 LINE",
"480 160 LINE",
"400 160 LINE",
"400 0 LINE"
);
},
{
closed = 1;
nodes = (
"400 160 LINE",
"400 240 LINE",
"320 240 LINE",
"320 160 LINE"
);
},
{
closed = 1;
nodes = (
"160 480 LINE",
"160 560 LINE",
"80 560 LINE",
"80 480 LINE"
);
},
{
closed = 1;
nodes = (
"400 320 LINE",
"400 400 LINE",
"320 400 LINE",
"320 320 LINE"
);
},
{
closed = 1;
nodes = (
"480 400 LINE",
"480 560 LINE",
"400 560 LINE",
"400 400 LINE"
);
}
);
};
layerId = "F76A24FC-8BAD-4C26-88A9-A9F19A1ECB8E";
name = "Jan 24 18, 17:35";
paths = (
{
closed = 1;
nodes = (
"369 -174 OFFCURVE",
"483 -85 OFFCURVE",
"483 69 CURVE SMOOTH",
"483 198 OFFCURVE",
"400 296 OFFCURVE",
"183 296 CURVE SMOOTH",
"174 296 LINE",
"174 265 LINE",
"185 265 LINE SMOOTH",
"382 265 OFFCURVE",
"466 359 OFFCURVE",
"466 466 CURVE SMOOTH",
"466 571 OFFCURVE",
"391 652 OFFCURVE",
"265 652 CURVE SMOOTH",
"187 652 OFFCURVE",
"126 618 OFFCURVE",
"69 570 CURVE",
"109 514 LINE",
"147 543 OFFCURVE",
"203 580 OFFCURVE",
"262 580 CURVE SMOOTH",
"337 580 OFFCURVE",
"380 533 OFFCURVE",
"380 466 CURVE SMOOTH",
"380 393 OFFCURVE",
"336 306 OFFCURVE",
"160 312 CURVE",
"160 240 LINE",
"337 246 OFFCURVE",
"397 172 OFFCURVE",
"397 72 CURVE SMOOTH",
"397 -38 OFFCURVE",
"331 -102 OFFCURVE",
"199 -102 CURVE SMOOTH",
"162 -102 OFFCURVE",
"118 -95 OFFCURVE",
"86 -88 CURVE",
"73 -155 LINE",
"108 -165 OFFCURVE",
"154 -174 OFFCURVE",
"215 -174 CURVE SMOOTH"
);
}
);
width = 560;
}
);
unicode = 0033;
},
{
glyphname = four;
lastChange = "2018-09-07 16:42:14 +0000";
layers = (
{
background = {
paths = (
{
closed = 1;
nodes = (
"320 640 LINE",
"240 640 LINE",
"240 480 LINE",
"320 480 LINE"
);
},
{
closed = 1;
nodes = (
"240 480 LINE",
"160 480 LINE",
"160 320 LINE",
"240 320 LINE"
);
},
{
closed = 1;
nodes = (
"400 320 LINE",
"320 320 LINE",
"320 80 LINE",
"80 80 LINE",
"80 160 LINE",
"0 160 LINE",
"0 0 LINE",
"320 0 LINE",
"320 -160 LINE",
"400 -160 LINE",
"400 0 LINE",
"480 0 LINE",
"480 80 LINE",
"400 80 LINE"
);
},
{
closed = 1;
nodes = (
"160 320 LINE",
"80 320 LINE",
"80 160 LINE",
"160 160 LINE"
);
}
);
};
hints = (
{
horizontal = 1;
origin = "{0, 14}";
type = Anchor;
},
{
horizontal = 1;
origin = "{0, 14}";
target = "{0, 1}";
type = Align;
options = 4;
},
{
horizontal = 1;
origin = "{0, 1}";
target = "{0, 4}";
type = TTStem;
options = 4;
},
{
horizontal = 1;
origin = "{0, 4}";
target = "{0, 7}";
type = Align;
options = 4;
},
{
horizontal = 1;
origin = "{0, 7}";
target = "{0, 12}";
type = Align;
options = 4;
},
{
horizontal = 1;
origin = "{0, 10}";
type = Anchor;
},
{
horizontal = 1;
origin = "{0, 6}";
type = Anchor;
}
);
layerId = "83692D61-586C-413E-9B5A-1AF652750951";
paths = (
{
closed = 1;
nodes = (
"424 -80 LINE",
"424 80 LINE",
"504 80 LINE",
"504 150 LINE",
"424 150 LINE",
"424 375 LINE",
"344 375 LINE",
"344 150 LINE",
"124 150 LINE",
"122 131 LINE",
"353 640 LINE",
"271 640 LINE",
"44 131 LINE",
"44 80 LINE",
"344 80 LINE",
"344 -80 LINE"
);
}
);
width = 560;
},
{
associatedMasterId = "83692D61-586C-413E-9B5A-1AF652750951";
background = {
paths = (
{
closed = 1;
nodes = (
"320 640 LINE",
"240 640 LINE",
"240 480 LINE",
"320 480 LINE"
);
},
{
closed = 1;
nodes = (
"240 480 LINE",
"160 480 LINE",
"160 320 LINE",
"240 320 LINE"
);
},
{
closed = 1;
nodes = (
"400 320 LINE",
"320 320 LINE",
"320 80 LINE",
"80 80 LINE",
"80 160 LINE",
"0 160 LINE",
"0 0 LINE",
"320 0 LINE",
"320 -160 LINE",
"400 -160 LINE",
"400 0 LINE",
"480 0 LINE",
"480 80 LINE",
"400 80 LINE"
);
},
{
closed = 1;
nodes = (
"160 320 LINE",
"80 320 LINE",
"80 160 LINE",
"160 160 LINE"
);
}
);
};
layerId = "DB0E6B6D-FE3A-4164-B69C-01AEC4AE1550";
name = "Dec 26 17, 15:06";
paths = (
{
closed = 1;
nodes = (
"424 -160 LINE",
"424 0 LINE",
"504 0 LINE",
"504 70 LINE",
"424 70 LINE",
"424 295 LINE",
"344 295 LINE",
"344 70 LINE",
"124 70 LINE",
"122 51 LINE",
"389 640 LINE",
"307 640 LINE",
"44 51 LINE",
"44 0 LINE",
"344 0 LINE",
"344 -160 LINE"
);
}
);
width = 560;
}
);
unicode = 0034;
},
{
glyphname = five;
lastChange = "2018-09-07 16:42:34 +0000";
layers = (
{
background = {
paths = (
{
closed = 1;
nodes = (
"361 -135 OFFCURVE",
"483 -28 OFFCURVE",
"483 108 CURVE SMOOTH",
"483 233 OFFCURVE",
"405 354 OFFCURVE",
"209 336 CURVE SMOOTH",
"171 333 OFFCURVE",
"132 329 OFFCURVE",
"94 326 CURVE",
"174 326 LINE",
"174 568 LINE",
"460 568 LINE",
"460 640 LINE",
"94 640 LINE",
"94 254 LINE",
"132 257 OFFCURVE",
"171 261 OFFCURVE",
"209 264 CURVE SMOOTH",
"344 277 OFFCURVE",
"397 188 OFFCURVE",
"397 106 CURVE SMOOTH",
"397 -8 OFFCURVE",
"296 -72 OFFCURVE",
"77 -105 CURVE",
"87 -170 LINE"
);
}
);
};
hints = (
{
horizontal = 1;
origin = "{0, 13}";
target = "{0, 10}";
type = TTStem;
options = 4;
},
{
horizontal = 1;
origin = "{0, 24}";
target = "{0, 23}";
type = TTStem;
options = 4;
},
{
horizontal = 1;
origin = "{0, 13}";
target = "{0, 24}";
other1 = "{0, 17}";
type = Interpolate;
},
{
horizontal = 1;
origin = "{0, 17}";
target = "{0, 5}";
type = TTStem;
options = 4;
}
);
layerId = "83692D61-586C-413E-9B5A-1AF652750951";
paths = (
{
closed = 1;
nodes = (
"353 -135 OFFCURVE",
"475 -32 OFFCURVE",
"475 122 CURVE SMOOTH",
"475 238 OFFCURVE",
"401 337 OFFCURVE",
"231 337 CURVE SMOOTH",
"189 337 OFFCURVE",
"131 331 OFFCURVE",
"86 326 CURVE",
"166 326 LINE",
"166 568 LINE",
"444 568 LINE",
"444 640 LINE",
"86 640 LINE",
"86 256 LINE",
"123 261 OFFCURVE",
"163 266 OFFCURVE",
"214 266 CURVE SMOOTH",
"336 266 OFFCURVE",
"389 193 OFFCURVE",
"389 118 CURVE SMOOTH",
"389 -12 OFFCURVE",
"288 -72 OFFCURVE",
"69 -105 CURVE",
"79 -170 LINE"
);
}
);
width = 560;
}
);
unicode = 0035;
},
{
glyphname = six;
lastChange = "2018-09-07 16:46:50 +0000";
layers = (
{
background = {
paths = (
{
closed = 1;
nodes = (
"402 -12 OFFCURVE",
"490 85 OFFCURVE",
"490 228 CURVE SMOOTH",
"490 387 OFFCURVE",
"415 475 OFFCURVE",
"310 475 CURVE SMOOTH",
"206 475 OFFCURVE",
"147 401 OFFCURVE",
"95 335 CURVE",
"130 304 LINE",
"177 363 OFFCURVE",
"231 403 OFFCURVE",
"289 403 CURVE SMOOTH",
"355 403 OFFCURVE",
"402 354 OFFCURVE",
"402 228 CURVE SMOOTH",
"402 121 OFFCURVE",
"363 60 OFFCURVE",
"283 60 CURVE SMOOTH",
"209 60 OFFCURVE",
"155 133 OFFCURVE",
"155 317 CURVE SMOOTH",
"155 548 OFFCURVE",
"231 620 OFFCURVE",
"428 665 CURVE",
"416 730 LINE",
"167 685 OFFCURVE",
"67 556 OFFCURVE",
"67 310 CURVE SMOOTH",
"67 97 OFFCURVE",
"155 -12 OFFCURVE",
"283 -12 CURVE SMOOTH"
);
}
);
};
color = -1;
hints = (
{
horizontal = 1;
origin = "{0, 31}";
target = "{0, 18}";
type = TTStem;
options = 4;
},
{
horizontal = 1;
origin = "{0, 25}";
target = "{0, 24}";
type = TTStem;
options = 4;
},
{
horizontal = 1;
origin = "{0, 31}";
target = "{0, 25}";
other1 = "{0, 12}";
type = Interpolate;
},
{
horizontal = 1;
origin = "{0, 12}";
target = "{0, 5}";
type = TTStem;
options = 4;
}
);
layerId = "83692D61-586C-413E-9B5A-1AF652750951";
paths = (
{
closed = 1;
nodes = (
"406 -12 OFFCURVE",
"498 96 OFFCURVE",
"498 241 CURVE SMOOTH",
"498 386 OFFCURVE",
"419 475 OFFCURVE",
"310 475 CURVE SMOOTH",
"204 475 OFFCURVE",
"145 401 OFFCURVE",
"93 335 CURVE",
"128 304 LINE",
"175 363 OFFCURVE",
"229 403 OFFCURVE",
"289 403 CURVE SMOOTH",
"359 403 OFFCURVE",
"410 352 OFFCURVE",
"410 242 CURVE SMOOTH",
"410 131 OFFCURVE",
"368 60 OFFCURVE",
"285 60 CURVE SMOOTH",
"202 60 OFFCURVE",
"147 141 OFFCURVE",
"147 317 CURVE SMOOTH",
"147 540 OFFCURVE",
"225 620 OFFCURVE",
"426 665 CURVE",
"414 730 LINE",
"161 685 OFFCURVE",
"59 548 OFFCURVE",
"59 310 CURVE SMOOTH",
"59 105 OFFCURVE",
"149 -12 OFFCURVE",
"285 -12 CURVE SMOOTH"
);
}
);
width = 560;
}
);
unicode = 0036;
},
{
glyphname = seven;
lastChange = "2018-09-07 16:47:00 +0000";
layers = (
{
background = {
paths = (
{
closed = 1;
nodes = (
"80 640 LINE",
"80 560 LINE",
"400 560 LINE",
"400 400 LINE",
"480 400 LINE",
"480 640 LINE"
);
},
{
closed = 1;
nodes = (
"320 240 LINE",
"400 240 LINE",
"400 400 LINE",
"320 400 LINE"
);
},
{
closed = 1;
nodes = (
"240 80 LINE",
"320 80 LINE",
"320 240 LINE",
"240 240 LINE"
);
},
{
closed = 1;
nodes = (
"160 -160 LINE",
"240 -160 LINE",
"240 80 LINE",
"160 80 LINE"
);
}
);
};
hints = (
{
horizontal = 1;
origin = "{0, 4}";
target = "{0, 7}";
type = TTStem;
options = 4;
},
{
horizontal = 1;
origin = "{0, 0}";
type = Anchor;
},
{
horizontal = 1;
origin = "{0, 7}";
target = "{0, 3}";
type = Align;
options = 4;
}
);
layerId = "83692D61-586C-413E-9B5A-1AF652750951";
paths = (
{
closed = 1;
nodes = (
"240 -160 LINE",
"274 136 OFFCURVE",
"349 327 OFFCURVE",
"480 570 CURVE",
"480 640 LINE",
"80 640 LINE",
"80 560 LINE",
"393 560 LINE",
"290 363 OFFCURVE",
"198 172 OFFCURVE",
"160 -160 CURVE"
);
}
);
width = 560;
}
);
unicode = 0037;
},
{
glyphname = eight;
lastChange = "2018-09-07 16:47:31 +0000";
layers = (
{
background = {
paths = (
{
closed = 1;
nodes = (
"400 640 LINE",
"400 720 LINE",
"160 720 LINE",
"160 640 LINE"
);
},
{
closed = 1;
nodes = (
"80 640 LINE",
"80 480 LINE",
"160 480 LINE",
"160 640 LINE"
);
},
{
closed = 1;
nodes = (
"400 480 LINE",
"480 480 LINE",
"480 640 LINE",
"400 640 LINE"
);
},
{
closed = 1;
nodes = (
"160 400 LINE",
"240 400 LINE",
"240 480 LINE",
"160 480 LINE"
);
},
{
closed = 1;
nodes = (
"400 400 LINE",
"400 480 LINE",
"320 480 LINE",
"320 400 LINE"
);
},
{
closed = 1;
nodes = (
"320 320 LINE",
"320 400 LINE",
"240 400 LINE",
"240 320 LINE"
);
},
{
closed = 1;
nodes = (
"160 320 LINE",
"160 240 LINE",
"240 240 LINE",
"240 320 LINE"
);
},
{
closed = 1;
nodes = (
"400 320 LINE",
"320 320 LINE",
"320 240 LINE",
"400 240 LINE"
);
},
{
closed = 1;
nodes = (
"80 240 LINE",
"80 80 LINE",
"160 80 LINE",
"160 240 LINE"
);
},
{
closed = 1;
nodes = (
"480 80 LINE",
"480 240 LINE",
"400 240 LINE",
"400 80 LINE"
);
},
{
closed = 1;
nodes = (
"160 80 LINE",
"160 0 LINE",
"400 0 LINE",
"400 80 LINE"
);
}
);
};
hints = (
{
horizontal = 1;
origin = "{0, 45}";
target = "{0, 6}";
type = TTStem;
options = 4;
},
{
horizontal = 1;
origin = "{0, 19}";
target = "{0, 32}";
type = TTStem;
options = 4;
},
{
horizontal = 1;
origin = "{0, 6}";
target = "{0, 19}";
other1 = "{0, 29, 0, 39}";
type = Interpolate;
options = 4;
},
{
horizontal = 1;
origin = "{0, 45}";
target = "{0, 32}";
other1 = "{0, 3, 0, 13}";
type = Interpolate;
options = 4;
},
{
horizontal = 1;
origin = "{0, 29, 0, 39}";
target = "{0, 3, 0, 13}";
other1 = "{0, 13, 0, 51}";
type = Interpolate;
options = 4;
},
{
horizontal = 1;
origin = "{0, 29, 0, 39}";
target = "{0, 3, 0, 13}";
other1 = "{0, 25, 0, 39}";
type = Interpolate;
options = 4;
}
);
layerId = "83692D61-586C-413E-9B5A-1AF652750951";
paths = (
{
closed = 1;
nodes = (
"288 396 LINE",
"347 446 OFFCURVE",
"398 483 OFFCURVE",
"398 553 CURVE SMOOTH",
"398 603 OFFCURVE",
"362 659 OFFCURVE",
"278 659 CURVE SMOOTH",
"202 659 OFFCURVE",
"159 620 OFFCURVE",
"159 564 CURVE SMOOTH",
"159 520 OFFCURVE",
"178 497 OFFCURVE",
"218 466 CURVE SMOOTH",
"401 324 LINE SMOOTH",
"480 262 OFFCURVE",
"504 217 OFFCURVE",
"504 162 CURVE SMOOTH",
"504 75 OFFCURVE",
"424 -10 OFFCURVE",
"278 -10 CURVE SMOOTH",
"121 -10 OFFCURVE",
"52 67 OFFCURVE",
"52 164 CURVE SMOOTH",
"52 273 OFFCURVE",
"141 336 OFFCURVE",
"228 386 CURVE",
"279 336 LINE",
"185 286 OFFCURVE",
"136 238 OFFCURVE",
"136 166 CURVE SMOOTH",
"136 122 OFFCURVE",
"175 62 OFFCURVE",
"278 62 CURVE SMOOTH",
"370 62 OFFCURVE",
"420 103 OFFCURVE",
"420 161 CURVE SMOOTH",
"420 196 OFFCURVE",
"407 219 OFFCURVE",
"351 263 CURVE SMOOTH",
"166 407 LINE SMOOTH",
"113 448 OFFCURVE",
"75 486 OFFCURVE",
"75 560 CURVE SMOOTH",
"75 654 OFFCURVE",
"156 730 OFFCURVE",
"280 730 CURVE SMOOTH",
"400 730 OFFCURVE",
"482 655 OFFCURVE",
"482 553 CURVE SMOOTH",
"482 463 OFFCURVE",
"418 415 OFFCURVE",
"335 350 CURVE"
);
}
);
width = 560;
}
);
unicode = 0038;
},
{
glyphname = nine;
lastChange = "2018-09-07 16:47:59 +0000";
layers = (
{
background = {
paths = (
{
closed = 1;
nodes = (
"377 -118 OFFCURVE",
"485 21 OFFCURVE",
"485 302 CURVE SMOOTH",
"485 539 OFFCURVE",
"410 649 OFFCURVE",
"269 649 CURVE SMOOTH",
"149 649 OFFCURVE",
"62 547 OFFCURVE",
"62 399 CURVE SMOOTH",
"62 225 OFFCURVE",
"158 162 OFFCURVE",
"248 162 CURVE SMOOTH",
"344 162 OFFCURVE",
"405 230 OFFCURVE",
"458 296 CURVE",
"422 333 LINE",
"375 274 OFFCURVE",
"321 234 OFFCURVE",
"263 234 CURVE SMOOTH",
"197 234 OFFCURVE",
"150 283 OFFCURVE",
"150 395 CURVE SMOOTH",
"150 509 OFFCURVE",
"193 577 OFFCURVE",
"269 577 CURVE SMOOTH",
"352 577 OFFCURVE",
"397 496 OFFCURVE",
"397 319 CURVE SMOOTH",
"397 34 OFFCURVE",
"308 -49 OFFCURVE",
"124 -101 CURVE",
"138 -166 LINE"
);
}
);
};
color = -1;
hints = (
{
horizontal = 1;
origin = "{0, 5}";
target = "{0, 24}";
type = TTStem;
options = 4;
},
{
horizontal = 1;
origin = "{0, 31}";
target = "{0, 30}";
type = TTStem;
options = 4;
},
{
horizontal = 1;
origin = "{0, 5}";
target = "{0, 31}";
other1 = "{0, 11}";
type = Interpolate;
},
{
horizontal = 1;
origin = "{0, 11}";
target = "{0, 18}";
type = TTStem;
options = 4;
}
);
layerId = "83692D61-586C-413E-9B5A-1AF652750951";
paths = (
{
closed = 1;
nodes = (
"381 -118 OFFCURVE",
"491 29 OFFCURVE",
"491 302 CURVE SMOOTH",
"491 531 OFFCURVE",
"410 649 OFFCURVE",
"267 649 CURVE SMOOTH",
"139 649 OFFCURVE",
"52 543 OFFCURVE",
"52 401 CURVE SMOOTH",
"52 230 OFFCURVE",
"153 162 OFFCURVE",
"246 162 CURVE SMOOTH",
"344 162 OFFCURVE",
"405 230 OFFCURVE",
"458 296 CURVE",
"422 333 LINE",
"375 274 OFFCURVE",
"321 234 OFFCURVE",
"263 234 CURVE SMOOTH",
"191 234 OFFCURVE",
"140 288 OFFCURVE",
"140 399 CURVE SMOOTH",
"140 504 OFFCURVE",
"187 577 OFFCURVE",
"267 577 CURVE SMOOTH",
"354 577 OFFCURVE",
"403 488 OFFCURVE",
"403 319 CURVE SMOOTH",
"403 42 OFFCURVE",
"312 -49 OFFCURVE",
"124 -101 CURVE",
"138 -166 LINE"
);
}
);
width = 560;
}
);
unicode = 0039;
},
{
glyphname = zero.zero;
lastChange = "2018-09-07 16:48:18 +0000";
layers = (
{
hints = (
{
horizontal = 1;
origin = "{0, 11}";
target = "{1, 11}";
type = TTStem;
options = 4;
},
{
horizontal = 1;
origin = "{0, 5}";
target = "{1, 5}";
type = TTStem;
options = 4;
},
{
horizontal = 1;
origin = "{0, 11}";
target = "{0, 5}";
other1 = "{2, 11}";
type = Interpolate;
},
{
horizontal = 1;
origin = "{2, 11}";
target = "{2, 5}";
type = TTStem;
stem = -1;
options = 4;
}
);
layerId = "83692D61-586C-413E-9B5A-1AF652750951";
paths = (
{
closed = 1;
nodes = (
"411 -10 OFFCURVE",
"506 127 OFFCURVE",
"506 320 CURVE SMOOTH",
"506 521 OFFCURVE",
"435 650 OFFCURVE",
"280 650 CURVE SMOOTH",
"137 650 OFFCURVE",
"54 510 OFFCURVE",
"54 320 CURVE SMOOTH",
"54 119 OFFCURVE",
"137 -10 OFFCURVE",
"280 -10 CURVE SMOOTH"
);
},
{
closed = 1;
nodes = (
"193 60 OFFCURVE",
"138 151 OFFCURVE",
"138 320 CURVE SMOOTH",
"138 490 OFFCURVE",
"184 580 OFFCURVE",
"280 580 CURVE SMOOTH",
"378 580 OFFCURVE",
"422 494 OFFCURVE",
"422 320 CURVE SMOOTH",
"422 152 OFFCURVE",
"369 60 OFFCURVE",
"280 60 CURVE SMOOTH"
);
},
{
closed = 1;
nodes = (
"313 260 OFFCURVE",
"338 286 OFFCURVE",
"338 320 CURVE SMOOTH",
"338 352 OFFCURVE",
"313 379 OFFCURVE",
"279 379 CURVE SMOOTH",
"244 379 OFFCURVE",
"220 353 OFFCURVE",
"220 320 CURVE SMOOTH",
"220 285 OFFCURVE",
"245 260 OFFCURVE",
"279 260 CURVE SMOOTH"
);
}
);
width = 560;
}
);
},
{
glyphname = period;
lastChange = "2018-09-10 14:14:25 +0000";
layers = (
{
hints = (
{
horizontal = 1;
origin = "{0, 11}";
target = "{0, 5}";
type = TTStem;
stem = -1;
}
);
layerId = "83692D61-586C-413E-9B5A-1AF652750951";
paths = (
{
closed = 1;
nodes = (
"331 -12 OFFCURVE",
"372 29 OFFCURVE",
"372 79 CURVE SMOOTH",
"372 131 OFFCURVE",
"333 172 OFFCURVE",
"280 172 CURVE SMOOTH",
"229 172 OFFCURVE",
"188 130 OFFCURVE",
"188 79 CURVE SMOOTH",
"188 28 OFFCURVE",
"227 -12 OFFCURVE",
"280 -12 CURVE SMOOTH"
);
}
);
width = 560;
},
{
associatedMasterId = "83692D61-586C-413E-9B5A-1AF652750951";
layerId = "32AC2FFF-2820-41ED-B603-ABB1E8D703E9";
name = "Feb 5 18, 12:15";
paths = (
{
closed = 1;
nodes = (
"326 -16 OFFCURVE",
"357 27 OFFCURVE",
"357 84 CURVE SMOOTH",
"357 140 OFFCURVE",
"326 183 OFFCURVE",
"280 183 CURVE SMOOTH",
"234 183 OFFCURVE",
"203 140 OFFCURVE",
"203 84 CURVE SMOOTH",
"203 27 OFFCURVE",
"234 -16 OFFCURVE",
"280 -16 CURVE SMOOTH"
);
}
);
visible = 1;
width = 560;
}
);
leftKerningGroup = period;
rightKerningGroup = period;
unicode = 002E;
},
{
glyphname = comma;
lastChange = "2018-09-07 16:48:48 +0000";
layers = (
{
background = {
components = (
{
name = period;
}
);
};
hints = (
{
horizontal = 1;
origin = "{0, 1}";
type = Anchor;
},
{
horizontal = 1;
origin = "{0, 3}";
type = Anchor;
}
);
layerId = "83692D61-586C-413E-9B5A-1AF652750951";
paths = (
{
closed = 1;
nodes = (
"377 160 LINE",
"232 160 LINE",
"159 -160 LINE",
"226 -160 LINE"
);
}
);
width = 560;
}
);
leftKerningGroup = period;
rightKerningGroup = period;
unicode = 002C;
},
{
glyphname = ellipsis;
lastChange = "2018-09-10 14:14:37 +0000";
layers = (
{
background = {
paths = (
{
closed = 1;
nodes = (
"480 0 LINE",
"480 160 LINE",
"400 160 LINE",
"400 0 LINE"
);
},
{
closed = 1;
nodes = (
"160 0 LINE",
"160 160 LINE",
"80 160 LINE",
"80 0 LINE"
);
},
{
closed = 1;
nodes = (
"320 0 LINE",
"320 160 LINE",
"240 160 LINE",
"240 0 LINE"
);
}
);
};
hints = (
{
horizontal = 1;
origin = "{0, 11}";
type = Anchor;
},
{
horizontal = 1;
origin = "{1, 11}";
type = Anchor;
},
{
horizontal = 1;
origin = "{2, 11}";
type = Anchor;
},
{
horizontal = 1;
origin = "{2, 11}";
target = "{2, 5}";
type = TTStem;
stem = -1;
},
{
horizontal = 1;
origin = "{2, 5}";
target = "{1, 5}";
type = Align;
options = 4;
},
{
horizontal = 1;
origin = "{1, 5}";
target = "{0, 5}";
type = Align;
options = 4;
}
);
layerId = "83692D61-586C-413E-9B5A-1AF652750951";
paths = (
{
closed = 1;
nodes = (
"153 -12 OFFCURVE",
"177 11 OFFCURVE",
"177 44 CURVE SMOOTH",
"177 77 OFFCURVE",
"153 100 OFFCURVE",
"120 100 CURVE SMOOTH",
"87 100 OFFCURVE",
"63 77 OFFCURVE",
"63 44 CURVE SMOOTH",
"63 11 OFFCURVE",
"87 -12 OFFCURVE",
"120 -12 CURVE SMOOTH"
);
},
{
closed = 1;
nodes = (
"313 -12 OFFCURVE",
"337 11 OFFCURVE",
"337 44 CURVE SMOOTH",
"337 77 OFFCURVE",
"313 100 OFFCURVE",
"280 100 CURVE SMOOTH",
"247 100 OFFCURVE",
"223 77 OFFCURVE",
"223 44 CURVE SMOOTH",
"223 11 OFFCURVE",
"247 -12 OFFCURVE",
"280 -12 CURVE SMOOTH"
);
},
{
closed = 1;
nodes = (
"473 -12 OFFCURVE",
"497 11 OFFCURVE",
"497 44 CURVE SMOOTH",
"497 77 OFFCURVE",
"473 100 OFFCURVE",
"440 100 CURVE SMOOTH",
"407 100 OFFCURVE",
"383 77 OFFCURVE",
"383 44 CURVE SMOOTH",
"383 11 OFFCURVE",
"407 -12 OFFCURVE",
"440 -12 CURVE SMOOTH"
);
}
);
width = 560;
},
{
associatedMasterId = "83692D61-586C-413E-9B5A-1AF652750951";
background = {
paths = (
{
closed = 1;
nodes = (
"480 0 LINE",
"480 160 LINE",
"400 160 LINE",
"400 0 LINE"
);
},
{
closed = 1;
nodes = (
"160 0 LINE",
"160 160 LINE",
"80 160 LINE",
"80 0 LINE"
);
},
{
closed = 1;
nodes = (
"320 0 LINE",
"320 160 LINE",
"240 160 LINE",
"240 0 LINE"
);
}
);
};
layerId = "4F57C0E9-0768-4C67-8A6E-A840AB21D8AF";
name = "Feb 5 18, 13:24";
paths = (
{
closed = 1;
nodes = (
"171 -12 OFFCURVE",
"212 29 OFFCURVE",
"212 79 CURVE SMOOTH",
"212 131 OFFCURVE",
"173 172 OFFCURVE",
"120 172 CURVE SMOOTH",
"69 172 OFFCURVE",
"28 130 OFFCURVE",
"28 79 CURVE SMOOTH",
"28 28 OFFCURVE",
"67 -12 OFFCURVE",
"120 -12 CURVE SMOOTH"
);
},
{
closed = 1;
nodes = (
"171 -12 OFFCURVE",
"212 29 OFFCURVE",
"212 79 CURVE SMOOTH",
"212 131 OFFCURVE",
"173 172 OFFCURVE",
"120 172 CURVE SMOOTH",
"69 172 OFFCURVE",
"28 130 OFFCURVE",
"28 79 CURVE SMOOTH",
"28 28 OFFCURVE",
"67 -12 OFFCURVE",
"120 -12 CURVE SMOOTH"
);
},
{
closed = 1;
nodes = (
"331 -12 OFFCURVE",
"372 29 OFFCURVE",
"372 79 CURVE SMOOTH",
"372 131 OFFCURVE",
"333 172 OFFCURVE",
"280 172 CURVE SMOOTH",
"229 172 OFFCURVE",
"188 130 OFFCURVE",
"188 79 CURVE SMOOTH",
"188 28 OFFCURVE",
"227 -12 OFFCURVE",
"280 -12 CURVE SMOOTH"
);
},
{
closed = 1;
nodes = (
"331 -12 OFFCURVE",
"372 29 OFFCURVE",
"372 79 CURVE SMOOTH",
"372 131 OFFCURVE",
"333 172 OFFCURVE",
"280 172 CURVE SMOOTH",
"229 172 OFFCURVE",
"188 130 OFFCURVE",
"188 79 CURVE SMOOTH",
"188 28 OFFCURVE",
"227 -12 OFFCURVE",
"280 -12 CURVE SMOOTH"
);
},
{
closed = 1;
nodes = (
"491 -12 OFFCURVE",
"532 29 OFFCURVE",
"532 79 CURVE SMOOTH",
"532 131 OFFCURVE",
"493 172 OFFCURVE",
"440 172 CURVE SMOOTH",
"389 172 OFFCURVE",
"348 130 OFFCURVE",
"348 79 CURVE SMOOTH",
"348 28 OFFCURVE",
"387 -12 OFFCURVE",
"440 -12 CURVE SMOOTH"
);
},
{
closed = 1;
nodes = (
"491 -12 OFFCURVE",
"532 29 OFFCURVE",
"532 79 CURVE SMOOTH",
"532 131 OFFCURVE",
"493 172 OFFCURVE",
"440 172 CURVE SMOOTH",
"389 172 OFFCURVE",
"348 130 OFFCURVE",
"348 79 CURVE SMOOTH",
"348 28 OFFCURVE",
"387 -12 OFFCURVE",
"440 -12 CURVE SMOOTH"
);
}
);
width = 560;
}
);
unicode = 2026;
},
{
color = 7;
glyphname = exclam;
lastChange = "2018-06-14 16:44:57 +0000";
layers = (
{
background = {
paths = (
{
closed = 1;
nodes = (
"320 240 LINE",
"320 720 LINE",
"240 720 LINE",
"240 240 LINE"
);
},
{
closed = 1;
nodes = (
"320 0 LINE",
"320 160 LINE",
"240 160 LINE",
"240 0 LINE"
);
}
);
};
components = (
{
name = period;
}
);
layerId = "83692D61-586C-413E-9B5A-1AF652750951";
paths = (
{
closed = 1;
nodes = (
"307 280 LINE",
"348 720 LINE",
"212 720 LINE",
"253 280 LINE"
);
}
);
width = 560;
},
{
associatedMasterId = "83692D61-586C-413E-9B5A-1AF652750951";
background = {
paths = (
{
closed = 1;
nodes = (
"320 240 LINE",
"320 720 LINE",
"240 720 LINE",
"240 240 LINE"
);
},
{
closed = 1;
nodes = (
"320 0 LINE",
"320 160 LINE",
"240 160 LINE",
"240 0 LINE"
);
}
);
};
components = (
{
name = period;
}
);
layerId = "6DA340A7-505F-4AF4-A2AA-65095B002187";
name = "Jun 14 18, 18:44";
paths = (
{
closed = 1;
nodes = (
"307 280 LINE",
"348 800 LINE",
"212 800 LINE",
"253 280 LINE"
);
}
);
width = 560;
}
);
unicode = 0021;
},
{
color = 7;
glyphname = question;
lastChange = "2018-05-11 15:56:51 +0000";
layers = (
{
background = {
paths = (
{
closed = 1;
nodes = (
"80 720 LINE",
"80 640 LINE",
"400 640 LINE",
"400 720 LINE"
);
},
{
closed = 1;
nodes = (
"400 400 LINE",
"480 400 LINE",
"480 640 LINE",
"400 640 LINE"
);
},
{
closed = 1;
nodes = (
"400 320 LINE",
"400 400 LINE",
"320 400 LINE",
"320 320 LINE"
);
},
{
closed = 1;
nodes = (
"320 240 LINE",
"320 320 LINE",
"240 320 LINE",
"240 240 LINE"
);
},
{
closed = 1;
nodes = (
"240 0 LINE",
"320 0 LINE",
"320 160 LINE",
"240 160 LINE"
);
}
);
};
color = -1;
components = (
{
name = period;
}
);
layerId = "83692D61-586C-413E-9B5A-1AF652750951";
paths = (
{
closed = 1;
nodes = (
"400 317 OFFCURVE",
"486 409 OFFCURVE",
"486 522 CURVE SMOOTH",
"486 648 OFFCURVE",
"396 730 OFFCURVE",
"252 730 CURVE SMOOTH",
"186 730 OFFCURVE",
"120 709 OFFCURVE",
"73 688 CURVE",
"91 631 LINE",
"127 643 OFFCURVE",
"190 658 OFFCURVE",
"238 658 CURVE SMOOTH",
"342 658 OFFCURVE",
"396 604 OFFCURVE",
"396 515 CURVE SMOOTH",
"396 430 OFFCURVE",
"342 368 OFFCURVE",
"243 290 CURVE",
"285 240 LINE"
);
}
);
width = 560;
}
);
unicode = 003F;
},
{
glyphname = periodcentered;
lastChange = "2018-09-10 14:19:59 +0000";
layers = (
{
background = {
paths = (
{
closed = 1;
nodes = (
"320 240 LINE",
"320 400 LINE",
"240 400 LINE",
"240 240 LINE"
);
}
);
};
hints = (
{
horizontal = 1;
origin = "{0, 11}";
target = "{0, 5}";
type = TTStem;
stem = -1;
},
{
horizontal = 1;
origin = "{0, 11}";
type = Anchor;
}
);
layerId = "83692D61-586C-413E-9B5A-1AF652750951";
paths = (
{
closed = 1;
nodes = (
"313 264 OFFCURVE",
"337 287 OFFCURVE",
"337 320 CURVE SMOOTH",
"337 353 OFFCURVE",
"313 376 OFFCURVE",
"280 376 CURVE SMOOTH",
"247 376 OFFCURVE",
"223 353 OFFCURVE",
"223 320 CURVE SMOOTH",
"223 287 OFFCURVE",
"247 264 OFFCURVE",
"280 264 CURVE SMOOTH"
);
}
);
width = 560;
}
);
unicode = 00B7;
},
{
color = 7;
glyphname = asterisk;
lastChange = "2018-01-04 17:21:36 +0000";
layers = (
{
background = {
paths = (
{
closed = 1;
nodes = (
"243 266 LINE",
"521 356 LINE",
"496 432 LINE",
"218 342 LINE"
);
},
{
closed = 1;
nodes = (
"265 273 LINE",
"394 94 LINE",
"460 143 LINE",
"329 320 LINE"
);
},
{
closed = 1;
nodes = (
"318 320 LINE",
"320 560 LINE",
"240 560 LINE",
"242 320 LINE"
);
},
{
closed = 1;
nodes = (
"230 316 LINE",
"104 142 LINE",
"166 96 LINE",
"292 271 LINE"
);
},
{
closed = 1;
nodes = (
"64 432 LINE",
"39 356 LINE",
"274 280 LINE",
"299 356 LINE"
);
}
);
};
components = (
{
name = _part.asterisk;
transform = "{1, 0, 0, 1, 0, 66}";
},
{
name = _part.asterisk;
transform = "{0.30902, -0.95106, 0.95106, 0.30902, -73, 526}";
},
{
name = _part.asterisk;
transform = "{0.30902, 0.95106, -0.95106, 0.30902, 460, -7}";
},
{
name = _part.asterisk;
transform = "{-0.80902, 0.58779, -0.58779, -0.80902, 671, 408}";
},
{
name = _part.asterisk;
transform = "{-0.80902, -0.58779, 0.58779, -0.80902, 342, 737}";
}
);
layerId = "83692D61-586C-413E-9B5A-1AF652750951";
width = 560;
}
);
unicode = 002A;
},
{
glyphname = numbersign;
lastChange = "2018-09-07 16:50:19 +0000";
layers = (
{
hints = (
{
horizontal = 1;
origin = "{0, 0}";
type = Anchor;
},
{
horizontal = 1;
origin = "{0, 0}";
target = "{0, 3}";
type = Align;
options = 4;
},
{
horizontal = 1;
origin = "{0, 17}";
type = Anchor;
},
{
horizontal = 1;
origin = "{0, 17}";
target = "{0, 14}";
type = Align;
options = 4;
},
{
horizontal = 1;
origin = "{0, 0}";
target = "{0, 17}";
other1 = "{0, 1}";
type = Interpolate;
},
{
horizontal = 1;
origin = "{0, 1}";
target = "{0, 5}";
type = Align;
options = 4;
},
{
horizontal = 1;
origin = "{0, 5}";
target = "{0, 26}";
type = Align;
options = 4;
},
{
horizontal = 1;
origin = "{0, 26}";
target = "{0, 23}";
type = TTStem;
options = 4;
},
{
horizontal = 1;
origin = "{0, 23}";
target = "{1, 3}";
type = Align;
options = 4;
},
{
horizontal = 1;
origin = "{1, 3}";
target = "{0, 8}";
type = Align;
options = 4;
},
{
horizontal = 1;
origin = "{0, 0}";
target = "{0, 17}";
other1 = "{0, 19}";
type = Interpolate;
},
{
horizontal = 1;
origin = "{0, 19}";
target = "{0, 16}";
type = Align;
options = 4;
},
{
horizontal = 1;
origin = "{0, 16}";
target = "{0, 12}";
type = Align;
options = 4;
},
{
horizontal = 1;
origin = "{0, 12}";
target = "{0, 9}";
type = TTStem;
options = 4;
},
{
horizontal = 1;
origin = "{0, 9}";
target = "{1, 1}";
type = Align;
options = 4;
},
{
horizontal = 1;
origin = "{1, 1}";
target = "{0, 22}";
type = Align;
options = 4;
}
);
layerId = "83692D61-586C-413E-9B5A-1AF652750951";
paths = (
{
closed = 1;
nodes = (
"218 -20 LINE",
"218 206 LINE",
"342 206 LINE",
"342 -20 LINE",
"418 -20 LINE",
"418 206 LINE",
"520 206 LINE",
"520 276 LINE",
"418 276 LINE",
"418 456 LINE",
"520 456 LINE",
"520 526 LINE",
"418 526 LINE",
"418 740 LINE",
"342 740 LINE",
"342 526 LINE",
"218 526 LINE",
"218 740 LINE",
"142 740 LINE",
"142 526 LINE",
"40 526 LINE",
"40 456 LINE",
"142 456 LINE",
"142 276 LINE",
"40 276 LINE",
"40 206 LINE",
"142 206 LINE",
"142 -20 LINE"
);
},
{
closed = 1;
nodes = (
"218 456 LINE",
"342 456 LINE",
"342 276 LINE",
"218 276 LINE"
);
}
);
width = 560;
}
);
unicode = 0023;
},
{
glyphname = slash;
lastChange = "2018-09-07 16:50:24 +0000";
layers = (
{
hints = (
{
horizontal = 1;
origin = "{0, 0}";
type = Anchor;
},
{
horizontal = 1;
origin = "{0, 2}";
type = Anchor;
}
);
layerId = "83692D61-586C-413E-9B5A-1AF652750951";
paths = (
{
closed = 1;
nodes = (
"158 -160 LINE",
"480 800 LINE",
"404 800 LINE",
"82 -160 LINE"
);
}
);
width = 560;
}
);
unicode = 002F;
},
{
glyphname = backslash;
lastChange = "2018-09-07 16:50:28 +0000";
layers = (
{
hints = (
{
horizontal = 1;
origin = "{0, 1}";
type = Anchor;
},
{
horizontal = 1;
origin = "{0, 3}";
type = Anchor;
}
);
layerId = "83692D61-586C-413E-9B5A-1AF652750951";
paths = (
{
closed = 1;
nodes = (
"483 -160 LINE",
"162 800 LINE",
"77 800 LINE",
"399 -160 LINE"
);
}
);
width = 560;
},
{
associatedMasterId = "83692D61-586C-413E-9B5A-1AF652750951";
layerId = "D1782013-A2CC-4C52-A25F-86B78A6BE938";
name = "Jan 4 18, 16:13";
paths = (
{
closed = 1;
nodes = (
"483 -80 LINE",
"163 720 LINE",
"77 720 LINE",
"397 -80 LINE"
);
}
);
width = 560;
}
);
unicode = 005C;
},
{
color = 7;
glyphname = parenleft;
lastChange = "2018-06-14 16:37:16 +0000";
layers = (
{
background = {
paths = (
{
closed = 1;
nodes = (
"480 800 LINE",
"320 800 LINE",
"320 720 LINE",
"480 720 LINE"
);
},
{
closed = 1;
nodes = (
"320 720 LINE",
"240 720 LINE",
"240 560 LINE",
"320 560 LINE"
);
},
{
closed = 1;
nodes = (
"240 560 LINE",
"160 560 LINE",
"160 80 LINE",
"240 80 LINE"
);
},
{
closed = 1;
nodes = (
"320 -80 LINE",
"320 80 LINE",
"240 80 LINE",
"240 -80 LINE"
);
},
{
closed = 1;
nodes = (
"480 -160 LINE",
"480 -80 LINE",
"320 -80 LINE",
"320 -160 LINE"
);
}
);
};
components = (
{
name = _part.paren;
},
{
name = _part.paren;
transform = "{1, 0, 0, -1, 0, 640}";
}
);
layerId = "83692D61-586C-413E-9B5A-1AF652750951";
width = 560;
}
);
unicode = 0028;
},
{
glyphname = bracketleft;
lastChange = "2018-09-07 16:50:36 +0000";
layers = (
{
hints = (
{
horizontal = 1;
origin = "{0, 7}";
target = "{0, 2}";
type = TTStem;
options = 4;
},
{
horizontal = 1;
origin = "{0, 6}";
target = "{0, 3}";
type = TTStem;
options = 4;
}
);
layerId = "83692D61-586C-413E-9B5A-1AF652750951";
paths = (
{
closed = 1;
nodes = (
"480 -160 LINE",
"480 -90 LINE",
"240 -90 LINE",
"240 730 LINE",
"480 730 LINE",
"480 800 LINE",
"160 800 LINE",
"160 -160 LINE"
);
}
);
width = 560;
}
);
unicode = 005B;
},
{
glyphname = bracketright;
lastChange = "2018-09-07 16:50:40 +0000";
layers = (
{
hints = (
{
horizontal = 1;
origin = "{0, 1}";
target = "{0, 4}";
type = TTStem;
options = 4;
},
{
horizontal = 1;
origin = "{0, 0}";
target = "{0, 5}";
type = TTStem;
options = 4;
}
);
layerId = "83692D61-586C-413E-9B5A-1AF652750951";
paths = (
{
closed = 1;
nodes = (
"400 -160 LINE",
"400 800 LINE",
"80 800 LINE",
"80 730 LINE",
"320 730 LINE",
"320 -90 LINE",
"80 -90 LINE",
"80 -160 LINE"
);
}
);
width = 560;
}
);
unicode = 005D;
},
{
glyphname = hyphen;
lastChange = "2018-09-10 14:19:50 +0000";
layers = (
{
hints = (
{
horizontal = 1;
origin = "{0, 3}";
target = "{0, 2}";
type = TTStem;
options = 4;
},
{
horizontal = 1;
origin = "{0, 3}";
type = Anchor;
}
);
layerId = "83692D61-586C-413E-9B5A-1AF652750951";
paths = (
{
closed = 1;
nodes = (
"480 320 LINE",
"480 390 LINE",
"80 390 LINE",
"80 320 LINE"
);
}
);
width = 560;
}
);
unicode = 002D;
},
{
glyphname = endash;
lastChange = "2018-09-10 14:19:47 +0000";
layers = (
{
hints = (
{
horizontal = 1;
origin = "{0, 3}";
target = "{0, 2}";
type = TTStem;
options = 4;
},
{
horizontal = 1;
origin = "{0, 3}";
type = Anchor;
}
);
layerId = "83692D61-586C-413E-9B5A-1AF652750951";
paths = (
{
closed = 1;
nodes = (
"560 320 LINE",
"560 390 LINE",
"0 390 LINE",
"0 320 LINE"
);
}
);
width = 560;
}
);
unicode = 2013;
},
{
glyphname = emdash;
lastChange = "2018-09-10 14:17:03 +0000";
layers = (
{
hints = (
{
horizontal = 1;
origin = "{0, 3}";
type = Anchor;
},
{
horizontal = 1;
origin = "{0, 3}";
target = "{0, 2}";
type = TTStem;
options = 4;
}
);
layerId = "83692D61-586C-413E-9B5A-1AF652750951";
paths = (
{
closed = 1;
nodes = (
"560 320 LINE",
"560 390 LINE",
"0 390 LINE",
"0 320 LINE"
);
}
);
width = 560;
}
);
unicode = 2014;
},
{
glyphname = underscore;
lastChange = "2018-09-10 14:20:20 +0000";
layers = (
{
hints = (
{
horizontal = 1;
origin = "{0, 1}";
target = "{0, 0}";
type = TTStem;
options = 4;
},
{
horizontal = 1;
origin = "{0, 1}";
type = Anchor;
}
);
layerId = "83692D61-586C-413E-9B5A-1AF652750951";
paths = (
{
closed = 1;
nodes = (
"80 72 LINE",
"80 0 LINE",
"480 0 LINE",
"480 72 LINE"
);
}
);
width = 560;
}
);
unicode = 005F;
},
{
glyphname = quoteright;
lastChange = "2018-09-07 16:51:10 +0000";
layers = (
{
background = {
paths = (
{
closed = 1;
nodes = (
"237 731 OFFCURVE",
"205 695 OFFCURVE",
"205 650 CURVE SMOOTH",
"205 597 OFFCURVE",
"242 568 OFFCURVE",
"302 564 CURVE",
"287 514 OFFCURVE",
"227 474 OFFCURVE",
"126 456 CURVE",
"139 394 LINE",
"299 418 OFFCURVE",
"383 494 OFFCURVE",
"383 611 CURVE SMOOTH",
"383 692 OFFCURVE",
"339 731 OFFCURVE",
"287 731 CURVE SMOOTH"
);
}
);
};
hints = (
{
horizontal = 1;
origin = "{0, 18}";
type = Anchor;
},
{
horizontal = 1;
origin = "{0, 12}";
type = Anchor;
},
{
horizontal = 1;
origin = "{0, 12}";
target = "{0, 11}";
type = TTStem;
options = 4;
}
);
layerId = "83692D61-586C-413E-9B5A-1AF652750951";
paths = (
{
closed = 1;
nodes = (
"237 731 OFFCURVE",
"205 695 OFFCURVE",
"205 647 CURVE SMOOTH",
"205 617 OFFCURVE",
"220 590 OFFCURVE",
"251 576 CURVE SMOOTH",
"271 567 OFFCURVE",
"282 557 OFFCURVE",
"282 544 CURVE SMOOTH",
"282 511 OFFCURVE",
"227 476 OFFCURVE",
"126 456 CURVE",
"139 394 LINE",
"299 418 OFFCURVE",
"383 494 OFFCURVE",
"383 611 CURVE SMOOTH",
"383 692 OFFCURVE",
"339 731 OFFCURVE",
"287 731 CURVE SMOOTH"
);
}
);
width = 560;
},
{
associatedMasterId = "83692D61-586C-413E-9B5A-1AF652750951";
background = {
paths = (
{
closed = 1;
nodes = (
"400 480 LINE",
"400 720 LINE",
"240 720 LINE",
"240 560 LINE",
"320 560 LINE",
"320 480 LINE"
);
},
{
closed = 1;
nodes = (
"320 400 LINE",
"320 480 LINE",
"160 480 LINE",
"160 400 LINE"
);
}
);
};
layerId = "5BA9B940-4A38-47DF-8D31-B576CD5004BD";
name = "Jan 26 18, 11:59";
paths = (
{
closed = 1;
nodes = (
"299 418 OFFCURVE",
"383 494 OFFCURVE",
"383 611 CURVE SMOOTH",
"383 692 OFFCURVE",
"339 731 OFFCURVE",
"287 731 CURVE SMOOTH",
"237 731 OFFCURVE",
"205 695 OFFCURVE",
"205 650 CURVE SMOOTH",
"205 593 OFFCURVE",
"248 564 OFFCURVE",
"317 564 CURVE SMOOTH",
"343 564 LINE",
"306 632 LINE",
"306 590 LINE SMOOTH",
"306 528 OFFCURVE",
"244 477 OFFCURVE",
"126 456 CURVE",
"139 394 LINE"
);
}
);
width = 560;
}
);
unicode = 2019;
},
{
glyphname = quotesingle;
lastChange = "2018-09-07 16:51:05 +0000";
layers = (
{
hints = (
{
horizontal = 1;
origin = "{0, 2}";
type = Anchor;
},
{
horizontal = 1;
origin = "{0, 3}";
type = Anchor;
}
);
layerId = "83692D61-586C-413E-9B5A-1AF652750951";
paths = (
{
closed = 1;
nodes = (
"312 400 LINE",
"346 720 LINE",
"214 720 LINE",
"248 400 LINE"
);
}
);
width = 560;
}
);
unicode = 0027;
},
{
color = 3;
glyphname = exclam_equal.liga;
lastChange = "2018-01-05 14:39:35 +0000";
layers = (
{
components = (
{
name = slash;
transform = "{1, 0, 0, 1, 257, 0}";
}
);
layerId = "83692D61-586C-413E-9B5A-1AF652750951";
paths = (
{
closed = 1;
nodes = (
"1080 404 LINE",
"1080 476 LINE",
"40 476 LINE",
"40 404 LINE"
);
},
{
closed = 1;
nodes = (
"1080 244 LINE",
"1080 316 LINE",
"40 316 LINE",
"40 244 LINE"
);
}
);
width = 1120;
}
);
},
{
glyphname = .notdef;
lastChange = "2018-09-10 14:20:33 +0000";
layers = (
{
hints = (
{
horizontal = 1;
origin = "{0, 3}";
target = "{1, 3}";
type = TTStem;
options = 4;
},
{
horizontal = 1;
origin = "{0, 2}";
target = "{1, 0}";
type = TTStem;
options = 4;
}
);
layerId = "83692D61-586C-413E-9B5A-1AF652750951";
paths = (
{
closed = 1;
nodes = (
"480 -160 LINE",
"480 800 LINE",
"80 800 LINE",
"80 -160 LINE"
);
},
{
closed = 1;
nodes = (
"160 720 LINE",
"400 720 LINE",
"400 -80 LINE",
"160 -80 LINE"
);
}
);
width = 560;
}
);
},
{
glyphname = dollar;
lastChange = "2018-09-10 14:21:13 +0000";
layers = (
{
background = {
paths = (
{
closed = 1;
nodes = (
"320 880 LINE",
"240 880 LINE",
"240 720 LINE",
"160 720 LINE",
"160 640 LINE",
"400 640 LINE",
"400 720 LINE",
"320 720 LINE"
);
},
{
closed = 1;
nodes = (
"80 480 LINE",
"160 480 LINE",
"160 640 LINE",
"80 640 LINE"
);
},
{
closed = 1;
nodes = (
"480 640 LINE",
"400 640 LINE",
"400 560 LINE",
"480 560 LINE"
);
},
{
closed = 1;
nodes = (
"240 480 LINE",
"160 480 LINE",
"160 400 LINE",
"240 400 LINE"
);
},
{
closed = 1;
nodes = (
"320 400 LINE",
"240 400 LINE",
"240 320 LINE",
"320 320 LINE"
);
},
{
closed = 1;
nodes = (
"400 320 LINE",
"320 320 LINE",
"320 240 LINE",
"400 240 LINE"
);
},
{
closed = 1;
nodes = (
"480 80 LINE",
"480 240 LINE",
"400 240 LINE",
"400 80 LINE"
);
},
{
closed = 1;
nodes = (
"80 80 LINE",
"160 80 LINE",
"160 160 LINE",
"80 160 LINE"
);
},
{
closed = 1;
nodes = (
"160 80 LINE",
"160 0 LINE",
"240 0 LINE",
"240 -160 LINE",
"320 -160 LINE",
"320 0 LINE",
"400 0 LINE",
"400 80 LINE"
);
}
);
};
hints = (
{
horizontal = 1;
origin = "{0, 31, 1, 3}";
target = "{0, 24}";
type = TTStem;
options = 4;
},
{
horizontal = 1;
origin = "{0, 15, 2, 1}";
target = "{0, 8}";
type = TTStem;
options = 4;
},
{
horizontal = 1;
origin = "{0, 31, 1, 3}";
target = "{0, 8}";
other1 = "{0, 21, 0}";
type = Interpolate;
options = 4;
},
{
horizontal = 1;
origin = "{0, 24}";
target = "{0, 15, 2, 1}";
other1 = "{0, 5, 0}";
type = Interpolate;
options = 4;
},
{
horizontal = 1;
origin = "{0, 15, 2, 1}";
target = "{2, 1}";
type = TTStem;
stem = -1;
},
{
horizontal = 1;
origin = "{0, 31, 1, 3}";
target = "{1, 3}";
type = TTStem;
stem = -1;
}
);
layerId = "83692D61-586C-413E-9B5A-1AF652750951";
paths = (
{
closed = 1;
nodes = (
"390 -9 OFFCURVE",
"458 80 OFFCURVE",
"458 172 CURVE SMOOTH",
"458 380 OFFCURVE",
"187 396 OFFCURVE",
"187 556 CURVE SMOOTH",
"187 605 OFFCURVE",
"221 658 OFFCURVE",
"292 658 CURVE SMOOTH",
"335 658 OFFCURVE",
"380 646 OFFCURVE",
"429 623 CURVE",
"458 683 LINE",
"420 704 OFFCURVE",
"356 730 OFFCURVE",
"284 730 CURVE SMOOTH",
"167 730 OFFCURVE",
"105 641 OFFCURVE",
"105 550 CURVE SMOOTH",
"105 353 OFFCURVE",
"376 325 OFFCURVE",
"376 170 CURVE SMOOTH",
"376 104 OFFCURVE",
"329 63 OFFCURVE",
"255 63 CURVE SMOOTH",
"207 63 OFFCURVE",
"152 83 OFFCURVE",
"113 104 CURVE",
"86 43 LINE",
"138 12 OFFCURVE",
"192 -9 OFFCURVE",
"260 -9 CURVE SMOOTH"
);
},
{
closed = 1;
nodes = (
"312 -160 LINE",
"312 0 LINE",
"232 0 LINE",
"232 -160 LINE"
);
},
{
closed = 1;
nodes = (
"324 720 LINE",
"324 880 LINE",
"244 880 LINE",
"244 720 LINE"
);
}
);
width = 560;
}
);
unicode = 0024;
},
{
glyphname = plus;
lastChange = "2018-09-07 16:51:44 +0000";
layers = (
{
hints = (
{
horizontal = 1;
origin = "{0, 10}";
type = Anchor;
},
{
horizontal = 1;
origin = "{0, 10}";
target = "{0, 1}";
type = Align;
options = 4;
},
{
horizontal = 1;
origin = "{0, 1}";
target = "{0, 4}";
type = TTStem;
options = 4;
},
{
horizontal = 1;
origin = "{0, 4}";
target = "{0, 7}";
type = Align;
options = 4;
},
{
horizontal = 1;
origin = "{0, 7}";
target = "{0, 6}";
type = TTStem;
stem = -1;
},
{
horizontal = 1;
origin = "{0, 10}";
target = "{0, 11}";
type = TTStem;
stem = -1;
}
);
layerId = "83692D61-586C-413E-9B5A-1AF652750951";
paths = (
{
closed = 1;
nodes = (
"320 100 LINE",
"320 324 LINE",
"540 324 LINE",
"540 396 LINE",
"320 396 LINE",
"320 620 LINE",
"240 620 LINE",
"240 396 LINE",
"20 396 LINE",
"20 324 LINE",
"240 324 LINE",
"240 100 LINE"
);
}
);
width = 560;
}
);
unicode = 002B;
},
{
glyphname = minus;
lastChange = "2018-09-07 16:51:48 +0000";
layers = (
{
hints = (
{
horizontal = 1;
origin = "{0, 3}";
type = Anchor;
},
{
horizontal = 1;
origin = "{0, 3}";
target = "{0, 2}";
type = TTStem;
options = 4;
}
);
layerId = "83692D61-586C-413E-9B5A-1AF652750951";
paths = (
{
closed = 1;
nodes = (
"540 324 LINE",
"540 396 LINE",
"20 396 LINE",
"20 324 LINE"
);
}
);
width = 560;
}
);
unicode = 2212;
},
{
glyphname = equal;
lastChange = "2018-09-10 14:21:34 +0000";
layers = (
{
hints = (
{
horizontal = 1;
origin = "{1, 2}";
type = Anchor;
},
{
horizontal = 1;
origin = "{1, 2}";
target = "{0, 3}";
type = TTStem;
stem = -1;
},
{
horizontal = 1;
origin = "{0, 3}";
target = "{0, 2}";
type = TTStem;
options = 4;
},
{
horizontal = 1;
origin = "{1, 2}";
target = "{1, 3}";
type = TTStem;
options = 4;
}
);
layerId = "83692D61-586C-413E-9B5A-1AF652750951";
paths = (
{
closed = 1;
nodes = (
"540 404 LINE",
"540 476 LINE",
"20 476 LINE",
"20 404 LINE"
);
},
{
closed = 1;
nodes = (
"540 244 LINE",
"540 316 LINE",
"20 316 LINE",
"20 244 LINE"
);
}
);
width = 560;
}
);
unicode = 003D;
},
{
glyphname = greater;
lastChange = "2018-01-08 10:19:11 +0000";
layers = (
{
background = {
components = (
{
name = pixel;
transform = "{1, 0, 0, 1, 160, 560}";
},
{
name = pixel;
transform = "{1, 0, 0, 1, 160, 80}";
},
{
name = pixel;
transform = "{1, 0, 0, 1, 240, 160}";
},
{
name = pixel;
transform = "{1, 0, 0, 1, 320, 240}";
},
{
name = pixel;
transform = "{1, 0, 0, 1, 400, 320}";
},
{
name = pixel;
transform = "{1, 0, 0, 1, 320, 400}";
},
{
name = pixel;
transform = "{1, 0, 0, 1, 240, 480}";
}
);
};
layerId = "83692D61-586C-413E-9B5A-1AF652750951";
paths = (
{
closed = 1;
nodes = (
"80 -36 LINE",
"497 342 LINE",
"480 379 LINE",
"436 379 LINE",
"80 58 LINE"
);
},
{
closed = 1;
nodes = (
"436 330 LINE",
"497 342 LINE",
"497 379 LINE",
"80 757 LINE",
"80 651 LINE"
);
}
);
width = 560;
}
);
unicode = 003E;
},
{
glyphname = asciitilde;
lastChange = "2018-09-07 16:52:31 +0000";
layers = (
{
background = {
paths = (
{
closed = 1;
nodes = (
"80 240 LINE",
"72 362 OFFCURVE",
"101 402 OFFCURVE",
"160 402 CURVE SMOOTH",
"243 402 OFFCURVE",
"251 242 OFFCURVE",
"400 242 CURVE SMOOTH",
"497 242 OFFCURVE",
"565 309 OFFCURVE",
"560 480 CURVE",
"488 480 LINE",
"493 356 OFFCURVE",
"457 318 OFFCURVE",
"400 318 CURVE SMOOTH",
"313 318 OFFCURVE",
"303 478 OFFCURVE",
"160 478 CURVE SMOOTH",
"62 478 OFFCURVE",
"0 411 OFFCURVE",
"8 240 CURVE"
);
}
);
};
hints = (
{
horizontal = 1;
origin = "{0, 6}";
type = Anchor;
},
{
horizontal = 1;
origin = "{0, 6}";
target = "{0, 13}";
type = TTStem;
options = 4;
},
{
horizontal = 1;
origin = "{0, 6}";
target = "{0, 3}";
type = TTStem;
stem = -1;
},
{
horizontal = 1;
origin = "{0, 3}";
target = "{0, 16}";
type = TTStem;
options = 4;
},
{
horizontal = 1;
origin = "{0, 16}";
target = "{0, 10}";
type = Align;
},
{
horizontal = 1;
origin = "{0, 6}";
target = "{0, 0}";
type = Align;
}
);
layerId = "83692D61-586C-413E-9B5A-1AF652750951";
paths = (
{
closed = 1;
nodes = (
"82 244 LINE",
"76 366 OFFCURVE",
"101 404 OFFCURVE",
"154 404 CURVE SMOOTH",
"241 404 OFFCURVE",
"251 242 OFFCURVE",
"396 242 CURVE SMOOTH",
"497 242 OFFCURVE",
"561 305 OFFCURVE",
"554 476 CURVE",
"480 476 LINE",
"484 352 OFFCURVE",
"455 316 OFFCURVE",
"406 316 CURVE SMOOTH",
"317 316 OFFCURVE",
"310 478 OFFCURVE",
"164 478 CURVE SMOOTH",
"62 478 OFFCURVE",
"0 415 OFFCURVE",
"8 244 CURVE"
);
}
);
width = 560;
}
);
unicode = 007E;
},
{
glyphname = asciicircum;
lastChange = "2018-09-07 16:52:43 +0000";
layers = (
{
hints = (
{
horizontal = 1;
origin = "{0, 6}";
type = Anchor;
},
{
horizontal = 1;
origin = "{0, 6}";
target = "{0, 3}";
type = Align;
options = 4;
},
{
horizontal = 1;
origin = "{0, 0}";
type = Anchor;
},
{
horizontal = 1;
origin = "{0, 0}";
target = "{0, 4, 0, 6}";
type = Align;
options = 4;
}
);
layerId = "83692D61-586C-413E-9B5A-1AF652750951";
paths = (
{
closed = 1;
nodes = (
"242 640 LINE",
"322 640 LINE",
"482 160 LINE",
"398 160 LINE",
"260 600 LINE",
"296 600 LINE",
"158 160 LINE",
"82 160 LINE"
);
}
);
width = 560;
}
);
unicode = 005E;
},
{
color = 7;
glyphname = percent;
lastChange = "2018-01-08 10:26:04 +0000";
layers = (
{
background = {
components = (
{
name = pixel;
transform = "{1, 0, 0, 1, 0, 80}";
},
{
name = pixel;
transform = "{1, 0, 0, 1, 80, 160}";
},
{
name = pixel;
transform = "{1, 0, 0, 1, 160, 240}";
},
{
name = pixel;
transform = "{1, 0, 0, 1, 240, 320}";
},
{
name = pixel;
transform = "{1, 0, 0, 1, 320, 400}";
},
{
name = pixel;
transform = "{1, 0, 0, 1, 400, 480}";
},
{
name = pixel;
transform = "{1, 0, 0, 1, 480, 560}";
},
{
name = pixel;
transform = "{1, 0, 0, 1, 160, 560}";
},
{
name = pixel;
transform = "{1, 0, 0, 1, 80, 640}";
},
{
name = pixel;
transform = "{1, 0, 0, 1, 0, 560}";
},
{
name = pixel;
transform = "{1, 0, 0, 1, 320, 80}";
},
{
name = pixel;
transform = "{1, 0, 0, 1, 400, 0}";
},
{
name = pixel;
transform = "{1, 0, 0, 1, 480, 80}";
},
{
name = pixel;
transform = "{1, 0, 0, 1, 0, 480}";
},
{
name = pixel;
transform = "{1, 0, 0, 1, 80, 400}";
},
{
name = pixel;
transform = "{1, 0, 0, 1, 160, 480}";
},
{
name = pixel;
transform = "{1, 0, 0, 1, 320, 160}";
},
{
name = pixel;
transform = "{1, 0, 0, 1, 400, 240}";
},
{
name = pixel;
transform = "{1, 0, 0, 1, 480, 160}";
}
);
};
components = (
{
name = _part.percent;
transform = "{1, 0, 0, 1, 300, 0}";
},
{
name = _part.percent;
transform = "{1, 0, 0, 1, 20, 419}";
}
);
layerId = "83692D61-586C-413E-9B5A-1AF652750951";
paths = (
{
closed = 1;
nodes = (
"94 80 LINE",
"550 640 LINE",
"466 640 LINE",
"10 80 LINE"
);
}
);
width = 560;
}
);
unicode = 0025;
},
{
glyphname = fullBlock;
lastChange = "2018-09-13 08:14:54 +0000";
layers = (
{
hints = (
{
horizontal = 1;
origin = "{0, 2}";
type = Anchor;
},
{
horizontal = 1;
origin = "{0, 3}";
type = Anchor;
}
);
layerId = "83692D61-586C-413E-9B5A-1AF652750951";
paths = (
{
closed = 1;
nodes = (
"560 -160 LINE",
"560 800 LINE",
"0 800 LINE",
"0 -160 LINE"
);
}
);
width = 560;
}
);
unicode = 2588;
},
{
glyphname = at;
lastChange = "2018-09-10 14:21:55 +0000";
layers = (
{
background = {
components = (
{
name = pixel;
transform = "{1, 0, 0, 1, 160, 560}";
},
{
name = pixel;
transform = "{1, 0, 0, 1, 240, 560}";
},
{
name = pixel;
transform = "{1, 0, 0, 1, 320, 560}";
},
{
name = pixel;
transform = "{1, 0, 0, 1, 80, 480}";
},
{
name = pixel;
transform = "{1, 0, 0, 1, 400, 480}";
},
{
name = pixel;
transform = "{1, 0, 0, 1, 400, 400}";
},
{
name = pixel;
transform = "{1, 0, 0, 1, 400, 240}";
},
{
name = pixel;
transform = "{1, 0, 0, 1, 400, 320}";
},
{
name = pixel;
transform = "{1, 0, 0, 1, 240, 320}";
},
{
name = pixel;
transform = "{1, 0, 0, 1, 80, 400}";
},
{
name = pixel;
transform = "{1, 0, 0, 1, 80, 320}";
},
{
name = pixel;
transform = "{1, 0, 0, 1, 80, 240}";
},
{
name = pixel;
transform = "{1, 0, 0, 1, 80, 160}";
},
{
name = pixel;
transform = "{1, 0, 0, 1, 80, 80}";
},
{
name = pixel;
transform = "{1, 0, 0, 1, 80, 0}";
},
{
name = pixel;
transform = "{1, 0, 0, 1, 160, -80}";
},
{
name = pixel;
transform = "{1, 0, 0, 1, 240, -80}";
},
{
name = pixel;
transform = "{1, 0, 0, 1, 320, -80}";
},
{
name = pixel;
transform = "{1, 0, 0, 1, 240, 240}";
},
{
name = pixel;
transform = "{1, 0, 0, 1, 240, 160}";
},
{
name = pixel;
transform = "{1, 0, 0, 1, 400, 160}";
},
{
name = pixel;
transform = "{1, 0, 0, 1, 400, -80}";
},
{
name = pixel;
transform = "{1, 0, 0, 1, 240, 80}";
},
{
name = pixel;
transform = "{1, 0, 0, 1, 320, 80}";
},
{
name = pixel;
transform = "{1, 0, 0, 1, 400, 80}";
},
{
name = pixel;
transform = "{1, 0, 0, 1, 320, 320}";
}
);
};
hints = (
{
horizontal = 1;
origin = "{0, 45}";
target = "{0, 12}";
type = TTStem;
options = 4;
},
{
horizontal = 1;
origin = "{0, 51}";
target = "{0, 6}";
type = TTStem;
options = 4;
},
{
horizontal = 1;
origin = "{0, 38}";
target = "{0, 19}";
type = TTStem;
options = 4;
},
{
horizontal = 1;
origin = "{0, 32}";
target = "{0, 25}";
type = TTStem;
options = 4;
},
{
horizontal = 1;
origin = "{0, 51}";
type = Anchor;
},
{
horizontal = 1;
origin = "{0, 38}";
type = Anchor;
},
{
horizontal = 1;
origin = "{0, 32}";
type = Anchor;
}
);
layerId = "83692D61-586C-413E-9B5A-1AF652750951";
paths = (
{
closed = 1;
nodes = (
"372 -91 OFFCURVE",
"418 -82 OFFCURVE",
"465 -70 CURVE",
"455 -6 LINE",
"413 -15 OFFCURVE",
"368 -21 OFFCURVE",
"330 -21 CURVE SMOOTH",
"212 -21 OFFCURVE",
"150 53 OFFCURVE",
"150 265 CURVE SMOOTH",
"150 514 OFFCURVE",
"200 581 OFFCURVE",
"285 581 CURVE SMOOTH",
"361 581 OFFCURVE",
"400 544 OFFCURVE",
"400 456 CURVE SMOOTH",
"400 211 LINE",
"388 209 OFFCURVE",
"375 208 OFFCURVE",
"365 208 CURVE SMOOTH",
"326 208 OFFCURVE",
"311 219 OFFCURVE",
"311 280 CURVE SMOOTH",
"311 337 OFFCURVE",
"326 352 OFFCURVE",
"368 352 CURVE SMOOTH",
"391 352 OFFCURVE",
"415 350 OFFCURVE",
"442 348 CURVE",
"442 414 LINE",
"418 417 OFFCURVE",
"387 420 OFFCURVE",
"356 420 CURVE SMOOTH",
"267 420 OFFCURVE",
"231 365 OFFCURVE",
"231 280 CURVE SMOOTH",
"231 178 OFFCURVE",
"273 140 OFFCURVE",
"360 140 CURVE SMOOTH",
"399 140 OFFCURVE",
"444 148 OFFCURVE",
"480 159 CURVE",
"480 451 LINE SMOOTH",
"480 567 OFFCURVE",
"425 651 OFFCURVE",
"289 651 CURVE SMOOTH",
"146 651 OFFCURVE",
"70 530 OFFCURVE",
"70 265 CURVE SMOOTH",
"70 4 OFFCURVE",
"174 -91 OFFCURVE",
"326 -91 CURVE SMOOTH"
);
}
);
width = 560;
}
);
unicode = 0040;
},
{
color = 0;
glyphname = ampersand;
lastChange = "2018-09-10 14:22:10 +0000";
layers = (
{
background = {
paths = (
{
closed = 1;
nodes = (
"400 400 LINE",
"400 640 LINE",
"320 640 LINE",
"320 400 LINE"
);
},
{
closed = 1;
nodes = (
"320 0 LINE",
"320 80 LINE",
"160 80 LINE",
"160 0 LINE"
);
},
{
closed = 1;
nodes = (
"160 80 LINE",
"160 320 LINE",
"80 320 LINE",
"80 80 LINE"
);
},
{
closed = 1;
nodes = (
"240 320 LINE",
"240 400 LINE",
"160 400 LINE",
"160 320 LINE"
);
},
{
closed = 1;
nodes = (
"320 240 LINE",
"320 320 LINE",
"240 320 LINE",
"240 240 LINE"
);
},
{
closed = 1;
nodes = (
"400 160 LINE",
"400 240 LINE",
"320 240 LINE",
"320 160 LINE"
);
},
{
closed = 1;
nodes = (
"480 80 LINE",
"480 160 LINE",
"400 160 LINE",
"400 80 LINE"
);
},
{
closed = 1;
nodes = (
"560 0 LINE",
"560 80 LINE",
"480 80 LINE",
"480 0 LINE"
);
},
{
closed = 1;
nodes = (
"160 400 LINE",
"160 640 LINE",
"80 640 LINE",
"80 400 LINE"
);
},
{
closed = 1;
nodes = (
"480 240 LINE",
"480 320 LINE",
"400 320 LINE",
"400 240 LINE"
);
},
{
closed = 1;
nodes = (
"560 320 LINE",
"560 400 LINE",
"480 400 LINE",
"480 320 LINE"
);
},
{
closed = 1;
nodes = (
"320 640 LINE",
"320 720 LINE",
"160 720 LINE",
"160 640 LINE"
);
}
);
};
hints = (
{
horizontal = 1;
origin = "{0, 20}";
target = "{0, 7}";
type = TTStem;
options = 4;
},
{
horizontal = 1;
origin = "{1, 19}";
target = "{1, 6}";
type = TTStem;
options = 4;
},
{
horizontal = 1;
origin = "{0, 27}";
type = Anchor;
},
{
horizontal = 1;
origin = "{2, 2}";
type = Anchor;
},
{
horizontal = 1;
origin = "{2, 0}";
type = Anchor;
}
);
layerId = "83692D61-586C-413E-9B5A-1AF652750951";
paths = (
{
closed = 1;
nodes = (
"588 0 LINE",
"280 299 LINE SMOOTH",
"187 389 OFFCURVE",
"152 467 OFFCURVE",
"152 544 CURVE SMOOTH",
"152 610 OFFCURVE",
"188 650 OFFCURVE",
"240 650 CURVE SMOOTH",
"286 650 OFFCURVE",
"320 616 OFFCURVE",
"320 546 CURVE SMOOTH",
"320 485 OFFCURVE",
"292 420 OFFCURVE",
"253 357 CURVE",
"303 326 LINE",
"366 402 OFFCURVE",
"404 477 OFFCURVE",
"404 552 CURVE SMOOTH",
"404 651 OFFCURVE",
"348 720 OFFCURVE",
"244 720 CURVE SMOOTH",
"152 720 OFFCURVE",
"72 653 OFFCURVE",
"72 539 CURVE SMOOTH",
"72 432 OFFCURVE",
"120 352 OFFCURVE",
"229 245 CURVE SMOOTH",
"480 0 LINE"
);
},
{
closed = 1;
nodes = (
"297 -9 OFFCURVE",
"332 0 OFFCURVE",
"354 10 CURVE",
"339 73 LINE",
"314 67 OFFCURVE",
"290 63 OFFCURVE",
"267 63 CURVE SMOOTH",
"190 63 OFFCURVE",
"147 120 OFFCURVE",
"147 243 CURVE SMOOTH",
"147 264 OFFCURVE",
"149 286 OFFCURVE",
"151 307 CURVE",
"79 326 LINE",
"72 305 OFFCURVE",
"67 264 OFFCURVE",
"67 228 CURVE SMOOTH",
"67 63 OFFCURVE",
"149 -9 OFFCURVE",
"263 -9 CURVE SMOOTH"
);
},
{
closed = 1;
nodes = (
"456 240 LINE",
"561 400 LINE",
"476 400 LINE",
"371 240 LINE"
);
}
);
width = 560;
},
{
associatedMasterId = "83692D61-586C-413E-9B5A-1AF652750951";
background = {
paths = (
{
closed = 1;
nodes = (
"400 400 LINE",
"400 640 LINE",
"320 640 LINE",
"320 400 LINE"
);
},
{
closed = 1;
nodes = (
"320 0 LINE",
"320 80 LINE",
"160 80 LINE",
"160 0 LINE"
);
},
{
closed = 1;
nodes = (
"160 80 LINE",
"160 320 LINE",
"80 320 LINE",
"80 80 LINE"
);
},
{
closed = 1;
nodes = (
"240 320 LINE",
"240 400 LINE",
"160 400 LINE",
"160 320 LINE"
);
},
{
closed = 1;
nodes = (
"320 240 LINE",
"320 320 LINE",
"240 320 LINE",
"240 240 LINE"
);
},
{
closed = 1;
nodes = (
"400 160 LINE",
"400 240 LINE",
"320 240 LINE",
"320 160 LINE"
);
},
{
closed = 1;
nodes = (
"480 80 LINE",
"480 160 LINE",
"400 160 LINE",
"400 80 LINE"
);
},
{
closed = 1;
nodes = (
"560 0 LINE",
"560 80 LINE",
"480 80 LINE",
"480 0 LINE"
);
},
{
closed = 1;
nodes = (
"160 400 LINE",
"160 640 LINE",
"80 640 LINE",
"80 400 LINE"
);
},
{
closed = 1;
nodes = (
"480 240 LINE",
"480 320 LINE",
"400 320 LINE",
"400 240 LINE"
);
},
{
closed = 1;
nodes = (
"560 320 LINE",
"560 400 LINE",
"480 400 LINE",
"480 320 LINE"
);
},
{
closed = 1;
nodes = (
"320 640 LINE",
"320 720 LINE",
"160 720 LINE",
"160 640 LINE"
);
}
);
};
layerId = "344DF66D-6917-4E54-A369-84072C6A01F4";
name = "May 11 18, 18:03";
paths = (
{
closed = 1;
nodes = (
"558 72 LINE",
"433 153 OFFCURVE",
"337 234 OFFCURVE",
"273 299 CURVE SMOOTH",
"176 399 OFFCURVE",
"152 467 OFFCURVE",
"152 544 CURVE SMOOTH",
"152 610 OFFCURVE",
"188 650 OFFCURVE",
"240 650 CURVE SMOOTH",
"294 650 OFFCURVE",
"320 620 OFFCURVE",
"320 560 CURVE SMOOTH",
"320 400 LINE",
"400 400 LINE",
"400 560 LINE SMOOTH",
"400 665 OFFCURVE",
"342 720 OFFCURVE",
"240 720 CURVE SMOOTH",
"152 720 OFFCURVE",
"72 655 OFFCURVE",
"72 539 CURVE SMOOTH",
"72 432 OFFCURVE",
"115 354 OFFCURVE",
"222 245 CURVE SMOOTH",
"292 173 OFFCURVE",
"394 92 OFFCURVE",
"516 5 CURVE"
);
},
{
closed = 1;
nodes = (
"297 -9 OFFCURVE",
"332 0 OFFCURVE",
"354 10 CURVE",
"339 73 LINE",
"314 67 OFFCURVE",
"290 63 OFFCURVE",
"267 63 CURVE SMOOTH",
"190 63 OFFCURVE",
"147 120 OFFCURVE",
"147 243 CURVE SMOOTH",
"147 264 OFFCURVE",
"149 286 OFFCURVE",
"151 307 CURVE",
"79 326 LINE",
"72 305 OFFCURVE",
"67 264 OFFCURVE",
"67 228 CURVE SMOOTH",
"67 63 OFFCURVE",
"149 -9 OFFCURVE",
"263 -9 CURVE SMOOTH"
);
},
{
closed = 1;
nodes = (
"456 240 LINE",
"561 400 LINE",
"476 400 LINE",
"371 240 LINE"
);
}
);
width = 560;
}
);
unicode = 0026;
},
{
color = 1;
glyphname = copyright;
lastChange = "2018-09-10 14:22:40 +0000";
layers = (
{
background = {
paths = (
{
closed = 1;
nodes = (
"0 160 LINE",
"80 160 LINE",
"80 240 LINE",
"0 240 LINE"
);
},
{
closed = 1;
nodes = (
"0 240 LINE",
"80 240 LINE",
"80 320 LINE",
"0 320 LINE"
);
},
{
closed = 1;
nodes = (
"0 320 LINE",
"80 320 LINE",
"80 400 LINE",
"0 400 LINE"
);
},
{
closed = 1;
nodes = (
"0 400 LINE",
"80 400 LINE",
"80 480 LINE",
"0 480 LINE"
);
},
{
closed = 1;
nodes = (
"0 480 LINE",
"80 480 LINE",
"80 560 LINE",
"0 560 LINE"
);
},
{
closed = 1;
nodes = (
"160 640 LINE",
"240 640 LINE",
"240 720 LINE",
"160 720 LINE"
);
},
{
closed = 1;
nodes = (
"240 640 LINE",
"320 640 LINE",
"320 720 LINE",
"240 720 LINE"
);
},
{
closed = 1;
nodes = (
"320 640 LINE",
"400 640 LINE",
"400 720 LINE",
"320 720 LINE"
);
},
{
closed = 1;
nodes = (
"480 480 LINE",
"560 480 LINE",
"560 560 LINE",
"480 560 LINE"
);
},
{
closed = 1;
nodes = (
"480 400 LINE",
"560 400 LINE",
"560 480 LINE",
"480 480 LINE"
);
},
{
closed = 1;
nodes = (
"480 320 LINE",
"560 320 LINE",
"560 400 LINE",
"480 400 LINE"
);
},
{
closed = 1;
nodes = (
"480 240 LINE",
"560 240 LINE",
"560 320 LINE",
"480 320 LINE"
);
},
{
closed = 1;
nodes = (
"480 160 LINE",
"560 160 LINE",
"560 240 LINE",
"480 240 LINE"
);
},
{
closed = 1;
nodes = (
"160 320 LINE",
"240 320 LINE",
"240 400 LINE",
"160 400 LINE"
);
},
{
closed = 1;
nodes = (
"160 240 LINE",
"240 240 LINE",
"240 320 LINE",
"160 320 LINE"
);
},
{
closed = 1;
nodes = (
"400 0 LINE",
"480 0 LINE",
"480 80 LINE",
"400 80 LINE"
);
},
{
closed = 1;
nodes = (
"480 80 LINE",
"560 80 LINE",
"560 160 LINE",
"480 160 LINE"
);
},
{
closed = 1;
nodes = (
"0 80 LINE",
"80 80 LINE",
"80 160 LINE",
"0 160 LINE"
);
},
{
closed = 1;
nodes = (
"240 160 LINE",
"320 160 LINE",
"320 240 LINE",
"240 240 LINE"
);
},
{
closed = 1;
nodes = (
"320 160 LINE",
"400 160 LINE",
"400 240 LINE",
"320 240 LINE"
);
},
{
closed = 1;
nodes = (
"80 0 LINE",
"160 0 LINE",
"160 80 LINE",
"80 80 LINE"
);
},
{
closed = 1;
nodes = (
"160 -80 LINE",
"240 -80 LINE",
"240 0 LINE",
"160 0 LINE"
);
},
{
closed = 1;
nodes = (
"240 -80 LINE",
"320 -80 LINE",
"320 0 LINE",
"240 0 LINE"
);
},
{
closed = 1;
nodes = (
"320 -80 LINE",
"400 -80 LINE",
"400 0 LINE",
"320 0 LINE"
);
},
{
closed = 1;
nodes = (
"80 560 LINE",
"160 560 LINE",
"160 640 LINE",
"80 640 LINE"
);
},
{
closed = 1;
nodes = (
"400 560 LINE",
"480 560 LINE",
"480 640 LINE",
"400 640 LINE"
);
},
{
closed = 1;
nodes = (
"240 400 LINE",
"320 400 LINE",
"320 480 LINE",
"240 480 LINE"
);
},
{
closed = 1;
nodes = (
"320 400 LINE",
"400 400 LINE",
"400 480 LINE",
"320 480 LINE"
);
}
);
};
hints = (
{
horizontal = 1;
origin = "{0, 5}";
target = "{1, 5}";
type = TTStem;
options = 4;
},
{
horizontal = 1;
origin = "{0, 11}";
target = "{1, 11}";
type = TTStem;
options = 4;
},
{
horizontal = 1;
origin = "{0, 11}";
type = Anchor;
},
{
horizontal = 1;
origin = "{0, 5}";
target = "{0, 11}";
other1 = "{2, 25}";
type = Interpolate;
},
{
horizontal = 1;
origin = "{0, 5}";
target = "{1, 11}";
other1 = "{2, 19}";
type = Interpolate;
},
{
horizontal = 1;
origin = "{2, 19}";
target = "{2, 12}";
type = TTStem;
options = 4;
},
{
horizontal = 1;
origin = "{2, 25}";
target = "{2, 6}";
type = TTStem;
options = 4;
}
);
layerId = "83692D61-586C-413E-9B5A-1AF652750951";
paths = (
{
closed = 1;
nodes = (
"452 -92 OFFCURVE",
"560 67 OFFCURVE",
"560 320 CURVE SMOOTH",
"560 573 OFFCURVE",
"452 732 OFFCURVE",
"280 732 CURVE SMOOTH",
"108 732 OFFCURVE",
"0 573 OFFCURVE",
"0 320 CURVE SMOOTH",
"0 67 OFFCURVE",
"108 -92 OFFCURVE",
"280 -92 CURVE SMOOTH"
);
},
{
closed = 1;
nodes = (
"145 -20 OFFCURVE",
"80 119 OFFCURVE",
"80 321 CURVE SMOOTH",
"80 523 OFFCURVE",
"145 660 OFFCURVE",
"281 660 CURVE SMOOTH",
"417 660 OFFCURVE",
"480 523 OFFCURVE",
"480 321 CURVE SMOOTH",
"480 119 OFFCURVE",
"417 -20 OFFCURVE",
"281 -20 CURVE SMOOTH"
);
},
{
closed = 1;
nodes = (
"333 160 OFFCURVE",
"368 170 OFFCURVE",
"397 184 CURVE",
"384 246 LINE",
"361 240 OFFCURVE",
"333 237 OFFCURVE",
"309 237 CURVE SMOOTH",
"251 237 OFFCURVE",
"224 266 OFFCURVE",
"224 320 CURVE SMOOTH",
"224 387 OFFCURVE",
"261 408 OFFCURVE",
"304 408 CURVE SMOOTH",
"339 408 OFFCURVE",
"365 404 OFFCURVE",
"383 400 CURVE",
"398 465 LINE",
"373 473 OFFCURVE",
"329 480 OFFCURVE",
"300 480 CURVE SMOOTH",
"203 480 OFFCURVE",
"144 422 OFFCURVE",
"144 320 CURVE SMOOTH",
"144 234 OFFCURVE",
"195 160 OFFCURVE",
"296 160 CURVE SMOOTH"
);
}
);
width = 560;
}
);
unicode = 00A9;
},
{
glyphname = bar;
lastChange = "2018-09-07 16:53:10 +0000";
layers = (
{
background = {
paths = (
{
closed = 1;
nodes = (
"158 -160 LINE",
"480 800 LINE",
"404 800 LINE",
"82 -160 LINE"
);
}
);
};
hints = (
{
horizontal = 1;
origin = "{0, 2}";
type = Anchor;
},
{
horizontal = 1;
origin = "{0, 3}";
type = Anchor;
}
);
layerId = "83692D61-586C-413E-9B5A-1AF652750951";
paths = (
{
closed = 1;
nodes = (
"320 -160 LINE",
"320 800 LINE",
"240 800 LINE",
"240 -160 LINE"
);
}
);
width = 560;
}
);
unicode = 007C;
},
{
glyphname = dieresiscomb;
lastChange = "2018-09-07 16:53:25 +0000";
layers = (
{
anchors = (
{
name = _top;
position = "{280, 560}";
},
{
name = top;
position = "{280, 800}";
}
);
background = {
paths = (
{
closed = 1;
nodes = (
"400 640 LINE",
"400 800 LINE",
"320 800 LINE",
"320 640 LINE"
);
},
{
closed = 1;
nodes = (
"160 640 LINE",
"160 800 LINE",
"80 800 LINE",
"80 640 LINE"
);
}
);
};
hints = (
{
horizontal = 1;
origin = "{0, 11}";
type = Anchor;
},
{
horizontal = 1;
origin = "{0, 11}";
target = "{1, 11}";
type = Align;
options = 4;
},
{
horizontal = 1;
origin = "{1, 11}";
target = "{1, 5}";
type = TTStem;
stem = -1;
},
{
horizontal = 1;
origin = "{1, 5}";
target = "{0, 5}";
type = Align;
options = 4;
}
);
layerId = "83692D61-586C-413E-9B5A-1AF652750951";
paths = (
{
closed = 1;
nodes = (
"218 669 OFFCURVE",
"246 699 OFFCURVE",
"246 737 CURVE",
"246 776 OFFCURVE",
"219 806 OFFCURVE",
"180 806 CURVE",
"141 806 OFFCURVE",
"114 776 OFFCURVE",
"114 737 CURVE",
"114 697 OFFCURVE",
"141 669 OFFCURVE",
"179 669 CURVE"
);
},
{
closed = 1;
nodes = (
"419 669 OFFCURVE",
"446 699 OFFCURVE",
"446 738 CURVE",
"446 778 OFFCURVE",
"419 806 OFFCURVE",
"380 806 CURVE",
"341 806 OFFCURVE",
"314 776 OFFCURVE",
"314 737 CURVE",
"314 697 OFFCURVE",
"341 669 OFFCURVE",
"379 669 CURVE"
);
}
);
width = 560;
}
);
unicode = 0308;
},
{
glyphname = dotaccentcomb;
lastChange = "2018-09-07 16:53:37 +0000";
layers = (
{
anchors = (
{
name = _top;
position = "{280, 560}";
},
{
name = top;
position = "{280, 800}";
}
);
hints = (
{
horizontal = 1;
origin = "{0, 11}";
type = Anchor;
},
{
horizontal = 1;
origin = "{0, 11}";
target = "{0, 5}";
type = TTStem;
stem = -1;
}
);
layerId = "83692D61-586C-413E-9B5A-1AF652750951";
paths = (
{
closed = 1;
nodes = (
"323 661 OFFCURVE",
"357 695 OFFCURVE",
"357 737 CURVE SMOOTH",
"357 781 OFFCURVE",
"325 814 OFFCURVE",
"281 814 CURVE SMOOTH",
"237 814 OFFCURVE",
"204 780 OFFCURVE",
"204 737 CURVE SMOOTH",
"204 692 OFFCURVE",
"236 661 OFFCURVE",
"279 661 CURVE SMOOTH"
);
}
);
width = 560;
}
);
unicode = 0307;
},
{
glyphname = gravecomb;
lastChange = "2018-09-07 16:53:45 +0000";
layers = (
{
anchors = (
{
name = _top;
position = "{280, 560}";
},
{
name = top;
position = "{280, 800}";
}
);
hints = (
{
horizontal = 1;
origin = "{0, 2}";
type = Anchor;
},
{
horizontal = 1;
origin = "{0, 2}";
target = "{0, 0}";
type = TTStem;
stem = -1;
}
);
layerId = "83692D61-586C-413E-9B5A-1AF652750951";
paths = (
{
closed = 1;
nodes = (
"252 869 LINE",
"115 869 LINE",
"254 660 LINE",
"329 660 LINE"
);
}
);
width = 560;
}
);
unicode = 0300;
},
{
glyphname = acutecomb;
lastChange = "2018-09-07 16:53:53 +0000";
layers = (
{
anchors = (
{
name = _top;
position = "{280, 560}";
},
{
name = top;
position = "{280, 800}";
}
);
hints = (
{
horizontal = 1;
origin = "{0, 0}";
type = Anchor;
},
{
horizontal = 1;
origin = "{0, 0}";
target = "{0, 2}";
type = TTStem;
stem = -1;
}
);
layerId = "83692D61-586C-413E-9B5A-1AF652750951";
paths = (
{
closed = 1;
nodes = (
"306 660 LINE",
"445 869 LINE",
"308 869 LINE",
"231 660 LINE"
);
}
);
width = 560;
}
);
unicode = 0301;
},
{
glyphname = circumflexcomb;
lastChange = "2018-09-10 14:23:22 +0000";
layers = (
{
anchors = (
{
name = _top;
position = "{280, 560}";
},
{
name = top;
position = "{280, 800}";
}
);
hints = (
{
horizontal = 1;
origin = "{0, 0}";
type = Anchor;
stem = -1;
},
{
horizontal = 1;
origin = "{0, 0}";
target = "{1, 2}";
type = Align;
options = 4;
},
{
horizontal = 1;
origin = "{1, 2}";
target = "{1, 0}";
type = TTStem;
stem = -1;
},
{
horizontal = 1;
origin = "{1, 2}";
target = "{1, 0}";
other1 = "{0, 1, 1, 2}";
type = Interpolate;
options = 4;
}
);
layerId = "83692D61-586C-413E-9B5A-1AF652750951";
paths = (
{
closed = 1;
nodes = (
"188 660 LINE",
"343 869 LINE",
"206 869 LINE",
"113 660 LINE"
);
},
{
closed = 1;
nodes = (
"354 869 LINE",
"217 869 LINE",
"372 660 LINE",
"447 660 LINE"
);
}
);
width = 560;
}
);
unicode = 0302;
},
{
glyphname = tildecomb;
lastChange = "2018-09-10 14:23:44 +0000";
layers = (
{
anchors = (
{
name = _top;
position = "{280, 560}";
},
{
name = top;
position = "{280, 800}";
}
);
hints = (
{
horizontal = 1;
origin = "{0, 6}";
type = Anchor;
stem = -1;
},
{
horizontal = 1;
origin = "{0, 6}";
target = "{0, 13}";
type = TTStem;
options = 4;
},
{
horizontal = 1;
origin = "{0, 6}";
target = "{0, 3}";
type = TTStem;
stem = -1;
},
{
horizontal = 1;
origin = "{0, 3}";
target = "{0, 16}";
type = TTStem;
options = 4;
},
{
horizontal = 1;
origin = "{0, 16}";
target = "{0, 10}";
type = Align;
},
{
horizontal = 1;
origin = "{0, 6}";
target = "{0, 0}";
type = Align;
}
);
layerId = "83692D61-586C-413E-9B5A-1AF652750951";
paths = (
{
closed = 1;
nodes = (
"182 660 LINE",
"180 727 OFFCURVE",
"188 748 OFFCURVE",
"211 748 CURVE SMOOTH",
"249 748 OFFCURVE",
"261 658 OFFCURVE",
"350 658 CURVE SMOOTH",
"419 658 OFFCURVE",
"459 703 OFFCURVE",
"452 824 CURVE",
"380 824 LINE",
"381 755 OFFCURVE",
"370 736 OFFCURVE",
"350 736 CURVE SMOOTH",
"311 736 OFFCURVE",
"300 826 OFFCURVE",
"213 826 CURVE SMOOTH",
"146 826 OFFCURVE",
"103 781 OFFCURVE",
"110 660 CURVE"
);
}
);
width = 560;
}
);
unicode = 0303;
},
{
color = 1;
glyphname = cedillacomb;
lastChange = "2018-09-10 14:24:01 +0000";
layers = (
{
anchors = (
{
name = _bottom;
position = "{280, 0}";
},
{
name = bottom;
position = "{280, -160}";
}
);
background = {
paths = (
{
closed = 1;
nodes = (
"320 -160 LINE",
"400 -160 LINE",
"400 0 LINE",
"320 0 LINE"
);
},
{
closed = 1;
nodes = (
"160 -240 LINE",
"320 -240 LINE",
"320 -160 LINE",
"160 -160 LINE"
);
}
);
};
color = -1;
hints = (
{
horizontal = 1;
origin = "{0, 2}";
type = Anchor;
},
{
horizontal = 1;
origin = "{0, 2}";
target = "{0, 15}";
type = TTStem;
options = 4;
}
);
layerId = "83692D61-586C-413E-9B5A-1AF652750951";
paths = (
{
closed = 1;
nodes = (
"178 -229 OFFCURVE",
"209 -232 OFFCURVE",
"235 -232 CURVE SMOOTH",
"323 -232 OFFCURVE",
"400 -192 OFFCURVE",
"400 -63 CURVE SMOOTH",
"400 -42 OFFCURVE",
"397 -10 OFFCURVE",
"394 14 CURVE",
"316 14 LINE",
"318 -13 OFFCURVE",
"320 -43 OFFCURVE",
"320 -68 CURVE SMOOTH",
"320 -130 OFFCURVE",
"293 -160 OFFCURVE",
"225 -160 CURVE SMOOTH",
"211 -160 OFFCURVE",
"184 -159 OFFCURVE",
"162 -156 CURVE",
"154 -224 LINE"
);
}
);
width = 560;
}
);
unicode = 0327;
},
{
glyphname = acute;
lastChange = "2018-09-10 14:24:07 +0000";
layers = (
{
hints = (
{
horizontal = 1;
origin = "{0, 3}";
type = Anchor;
},
{
horizontal = 1;
origin = "{0, 1}";
type = Anchor;
}
);
layerId = "83692D61-586C-413E-9B5A-1AF652750951";
paths = (
{
closed = 1;
nodes = (
"401 720 LINE",
"256 720 LINE",
"183 400 LINE",
"250 400 LINE"
);
}
);
width = 560;
}
);
unicode = 00B4;
},
{
glyphname = grave;
lastChange = "2018-09-10 14:24:12 +0000";
layers = (
{
hints = (
{
horizontal = 1;
origin = "{0, 2}";
type = Anchor;
},
{
horizontal = 1;
origin = "{0, 0}";
type = Anchor;
}
);
layerId = "83692D61-586C-413E-9B5A-1AF652750951";
paths = (
{
closed = 1;
nodes = (
"401 400 LINE",
"328 720 LINE",
"183 720 LINE",
"334 400 LINE"
);
}
);
width = 560;
}
);
unicode = 0060;
},
{
glyphname = dieresiscomb.case;
lastChange = "2018-09-10 14:24:26 +0000";
layers = (
{
anchors = (
{
name = _top;
position = "{280, 720}";
},
{
name = top;
position = "{280, 920}";
}
);
background = {
paths = (
{
closed = 1;
nodes = (
"400 640 LINE",
"400 800 LINE",
"320 800 LINE",
"320 640 LINE"
);
},
{
closed = 1;
nodes = (
"160 640 LINE",
"160 800 LINE",
"80 800 LINE",
"80 640 LINE"
);
}
);
};
hints = (
{
horizontal = 1;
origin = "{0, 11}";
type = Anchor;
},
{
horizontal = 1;
origin = "{0, 11}";
target = "{1, 11}";
type = Align;
options = 4;
},
{
horizontal = 1;
origin = "{1, 11}";
target = "{1, 5}";
type = TTStem;
stem = -1;
},
{
horizontal = 1;
origin = "{1, 5}";
target = "{0, 5}";
type = Align;
options = 4;
}
);
layerId = "83692D61-586C-413E-9B5A-1AF652750951";
paths = (
{
closed = 1;
nodes = (
"218 789 OFFCURVE",
"246 819 OFFCURVE",
"246 857 CURVE SMOOTH",
"246 896 OFFCURVE",
"219 926 OFFCURVE",
"180 926 CURVE SMOOTH",
"141 926 OFFCURVE",
"114 896 OFFCURVE",
"114 857 CURVE SMOOTH",
"114 817 OFFCURVE",
"141 789 OFFCURVE",
"179 789 CURVE SMOOTH"
);
},
{
closed = 1;
nodes = (
"419 789 OFFCURVE",
"446 819 OFFCURVE",
"446 858 CURVE SMOOTH",
"446 898 OFFCURVE",
"419 926 OFFCURVE",
"380 926 CURVE SMOOTH",
"341 926 OFFCURVE",
"314 896 OFFCURVE",
"314 857 CURVE SMOOTH",
"314 817 OFFCURVE",
"341 789 OFFCURVE",
"379 789 CURVE SMOOTH"
);
}
);
width = 560;
}
);
},
{
glyphname = gravecomb.case;
lastChange = "2018-09-10 14:24:31 +0000";
layers = (
{
anchors = (
{
name = _top;
position = "{280, 720}";
},
{
name = top;
position = "{280, 960}";
}
);
hints = (
{
horizontal = 1;
origin = "{0, 2}";
type = Anchor;
},
{
horizontal = 1;
origin = "{0, 1}";
type = Anchor;
}
);
layerId = "83692D61-586C-413E-9B5A-1AF652750951";
paths = (
{
closed = 1;
nodes = (
"252 989 LINE",
"115 989 LINE",
"254 780 LINE",
"329 780 LINE"
);
}
);
width = 560;
}
);
},
{
glyphname = acutecomb.case;
lastChange = "2018-09-10 14:24:35 +0000";
layers = (
{
anchors = (
{
name = _top;
position = "{280, 720}";
},
{
name = top;
position = "{280, 960}";
}
);
hints = (
{
horizontal = 1;
origin = "{0, 0}";
type = Anchor;
},
{
horizontal = 1;
origin = "{0, 2}";
type = Anchor;
}
);
layerId = "83692D61-586C-413E-9B5A-1AF652750951";
paths = (
{
closed = 1;
nodes = (
"306 780 LINE",
"445 989 LINE",
"308 989 LINE",
"231 780 LINE"
);
}
);
width = 560;
}
);
},
{
glyphname = circumflexcomb.case;
lastChange = "2019-01-23 09:12:39 +0000";
layers = (
{
anchors = (
{
name = _top;
position = "{280, 720}";
},
{
name = top;
position = "{280, 960}";
}
);
hints = (
{
horizontal = 1;
origin = "{0, 0}";
type = Anchor;
},
{
horizontal = 1;
origin = "{0, 0}";
target = "{1, 2}";
type = Align;
options = 4;
},
{
horizontal = 1;
origin = "{1, 2}";
target = "{1, 0}";
type = TTStem;
stem = -1;
},
{
horizontal = 1;
origin = "{1, 2}";
target = "{1, 0}";
other1 = "{0, 1, 1, 2}";
type = Interpolate;
options = 4;
}
);
layerId = "83692D61-586C-413E-9B5A-1AF652750951";
paths = (
{
closed = 1;
nodes = (
"188 780 LINE",
"343 989 LINE",
"206 989 LINE",
"113 780 LINE"
);
},
{
closed = 1;
nodes = (
"354 989 LINE",
"217 989 LINE",
"372 780 LINE",
"447 780 LINE"
);
}
);
width = 560;
}
);
},
{
glyphname = tildecomb.case;
lastChange = "2018-09-10 14:25:09 +0000";
layers = (
{
anchors = (
{
name = _top;
position = "{280, 720}";
},
{
name = top;
position = "{280, 960}";
}
);
hints = (
{
horizontal = 1;
origin = "{0, 6}";
type = Anchor;
},
{
horizontal = 1;
origin = "{0, 6}";
target = "{0, 13}";
type = TTStem;
options = 4;
},
{
horizontal = 1;
origin = "{0, 6}";
target = "{0, 3}";
type = TTStem;
stem = -1;
},
{
horizontal = 1;
origin = "{0, 3}";
target = "{0, 16}";
type = TTStem;
options = 4;
},
{
horizontal = 1;
origin = "{0, 16}";
target = "{0, 10}";
type = Align;
},
{
horizontal = 1;
origin = "{0, 6}";
target = "{0, 0}";
type = Align;
}
);
layerId = "83692D61-586C-413E-9B5A-1AF652750951";
paths = (
{
closed = 1;
nodes = (
"182 780 LINE",
"180 847 OFFCURVE",
"188 868 OFFCURVE",
"211 868 CURVE SMOOTH",
"249 868 OFFCURVE",
"261 778 OFFCURVE",
"350 778 CURVE SMOOTH",
"419 778 OFFCURVE",
"459 823 OFFCURVE",
"452 944 CURVE",
"380 944 LINE",
"381 875 OFFCURVE",
"370 856 OFFCURVE",
"350 856 CURVE SMOOTH",
"311 856 OFFCURVE",
"300 946 OFFCURVE",
"213 946 CURVE SMOOTH",
"146 946 OFFCURVE",
"103 901 OFFCURVE",
"110 780 CURVE"
);
}
);
width = 560;
}
);
},
{
export = 0;
glyphname = _part.asterisk;
lastChange = "2019-01-23 09:12:52 +0000";
layers = (
{
layerId = "83692D61-586C-413E-9B5A-1AF652750951";
paths = (
{
closed = 1;
nodes = (
"317 280 LINE",
"322 560 LINE",
"238 560 LINE",
"243 280 LINE"
);
}
);
width = 560;
}
);
},
{
export = 0;
glyphname = _part.brace;
lastChange = "2018-09-10 14:25:34 +0000";
layers = (
{
background = {
paths = (
{
closed = 1;
nodes = (
"233 318 OFFCURVE",
"311 357 OFFCURVE",
"307 478 CURVE SMOOTH",
"304 560 LINE SMOOTH",
"299 699 OFFCURVE",
"371 713 OFFCURVE",
"486 729 CURVE",
"478 793 LINE",
"324 779 OFFCURVE",
"215 739 OFFCURVE",
"224 556 CURVE SMOOTH",
"228 472 LINE SMOOTH",
"232 388 OFFCURVE",
"187 367 OFFCURVE",
"56 348 CURVE",
"56 308 LINE"
);
}
);
};
hints = (
{
horizontal = 1;
origin = "{0, 9}";
target = "{0, 8}";
type = TTStem;
options = 4;
},
{
horizontal = 1;
origin = "{0, 9}";
type = Anchor;
}
);
layerId = "83692D61-586C-413E-9B5A-1AF652750951";
paths = (
{
closed = 1;
nodes = (
"233 318 OFFCURVE",
"309 357 OFFCURVE",
"309 471 CURVE SMOOTH",
"309 502 OFFCURVE",
"305 533 OFFCURVE",
"305 574 CURVE SMOOTH",
"305 698 OFFCURVE",
"371 713 OFFCURVE",
"486 729 CURVE",
"479 793 LINE",
"325 779 OFFCURVE",
"224 739 OFFCURVE",
"224 575 CURVE SMOOTH",
"224 531 OFFCURVE",
"230 494 OFFCURVE",
"230 463 CURVE SMOOTH",
"230 388 OFFCURVE",
"187 367 OFFCURVE",
"56 348 CURVE",
"56 308 LINE"
);
}
);
width = 560;
},
{
associatedMasterId = "83692D61-586C-413E-9B5A-1AF652750951";
background = {
paths = (
{
closed = 1;
nodes = (
"480 800 LINE",
"320 800 LINE",
"320 720 LINE",
"480 720 LINE"
);
},
{
closed = 1;
nodes = (
"320 720 LINE",
"240 720 LINE",
"240 400 LINE",
"320 400 LINE"
);
},
{
closed = 1;
nodes = (
"80 400 LINE",
"80 240 LINE",
"240 240 LINE",
"240 400 LINE"
);
},
{
closed = 1;
nodes = (
"240 -80 LINE",
"320 -80 LINE",
"320 240 LINE",
"240 240 LINE"
);
},
{
closed = 1;
nodes = (
"480 -160 LINE",
"480 -80 LINE",
"320 -80 LINE",
"320 -160 LINE"
);
}
);
};
layerId = "6A74EB45-28ED-4890-8FA7-E3C97A19C416";
name = "Jun 14 18, 18:30";
paths = (
{
closed = 1;
nodes = (
"270 311 OFFCURVE",
"301 380 OFFCURVE",
"316 541 CURVE SMOOTH",
"329 680 OFFCURVE",
"379 713 OFFCURVE",
"484 727 CURVE",
"476 793 LINE",
"336 776 OFFCURVE",
"254 724 OFFCURVE",
"240 542 CURVE SMOOTH",
"230 408 OFFCURVE",
"209 368 OFFCURVE",
"80 352 CURVE",
"80 309 LINE"
);
}
);
width = 600;
},
{
associatedMasterId = "83692D61-586C-413E-9B5A-1AF652750951";
background = {
paths = (
{
closed = 1;
nodes = (
"480 800 LINE",
"320 800 LINE",
"320 720 LINE",
"480 720 LINE"
);
},
{
closed = 1;
nodes = (
"320 720 LINE",
"240 720 LINE",
"240 400 LINE",
"320 400 LINE"
);
},
{
closed = 1;
nodes = (
"80 400 LINE",
"80 240 LINE",
"240 240 LINE",
"240 400 LINE"
);
},
{
closed = 1;
nodes = (
"240 -80 LINE",
"320 -80 LINE",
"320 240 LINE",
"240 240 LINE"
);
},
{
closed = 1;
nodes = (
"480 -160 LINE",
"480 -80 LINE",
"320 -80 LINE",
"320 -160 LINE"
);
}
);
};
layerId = "B1F09D94-8200-40B6-989B-6271D2DDCC47";
name = "Jun 14 18, 18:36";
paths = (
{
closed = 1;
nodes = (
"250 321 OFFCURVE",
"320 357 OFFCURVE",
"320 475 CURVE SMOOTH",
"320 560 LINE SMOOTH",
"320 699 OFFCURVE",
"380 713 OFFCURVE",
"485 729 CURVE",
"476 793 LINE",
"336 776 OFFCURVE",
"240 739 OFFCURVE",
"240 556 CURVE SMOOTH",
"240 472 LINE SMOOTH",
"240 391 OFFCURVE",
"204 367 OFFCURVE",
"80 348 CURVE",
"80 308 LINE"
);
}
);
width = 600;
}
);
},
{
export = 0;
glyphname = _part.paren;
lastChange = "2018-09-10 14:25:31 +0000";
layers = (
{
background = {
paths = (
{
closed = 1;
nodes = (
"480 800 LINE",
"320 800 LINE",
"320 720 LINE",
"480 720 LINE"
);
},
{
closed = 1;
nodes = (
"320 720 LINE",
"240 720 LINE",
"240 560 LINE",
"320 560 LINE"
);
},
{
closed = 1;
nodes = (
"240 560 LINE",
"160 560 LINE",
"160 80 LINE",
"240 80 LINE"
);
},
{
closed = 1;
nodes = (
"320 -80 LINE",
"320 80 LINE",
"240 80 LINE",
"240 -80 LINE"
);
},
{
closed = 1;
nodes = (
"480 -160 LINE",
"480 -80 LINE",
"320 -80 LINE",
"320 -160 LINE"
);
}
);
};
hints = (
{
horizontal = 1;
origin = "{0, 3}";
target = "{0, 2}";
type = TTStem;
options = 4;
},
{
horizontal = 1;
origin = "{0, 3}";
type = Anchor;
}
);
layerId = "83692D61-586C-413E-9B5A-1AF652750951";
paths = (
{
closed = 1;
nodes = (
"243 538 OFFCURVE",
"287 690 OFFCURVE",
"486 726 CURVE",
"476 793 LINE",
"235 760 OFFCURVE",
"157 562 OFFCURVE",
"157 320 CURVE",
"243 320 LINE"
);
}
);
width = 560;
}
);
},
{
export = 0;
glyphname = _part.percent;
lastChange = "2018-09-10 14:25:45 +0000";
layers = (
{
hints = (
{
horizontal = 1;
origin = "{0, 11}";
target = "{1, 11}";
type = TTStem;
options = 4;
},
{
horizontal = 1;
origin = "{0, 5}";
type = Anchor;
},
{
horizontal = 1;
origin = "{0, 5}";
target = "{1, 5}";
type = TTStem;
options = 4;
}
);
layerId = "83692D61-586C-413E-9B5A-1AF652750951";
paths = (
{
closed = 1;
nodes = (
"195 -10 OFFCURVE",
"239 50 OFFCURVE",
"239 151 CURVE SMOOTH",
"239 252 OFFCURVE",
"195 311 OFFCURVE",
"120 311 CURVE SMOOTH",
"45 311 OFFCURVE",
"0 252 OFFCURVE",
"0 151 CURVE SMOOTH",
"0 50 OFFCURVE",
"45 -10 OFFCURVE",
"120 -10 CURVE SMOOTH"
);
},
{
closed = 1;
nodes = (
"88 55 OFFCURVE",
"69 80 OFFCURVE",
"69 151 CURVE SMOOTH",
"69 222 OFFCURVE",
"88 247 OFFCURVE",
"119 247 CURVE SMOOTH",
"150 247 OFFCURVE",
"169 222 OFFCURVE",
"169 151 CURVE SMOOTH",
"169 80 OFFCURVE",
"150 55 OFFCURVE",
"119 55 CURVE SMOOTH"
);
}
);
width = 560;
}
);
},
{
color = 0;
glyphname = pixel;
lastChange = "2017-12-19 16:22:08 +0000";
layers = (
{
layerId = "83692D61-586C-413E-9B5A-1AF652750951";
paths = (
{
closed = 1;
nodes = (
"0 0 LINE",
"80 0 LINE",
"80 80 LINE",
"0 80 LINE"
);
}
);
width = 560;
}
);
},
